<svg width="103" height="23" viewBox="0 0 103 23" fill="none" xmlns="http://www.w3.org/2000/svg">
<rect width="103" height="23" fill="#E5E5E5"/>
<g clip-path="url(#clip0_161_3487)">
<rect width="1440" height="2039" transform="translate(-135 -31)" fill="white"/>
<rect width="1440" height="800" transform="translate(-135 -31)" fill="#F5F5FA"/>
<rect x="-135" y="-31" width="1440" height="90" fill="#212A6B"/>
<g clip-path="url(#clip1_161_3487)">
<path d="M48.078 8.03497C48.074 7.55804 47.8832 7.10222 47.5477 6.76749C47.2122 6.43276 46.7592 6.24645 46.2882 6.24942H33.2835C32.8143 6.24941 32.3642 6.43703 32.0311 6.77144C31.6979 7.10585 31.5087 7.55998 31.5047 8.03497C31.5035 8.27235 31.5486 8.50764 31.6375 8.72732C31.7263 8.94701 31.8571 9.14677 32.0224 9.31514C32.1877 9.48352 32.3841 9.6172 32.6005 9.70852C32.8169 9.79984 33.049 9.847 33.2835 9.84729H38.0093V21.1877C38.0008 21.4297 38.0407 21.671 38.1263 21.8971C38.212 22.1232 38.3417 22.3295 38.5078 22.5037C38.6739 22.6779 38.873 22.8165 39.0931 22.9111C39.3133 23.0058 39.55 23.0545 39.7891 23.0545C40.0283 23.0545 40.265 23.0058 40.4851 22.9111C40.7053 22.8165 40.9043 22.6779 41.0705 22.5037C41.2366 22.3295 41.3663 22.1232 41.452 21.8971C41.5376 21.671 41.5774 21.4297 41.569 21.1877V9.84729H46.2882C46.5236 9.84847 46.7569 9.8024 46.9745 9.71174C47.1922 9.62109 47.39 9.48764 47.5564 9.31911C47.7228 9.15058 47.8546 8.95032 47.9442 8.72991C48.0337 8.50949 48.0792 8.27329 48.078 8.03497Z" fill="white"/>
<path d="M27.8038 6.24939C27.3343 6.24879 26.8836 6.43615 26.55 6.77062C26.2163 7.1051 26.0268 7.55956 26.0228 8.03493V14.4807C26.0228 15.743 25.5286 16.9538 24.6486 17.8479C23.7686 18.7419 22.5744 19.2462 21.3278 19.2504C18.7269 19.2504 16.5998 16.9894 16.5998 14.3558V8.03493C16.5957 7.55995 16.4065 7.10582 16.0734 6.77141C15.7403 6.437 15.2901 6.24938 14.821 6.24939H3.55978V3.60456H15.2288C15.4626 3.60485 15.6941 3.55848 15.9102 3.4681C16.1263 3.37771 16.3226 3.24509 16.488 3.0778C16.6534 2.91052 16.7847 2.71186 16.8742 2.49319C16.9637 2.27452 17.0098 2.04012 17.0098 1.8034C17.0098 1.32511 16.8222 0.866405 16.4882 0.528203C16.1542 0.19 15.7012 0 15.2288 0H1.7832C1.48553 0.000489883 1.19283 0.0772724 0.932376 0.223193C0.881679 0.252208 0.833187 0.281223 0.784695 0.314702C0.543652 0.478955 0.346071 0.700562 0.209266 0.960103C0.0724611 1.21965 0.000606846 1.5092 0 1.8034L0 8.03493V21.1877C0.000584117 21.6656 0.188482 22.1237 0.522419 22.4614C0.856357 22.7992 1.30903 22.9888 1.78099 22.9888C2.01477 22.9888 2.24626 22.9422 2.46221 22.8515C2.67817 22.7609 2.87436 22.628 3.03957 22.4605C3.20477 22.293 3.33575 22.0942 3.42501 21.8754C3.51427 21.6566 3.56007 21.4222 3.55978 21.1854V9.84726H13.0378V14.4807C13.0391 15.672 13.291 16.8494 13.7768 17.9343C14.2625 19.0193 14.9711 19.987 15.8551 20.773C16.7392 21.559 17.7785 22.1453 18.9038 22.4927C20.0291 22.8402 21.2147 22.9408 22.3814 22.788C23.8541 22.5995 25.248 22.0076 26.4129 21.0761C27.4019 20.2935 28.2013 19.2925 28.7502 18.1495C29.2992 17.0065 29.5831 15.7517 29.5803 14.4807V8.03493C29.5763 7.56034 29.3874 7.10654 29.0547 6.77219C28.722 6.43784 28.2725 6.24996 27.8038 6.24939Z" fill="white"/>
<path d="M62.4538 19.3954H57.1593C56.1757 19.3954 55.3783 20.2023 55.3783 21.1977C55.3783 22.193 56.1757 22.9999 57.1593 22.9999H62.4538C63.4374 22.9999 64.2348 22.193 64.2348 21.1977C64.2348 20.2023 63.4374 19.3954 62.4538 19.3954Z" fill="#F03856"/>
<path d="M101.219 19.3954H97.0641C94.4786 19.3954 92.2281 17.255 92.2149 14.6369C92.2066 13.4028 92.6749 12.2143 93.5198 11.3248C93.9784 10.8497 94.5274 10.4739 95.1336 10.2199C95.7397 9.96593 96.3905 9.83915 97.0465 9.84723H101.217C101.452 9.84753 101.684 9.80079 101.901 9.70971C102.118 9.61863 102.314 9.48501 102.48 9.31654C102.646 9.14807 102.777 8.94809 102.865 8.72813C102.954 8.50817 102.999 8.27257 102.998 8.03491C102.994 7.55992 102.805 7.10579 102.471 6.77138C102.138 6.43697 101.688 6.24935 101.219 6.24937H97.095C94.8977 6.22942 92.7784 7.07355 91.1833 8.60405C89.9991 9.76478 89.1841 11.2571 88.8427 12.8897C88.5013 14.5224 88.6491 16.2211 89.2671 17.7682C89.885 19.3154 90.9451 20.6404 92.3114 21.5737C93.6778 22.507 95.2882 23.0059 96.9363 23.0067H101.219C101.453 23.007 101.685 22.9605 101.901 22.87C102.117 22.7795 102.314 22.6466 102.479 22.4791C102.644 22.3116 102.776 22.1127 102.865 21.8938C102.954 21.6748 103 21.4402 103 21.2033C103.001 20.9661 102.955 20.7311 102.866 20.5118C102.777 20.2925 102.645 20.0931 102.48 19.9252C102.315 19.7573 102.118 19.624 101.902 19.5331C101.685 19.4422 101.453 19.3954 101.219 19.3954Z" fill="white"/>
<path d="M84.7867 11.972C84.5529 11.972 84.3214 12.0187 84.1054 12.1094C83.8895 12.2 83.6933 12.3329 83.5281 12.5004C83.3629 12.6679 83.2319 12.8667 83.1426 13.0855C83.0534 13.3043 83.0076 13.5387 83.0079 13.7754V19.3954H79.4922C79.2579 19.3954 79.026 19.4422 78.8096 19.5331C78.5932 19.624 78.3967 19.7573 78.2313 19.9252C78.0658 20.0931 77.9347 20.2925 77.8455 20.5118C77.7562 20.7311 77.7106 20.9661 77.7112 21.2033C77.7112 21.44 77.7573 21.6744 77.8468 21.8931C77.9363 22.1118 78.0676 22.3104 78.233 22.4777C78.3984 22.645 78.5947 22.7776 78.8108 22.868C79.0269 22.9584 79.2584 23.0048 79.4922 23.0045H84.7823C85.1956 23.005 85.5961 22.8598 85.9152 22.5938C85.9593 22.5558 86.0012 22.5179 86.0409 22.4777C86.2072 22.3109 86.3393 22.1124 86.4297 21.8937C86.5201 21.675 86.567 21.4404 86.5677 21.2033V13.7754C86.5677 13.2972 86.38 12.8385 86.046 12.5002C85.712 12.162 85.259 11.972 84.7867 11.972Z" fill="white"/>
<path d="M84.7867 6.49048C84.3844 6.49092 83.9913 6.61212 83.657 6.83875C83.3227 7.06538 83.0623 7.38727 82.9086 7.76374C82.755 8.14021 82.715 8.55435 82.7938 8.95381C82.8725 9.35328 83.0664 9.72014 83.3511 10.008C83.6357 10.2959 83.9982 10.4919 84.3928 10.5712C84.7874 10.6505 85.1963 10.6096 85.5679 10.4536C85.9396 10.2976 86.2572 10.0336 86.4806 9.69483C86.7041 9.3561 86.8233 8.9579 86.8233 8.55055C86.8233 8.27983 86.7706 8.01176 86.6683 7.76168C86.5659 7.51159 86.4158 7.28439 86.2267 7.09307C86.0375 6.90175 85.813 6.75005 85.5659 6.64665C85.3188 6.54326 85.054 6.49019 84.7867 6.49048Z" fill="white"/>
<path d="M80.8941 8.25811C80.8944 8.02139 80.8486 7.78693 80.7593 7.56815C80.67 7.34936 80.5391 7.15054 80.3739 6.98305C80.2087 6.81556 80.0125 6.68269 79.7965 6.59203C79.5806 6.50137 79.3491 6.45471 79.1153 6.45471H74.4865C72.2932 6.45708 70.1905 7.34035 68.6396 8.91072C67.0887 10.4811 66.2164 12.6103 66.2141 14.8311V21.2033C66.2303 21.6703 66.425 22.1127 66.757 22.4373C67.089 22.7618 67.5325 22.9432 67.994 22.9432C68.4555 22.9432 68.899 22.7618 69.231 22.4373C69.563 22.1127 69.7577 21.6703 69.7739 21.2033V14.8222C69.7733 13.5566 70.2688 12.3425 71.1516 11.4465C72.0343 10.5506 73.2322 10.046 74.4821 10.0436H79.1109C79.5807 10.0448 80.032 9.85775 80.3661 9.52321C80.7002 9.18867 80.89 8.73387 80.8941 8.25811Z" fill="white"/>
<path d="M56.088 6.24939C53.925 6.24939 51.8507 7.11944 50.3212 8.66814C48.7917 10.2168 47.9325 12.3173 47.9325 14.5075C47.9325 14.9515 48.1067 15.3772 48.4167 15.6912C48.7267 16.0051 49.1472 16.1815 49.5856 16.1815H62.5706C63.009 16.1815 63.4295 16.0051 63.7395 15.6912C64.0496 15.3772 64.2237 14.9515 64.2237 14.5075C64.2237 12.3208 63.3672 10.2234 61.842 8.67523C60.3169 7.12711 58.2476 6.25471 56.088 6.24939ZM51.5386 12.8224C51.8822 11.8812 52.5024 11.0692 53.3156 10.4958C54.1287 9.92227 55.0959 9.61484 56.0869 9.61484C57.0779 9.61484 58.0451 9.92227 58.8583 10.4958C59.6715 11.0692 60.2917 11.8812 60.6353 12.8224H51.5386Z" fill="white"/>
</g>
</g>
<defs>
<clipPath id="clip0_161_3487">
<rect width="1440" height="2039" fill="white" transform="translate(-135 -31)"/>
</clipPath>
<clipPath id="clip1_161_3487">
<rect width="103" height="23" fill="white"/>
</clipPath>
</defs>
</svg>
