<svg width="94" height="68" viewBox="0 0 94 68" fill="none" xmlns="http://www.w3.org/2000/svg">
<g id="Layer_1" clip-path="url(#clip0_254_5712)">
<path id="Vector" d="M17.7719 50.7632C17.8625 50.6676 17.9506 50.5688 18.0435 50.4645C18.053 50.4538 18.0626 50.443 18.0723 50.4322L18.1469 50.4987L18.0719 50.4326C18.1763 50.3142 18.2828 50.195 18.3927 50.0787L18.3928 50.0785C21.7465 46.5436 25.7316 43.59 30.5766 41.0509C33.7358 39.3951 36.4313 38.2381 39.0609 37.4104C39.6438 37.2267 40.2251 37.0399 40.8067 36.853L40.8072 36.8529L40.8378 36.9481L40.8072 36.8529L40.8814 36.829C42.3523 36.3565 43.875 35.8674 45.3936 35.4505C49.0478 34.446 52.3055 33.8181 55.35 33.5334L55.3501 33.5334C56.1183 33.4621 56.9014 33.3582 57.6617 33.2573L57.7192 33.2497L57.7323 33.3488L57.7192 33.2497L57.7688 33.2431C59.063 33.0718 60.4046 32.8942 61.7397 32.863L61.7397 32.863C62.8459 32.8376 64.0102 32.8241 65.199 32.8241C67.4693 32.8241 69.8695 32.869 72.7532 32.9648C74.9644 33.0382 77.1716 33.2989 79.2384 33.5576L79.2385 33.5576L79.3142 33.5672C81.5696 33.8512 83.9053 34.1453 86.2117 34.6477C87.9039 35.0147 89.5471 35.4899 91.2797 35.9911L91.3042 35.9982L91.3043 35.9982C91.9382 36.1822 92.59 36.3703 93.2518 36.5559C93.2584 36.5333 93.265 36.5107 93.2716 36.4882C93.2916 36.42 93.3115 36.3521 93.3313 36.2823L93.3313 36.2821C93.4842 35.7474 93.6448 35.189 93.8646 34.6494L93.8647 34.6492C93.866 34.646 93.8673 34.6428 93.8686 34.6396C93.8536 34.6359 93.8388 34.6322 93.8248 34.6288L93.8238 34.6285L93.789 34.6196C92.7598 34.3617 91.7174 34.0893 90.7075 33.8254L90.6617 33.8134L90.6616 33.8134C89.544 33.5203 88.3887 33.2184 87.2503 32.936L87.2502 32.9359L86.8492 32.8358L86.8491 32.8357L86.8011 32.8238C85.3213 32.4566 83.7982 32.0785 82.2846 31.8159L82.3017 31.7174L82.2846 31.8159C80.1696 31.4485 78.3111 31.2052 76.6018 31.0724L76.6095 30.9728L76.6018 31.0724C73.3714 30.8213 70.7296 30.6914 68.2919 30.6615L68.2916 30.6615C68.092 30.6585 67.8937 30.6585 67.693 30.6585C65.8112 30.6585 63.8914 30.7642 62.0306 30.8665L61.9818 30.8692L61.1688 30.9141L61.1688 30.9141C59.4203 31.0098 57.5636 31.1218 55.7138 31.3665L55.7138 31.3665C53.9823 31.5948 52.1047 31.9233 49.8006 32.4C48.4258 32.6853 47.0324 33.0125 45.685 33.3295C44.8046 33.5373 43.8947 33.7513 42.9969 33.9518L42.9968 33.9519C42.9842 33.9547 42.9716 33.9574 42.959 33.9602C42.9037 33.9724 42.8485 33.9846 42.7932 33.9979L42.7925 33.998L42.7895 33.9987C42.405 34.0878 41.9938 34.183 41.5803 34.183C41.4492 34.183 41.3246 34.1721 41.2065 34.1534L41.2058 34.1533C40.1908 33.9853 39.1717 33.7619 38.1908 33.5467L17.7719 50.7632ZM17.7719 50.7632L17.5303 50.5585L17.5301 50.5583C17.142 50.2311 16.7458 49.8954 16.3943 49.5388C16.3929 49.5346 16.3907 49.5275 16.3882 49.5168C16.3836 49.4967 16.3795 49.4711 16.3767 49.4436C16.3724 49.3995 16.3724 49.3605 16.3751 49.3351L16.6116 49.0876L16.6117 49.0874L16.6499 49.0476C17.6305 48.0247 18.6395 46.9723 19.709 46.0263C20.6403 45.2031 21.6221 44.4241 22.6643 43.5972L22.6704 43.5924L22.6704 43.5924L22.7865 43.5002C23.2243 43.1527 23.673 42.7965 24.1333 42.4239C24.1333 42.4239 24.1333 42.4239 24.1333 42.4239L24.7487 41.926L24.9554 41.7588L24.6897 41.7483L23.8906 41.7169C23.0487 41.684 22.1993 41.6675 21.3666 41.6675C16.8588 41.6675 12.5034 42.1281 8.06386 43.0772L7.62054 41.1769C7.76622 41.1429 7.91156 41.1082 8.05567 41.0739C8.15501 41.0502 8.25376 41.0266 8.35164 41.0035L8.3521 41.0034L8.37344 40.9983C9.18674 40.8023 10.0211 40.6012 10.8472 40.4864C12.4418 40.2651 14.5403 39.998 16.6423 39.8935C19.3327 39.7591 22.0189 39.7441 24.5404 39.7397C25.0232 39.7397 25.4921 39.799 25.9964 39.8628L26.0098 39.8645L26.0099 39.8645L26.0422 39.8686C26.4709 39.9225 26.9192 39.979 27.3682 39.9923L27.3682 39.9924H27.3712H27.3713H27.3715H27.3716H27.3718H27.3719H27.3721H27.3723H27.3724H27.3726H27.3727H27.3729H27.373H27.3732H27.3733H27.3735H27.3736H27.3738H27.3739H27.3741H27.3742H27.3744H27.3745H27.3747H27.3748H27.375H27.3751H27.3753H27.3755H27.3756H27.3758H27.3759H27.3761H27.3762H27.3764H27.3765H27.3767H27.3768H27.377H27.3771H27.3773H27.3774H27.3776H27.3777H27.3779H27.378H27.3782H27.3783H27.3785H27.3787H27.3788H27.379H27.3791H27.3793H27.3794H27.3796H27.3797H27.3799H27.38H27.3802H27.3803H27.3805H27.3806H27.3808H27.3809H27.3811H27.3812H27.3814H27.3815H27.3817H27.3819H27.382H27.3822H27.3823H27.3825H27.3826H27.3828H27.3829H27.3831H27.3832H27.3834H27.3835H27.3837H27.3838H27.384H27.3841H27.3843H27.3844H27.3846H27.3847H27.3849H27.3851H27.3852H27.3854H27.3855H27.3857H27.3858H27.386H27.3861H27.3863H27.3864H27.3866H27.3867H27.3869H27.387H27.3872H27.3873H27.3875H27.3876H27.3878H27.3879H27.3881H27.3882H27.3884H27.3886H27.3887H27.3889H27.389H27.3892H27.3893H27.3895H27.3896H27.3898H27.3899H27.3901H27.3902H27.3904H27.3905H27.3907H27.3908H27.391H27.3911H27.3913H27.3914H27.3916H27.3917H27.3919H27.392H27.3922H27.3924H27.3925H27.3927H27.3928H27.393H27.3931H27.3933H27.3934H27.3936H27.3937H27.3939H27.394H27.3942H27.3943H27.3945H27.3946H27.3948H27.3949H27.3951H27.3952H27.3954H27.3955H27.3957H27.3958H27.396H27.3961H27.3963H27.3964H27.3966H27.3967H27.3969H27.3971H27.3972H27.3974H27.3975H27.3977H27.3978H27.398H27.3981H27.3983H27.3984H27.3986H27.3987H27.3989H27.399H27.3992H27.3993H27.3995H27.3996H27.3998H27.3999H27.4001H27.4002H27.4004H27.4005H27.4007H27.4008H27.401H27.4011H27.4013H27.4014H27.4016H27.4017H27.4019H27.402H27.4022H27.4023H27.4025H27.4027H27.4028H27.403H27.4031H27.4033H27.4034H27.4036H27.4037H27.4039H27.404H27.4042H27.4043H27.4045H27.4046H27.4048H27.4049H27.4051H27.4052H27.4054H27.4055H27.4057H27.4058H27.406H27.4061H27.4063H27.4064H27.4066H27.4067H27.4069H27.407H27.4072H27.4073H27.4075H27.4076H27.4078H27.4079H27.4081H27.4082H27.4084H27.4085H27.4087H27.4088H27.409H27.4091H27.4093H27.4094H27.4096H27.4097H27.4099H27.41H27.4102H27.4103H27.4105H27.4106H27.4108H27.4109H27.4111H27.4112H27.4114H27.4115H27.4117H27.4118H27.412H27.4121H27.4123H27.4124H27.4126H27.4127H27.4129H27.413H27.4132H27.4133H27.4135H27.4136H27.4138H27.4139H27.4141H27.4142H27.4144H27.4145H27.4147H27.4148H27.415H27.4151H27.4153H27.4154H27.4156H27.4157H27.4159H27.416H27.4162H27.4163H27.4165H27.4166H27.4168H27.4169H27.4171H27.4172H27.4174H27.4175H27.4177H27.4178H27.418H27.4181H27.4183H27.4184H27.4186H27.4187H27.4189H27.419H27.4192H27.4193H27.4195H27.4196H27.4198H27.4199H27.4201H27.4202H27.4204H27.4205H27.4207H27.4208H27.421H27.4211H27.4212H27.4214H27.4215H27.4217H27.4218H27.422H27.4221H27.4223H27.4224H27.4226H27.4227H27.4229H27.423H27.4232H27.4233H27.4235H27.4236H27.4238H27.4239H27.4241H27.4242H27.4244H27.4245H27.4247H27.4248H27.425H27.4251H27.4253H27.4254H27.4256H27.4257H27.4258H27.426H27.4261H27.4263H27.4264H27.4266H27.4267H27.4269H27.427H27.4272H27.4273H27.4275H27.4276H27.4278H27.4279H27.4281H27.4282H27.4284H27.4285H27.4287H27.4288H27.429H27.4291H27.4292H27.4294H27.4295H27.4297H27.4298H27.43H27.4301H27.4303H27.4304H27.4306H27.4307H27.4309H27.431H27.4312H27.4313H27.4315H27.4316H27.4317H27.4319H27.432H27.4322H27.4323H27.4325H27.4326H27.4328H27.4329H27.4331H27.4332H27.4334H27.4335H27.4337H27.4338H27.434H27.4341H27.4342H27.4344H27.4345H27.4347H27.4348H27.435H27.4351H27.4353H27.4354H27.4356H27.4357H27.4359H27.436H27.4361H27.4363H27.4364H27.4366H27.4367H27.4369H27.437H27.4372H27.4373H27.4375H27.4376H27.4378H27.4379H27.438H27.4382H27.4383H27.4385H27.4386H27.4388H27.4389H27.4391H27.4392H27.4394H27.4395H27.4396H27.4398H27.4399H27.4401H27.4402H27.4404H27.4405H27.4407H27.4408H27.441H27.4411H27.4412H27.4414H27.4415H27.4417H27.4418H27.442H27.4421H27.4423H27.4424H27.4425H27.4427H27.4428H27.443H27.4431H27.4433H27.4434H27.4436H27.4437H27.4438H27.444H27.4441H27.4443H27.4444H27.4446H27.4447H27.4449H27.445H27.4451H27.4453H27.4454H27.4456H27.4457H27.4459H27.446H27.4462H27.4463H27.4464H27.4466H27.4467H27.4469H27.447H27.4472H27.4473H27.4474H27.4476H27.4477C27.9143 39.9924 28.4367 39.8687 28.9178 39.6483L28.9178 39.6483C30.7998 38.7857 32.7004 37.8867 34.5427 37.0152L34.7275 36.9278C34.7275 36.9278 34.7275 36.9278 34.7275 36.9278C34.9886 36.8044 35.2492 36.6811 35.5099 36.5577C35.7705 36.4343 36.0311 36.311 36.2922 36.1876C36.4046 36.1345 36.4716 36.0508 36.506 36.0077C36.5076 36.0058 36.5091 36.0039 36.5105 36.0021C36.5107 36.0019 36.5109 36.0016 36.5111 36.0014L36.5221 35.9883L36.5236 35.9865L36.8267 35.6413L36.928 35.526L36.7816 35.48L36.3391 35.3409L36.3379 35.3405C33.5799 34.5112 27.3486 33.675 20.768 33.675C19.9402 33.675 19.1124 33.6885 18.3075 33.7154C11.9924 33.9225 6.28568 34.9721 0.878823 36.9238C0.868153 36.9046 0.857343 36.8852 0.846508 36.866L0.841127 36.8563C0.689567 36.5839 0.549479 36.3322 0.441781 36.0671L0.441709 36.0669C0.332439 35.7993 0.252742 35.5193 0.159068 35.1878L0.159072 35.1878L0.158815 35.1869C0.150453 35.1583 0.141773 35.1275 0.132853 35.0958C0.128344 35.0798 0.123775 35.0635 0.119154 35.0473C0.182973 35.0193 0.246645 34.9908 0.309952 34.9625L0.310041 34.9625C0.310085 34.9625 0.310129 34.9624 0.310173 34.9624C0.675933 34.8003 1.04668 34.6364 1.41725 34.5386L1.39174 34.4419M17.7719 50.7632L38.1907 33.5467L38.0585 33.5178C37.5733 33.4116 37.0765 33.3029 36.5862 33.2031L36.5859 33.203C36.355 33.1552 36.1256 33.1074 35.8963 33.0596L35.8953 33.0594L35.8951 33.0594C35.0034 32.8723 34.0843 32.6803 33.1781 32.5673C31.729 32.3866 30.1401 32.2373 28.1756 32.0983C27.7885 32.0714 27.4015 32.043 27.0147 32.0146L27.0134 32.0145C24.992 31.868 22.9033 31.7171 20.8534 31.6783L20.8533 31.6783C20.2568 31.6664 19.7676 31.6619 19.312 31.6619C17.1588 31.6619 15.5209 31.7873 13.9992 32.067L13.9992 32.067C13.0656 32.2383 12.1084 32.343 11.1867 32.4439L11.1642 32.4464L11.1534 32.3469L11.1642 32.4464L11.1374 32.4493C10.1467 32.5576 9.12732 32.6691 8.15058 32.8622L8.15053 32.8622C6.32031 33.2233 4.4803 33.7174 2.69768 34.196C2.65136 34.2085 2.60506 34.221 2.55877 34.2335C2.17825 34.3361 1.7983 34.4385 1.41714 34.5386L1.39174 34.4419M1.39174 34.4419C1.01205 34.5421 0.633898 34.7096 0.269521 34.8711L2.67182 34.0994L2.67165 34.0995C2.62534 34.1119 2.57906 34.1244 2.53278 34.1369C2.1522 34.2395 1.77258 34.3419 1.39174 34.4419ZM20.8553 31.5783C22.9083 31.6172 24.9997 31.7683 27.0206 31.9148L27.0219 31.9149L20.8553 31.5783Z" fill="#425375" stroke="white" stroke-width="0.2"/>
<g id="Vector_2">
<mask id="path-2-inside-1_254_5712" fill="white">
<path d="M41.2987 68C41.2283 67.9656 41.1089 67.8475 41.0874 67.7907C40.8961 67.1088 40.7169 66.409 40.5439 65.7301C40.3265 64.8778 40.1 63.9955 39.8458 63.1357C39.1905 60.9196 38.1678 58.889 36.8083 57.1036C36.5894 56.815 36.3444 56.6759 36.0612 56.6759C35.8683 56.6759 35.6631 56.7432 35.4335 56.8822C33.5963 57.9918 31.9153 59.345 30.4394 60.9017C30.32 61.0273 30.2266 61.1693 30.1378 61.3099L28.3618 59.8938C29.4626 58.4793 30.8834 57.3892 32.2597 56.3335L32.3853 56.2378C34.4414 54.6602 36.8604 53.286 40.227 51.7862C42.4072 50.8142 44.7771 50.1009 46.8271 49.5088C49.0655 48.8628 51.4661 48.2781 54.1652 47.7234C54.9567 47.5604 55.7881 47.4781 56.5903 47.3974C57.3772 47.3181 58.1902 47.2374 58.9802 47.0819C61.1358 46.6572 63.3604 46.6333 65.5114 46.6093C65.9355 46.6049 66.3596 46.6004 66.7837 46.5929L67.2384 46.5839C67.9288 46.572 68.6438 46.5585 69.345 46.5585C70.5744 46.5585 71.5695 46.6004 72.479 46.6901C74.8597 46.9249 77.2694 47.3121 79.5996 47.6875L80.4539 47.825C81.7874 48.0389 83.1347 48.3245 84.4391 48.5996L85.1877 48.7581C85.6011 48.8449 86.0191 48.9645 86.4615 49.0916C86.5901 49.1275 86.7203 49.1664 86.855 49.2037C86.8244 49.3084 86.7938 49.4116 86.7631 49.5148C86.5947 50.0935 86.434 50.6407 86.2441 51.1791C86.1982 51.203 86.1094 51.2329 86.0497 51.2329C85.1816 51.0415 84.2998 50.8366 83.4485 50.6378C82.3079 50.3716 81.1276 50.0964 79.9609 49.8497C79.3271 49.7151 78.6749 49.6493 78.0441 49.585C77.7793 49.5581 77.5144 49.5312 77.2511 49.4998C76.9923 49.4684 76.7321 49.443 76.4029 49.4086C76.233 49.3907 76.0431 49.3727 75.8257 49.3488L75.051 49.268L75.5609 49.8422C78.3381 52.966 80.2824 56.1854 81.498 59.674L79.4144 60.3738C79.3348 60.2004 79.2551 60.0269 79.174 59.8535C78.9214 59.3077 78.6611 58.7424 78.4146 58.1862C76.8484 54.6497 74.5075 51.6411 71.4547 49.2441C71.1424 48.9989 70.6617 48.8389 70.2299 48.8389H69.7186C67.0026 48.8389 64.2483 48.8718 61.8171 48.9002C61.6196 48.9032 61.4374 48.9645 61.3027 49.0078C61.2598 49.0228 61.22 49.0363 61.1863 49.0452L60.773 49.1499L61.0087 49.4983C61.3563 50.0127 61.7145 50.5271 62.0621 51.025C62.8398 52.1406 63.6451 53.2935 64.3356 54.4718C65.2006 55.9477 65.96 57.5207 66.6933 59.043C66.8372 59.3421 66.9812 59.6411 67.1266 59.9387C67.3164 60.329 67.4573 60.7357 67.6073 61.1678C67.713 61.4729 67.8217 61.7869 67.9487 62.0935C67.9993 62.2161 68.0069 62.2759 68.0069 62.2998C67.9855 62.3133 67.9197 62.3432 67.7467 62.3761C67.2215 62.4733 66.678 62.6422 66.133 62.8755C66.012 62.9279 65.9569 62.9338 65.9385 62.9338C65.9355 62.9338 65.9003 62.9069 65.8467 62.7738C65.6859 62.388 65.5282 61.9993 65.3706 61.612C64.8913 60.4351 64.3968 59.2164 63.8319 58.0501C63.2746 56.8972 62.5994 55.7518 61.8248 54.6482C61.3272 53.9394 60.7852 53.2486 60.2601 52.5802C59.6875 51.8505 59.0935 51.0953 58.5668 50.3222C58.2009 49.7869 57.6635 49.5163 56.9685 49.5163C56.8261 49.5163 56.673 49.5267 56.5 49.5507C55.1956 49.7226 53.8927 50.0082 52.6311 50.2849C52.2147 50.3761 51.7983 50.4673 51.3818 50.5555C51.0052 50.6348 50.6286 50.732 50.229 50.8336C50.0346 50.883 49.831 50.9353 49.6151 50.9892L49.1956 51.0923L49.436 51.4437C52.1259 55.3899 54.1285 59.7996 55.5553 64.9181C55.4757 64.9391 55.3946 64.96 55.3134 64.9824C54.701 65.1454 54.0687 65.3129 53.4319 65.452C53.3813 65.3877 53.3186 65.289 53.2941 65.2187C53.1486 64.7985 53.0108 64.3664 52.8776 63.9477C52.6755 63.3121 52.4673 62.6557 52.2239 62.0202L52.0432 61.5477C51.5365 60.2198 51.0114 58.8471 50.3576 57.5536C49.8218 56.4935 49.1971 55.4602 48.5954 54.4598C48.2755 53.929 47.9432 53.3787 47.6309 52.8344C47.3921 52.4202 47.0369 51.9432 46.4046 51.9432C46.1994 51.9432 45.9851 51.9925 45.7447 52.0927C44.6669 52.5458 43.5585 52.9854 42.4883 53.4116C41.9065 53.6419 41.3247 53.8736 40.743 54.1084C40.2362 54.3133 39.734 54.5241 39.2502 54.729C39.039 54.8187 38.8308 54.9054 38.6271 54.9907L38.3087 55.1237L38.4817 55.4153C38.7328 55.8385 38.9946 56.2497 39.2487 56.649C39.8152 57.5387 40.3495 58.3776 40.7353 59.2822C41.3753 60.7836 41.8836 62.3761 42.3765 63.9163C42.5036 64.314 42.6307 64.7118 42.7593 65.108C42.9614 65.7286 43.1206 66.4135 43.2722 67.3301C43.2722 67.3854 43.1849 67.5439 43.1283 67.5888C42.5373 67.7787 41.9188 67.9178 41.2911 68.003L41.2987 68Z"/>
</mask>
<path d="M41.2987 68C41.2283 67.9656 41.1089 67.8475 41.0874 67.7907C40.8961 67.1088 40.7169 66.409 40.5439 65.7301C40.3265 64.8778 40.1 63.9955 39.8458 63.1357C39.1905 60.9196 38.1678 58.889 36.8083 57.1036C36.5894 56.815 36.3444 56.6759 36.0612 56.6759C35.8683 56.6759 35.6631 56.7432 35.4335 56.8822C33.5963 57.9918 31.9153 59.345 30.4394 60.9017C30.32 61.0273 30.2266 61.1693 30.1378 61.3099L28.3618 59.8938C29.4626 58.4793 30.8834 57.3892 32.2597 56.3335L32.3853 56.2378C34.4414 54.6602 36.8604 53.286 40.227 51.7862C42.4072 50.8142 44.7771 50.1009 46.8271 49.5088C49.0655 48.8628 51.4661 48.2781 54.1652 47.7234C54.9567 47.5604 55.7881 47.4781 56.5903 47.3974C57.3772 47.3181 58.1902 47.2374 58.9802 47.0819C61.1358 46.6572 63.3604 46.6333 65.5114 46.6093C65.9355 46.6049 66.3596 46.6004 66.7837 46.5929L67.2384 46.5839C67.9288 46.572 68.6438 46.5585 69.345 46.5585C70.5744 46.5585 71.5695 46.6004 72.479 46.6901C74.8597 46.9249 77.2694 47.3121 79.5996 47.6875L80.4539 47.825C81.7874 48.0389 83.1347 48.3245 84.4391 48.5996L85.1877 48.7581C85.6011 48.8449 86.0191 48.9645 86.4615 49.0916C86.5901 49.1275 86.7203 49.1664 86.855 49.2037C86.8244 49.3084 86.7938 49.4116 86.7631 49.5148C86.5947 50.0935 86.434 50.6407 86.2441 51.1791C86.1982 51.203 86.1094 51.2329 86.0497 51.2329C85.1816 51.0415 84.2998 50.8366 83.4485 50.6378C82.3079 50.3716 81.1276 50.0964 79.9609 49.8497C79.3271 49.7151 78.6749 49.6493 78.0441 49.585C77.7793 49.5581 77.5144 49.5312 77.2511 49.4998C76.9923 49.4684 76.7321 49.443 76.4029 49.4086C76.233 49.3907 76.0431 49.3727 75.8257 49.3488L75.051 49.268L75.5609 49.8422C78.3381 52.966 80.2824 56.1854 81.498 59.674L79.4144 60.3738C79.3348 60.2004 79.2551 60.0269 79.174 59.8535C78.9214 59.3077 78.6611 58.7424 78.4146 58.1862C76.8484 54.6497 74.5075 51.6411 71.4547 49.2441C71.1424 48.9989 70.6617 48.8389 70.2299 48.8389H69.7186C67.0026 48.8389 64.2483 48.8718 61.8171 48.9002C61.6196 48.9032 61.4374 48.9645 61.3027 49.0078C61.2598 49.0228 61.22 49.0363 61.1863 49.0452L60.773 49.1499L61.0087 49.4983C61.3563 50.0127 61.7145 50.5271 62.0621 51.025C62.8398 52.1406 63.6451 53.2935 64.3356 54.4718C65.2006 55.9477 65.96 57.5207 66.6933 59.043C66.8372 59.3421 66.9812 59.6411 67.1266 59.9387C67.3164 60.329 67.4573 60.7357 67.6073 61.1678C67.713 61.4729 67.8217 61.7869 67.9487 62.0935C67.9993 62.2161 68.0069 62.2759 68.0069 62.2998C67.9855 62.3133 67.9197 62.3432 67.7467 62.3761C67.2215 62.4733 66.678 62.6422 66.133 62.8755C66.012 62.9279 65.9569 62.9338 65.9385 62.9338C65.9355 62.9338 65.9003 62.9069 65.8467 62.7738C65.6859 62.388 65.5282 61.9993 65.3706 61.612C64.8913 60.4351 64.3968 59.2164 63.8319 58.0501C63.2746 56.8972 62.5994 55.7518 61.8248 54.6482C61.3272 53.9394 60.7852 53.2486 60.2601 52.5802C59.6875 51.8505 59.0935 51.0953 58.5668 50.3222C58.2009 49.7869 57.6635 49.5163 56.9685 49.5163C56.8261 49.5163 56.673 49.5267 56.5 49.5507C55.1956 49.7226 53.8927 50.0082 52.6311 50.2849C52.2147 50.3761 51.7983 50.4673 51.3818 50.5555C51.0052 50.6348 50.6286 50.732 50.229 50.8336C50.0346 50.883 49.831 50.9353 49.6151 50.9892L49.1956 51.0923L49.436 51.4437C52.1259 55.3899 54.1285 59.7996 55.5553 64.9181C55.4757 64.9391 55.3946 64.96 55.3134 64.9824C54.701 65.1454 54.0687 65.3129 53.4319 65.452C53.3813 65.3877 53.3186 65.289 53.2941 65.2187C53.1486 64.7985 53.0108 64.3664 52.8776 63.9477C52.6755 63.3121 52.4673 62.6557 52.2239 62.0202L52.0432 61.5477C51.5365 60.2198 51.0114 58.8471 50.3576 57.5536C49.8218 56.4935 49.1971 55.4602 48.5954 54.4598C48.2755 53.929 47.9432 53.3787 47.6309 52.8344C47.3921 52.4202 47.0369 51.9432 46.4046 51.9432C46.1994 51.9432 45.9851 51.9925 45.7447 52.0927C44.6669 52.5458 43.5585 52.9854 42.4883 53.4116C41.9065 53.6419 41.3247 53.8736 40.743 54.1084C40.2362 54.3133 39.734 54.5241 39.2502 54.729C39.039 54.8187 38.8308 54.9054 38.6271 54.9907L38.3087 55.1237L38.4817 55.4153C38.7328 55.8385 38.9946 56.2497 39.2487 56.649C39.8152 57.5387 40.3495 58.3776 40.7353 59.2822C41.3753 60.7836 41.8836 62.3761 42.3765 63.9163C42.5036 64.314 42.6307 64.7118 42.7593 65.108C42.9614 65.7286 43.1206 66.4135 43.2722 67.3301C43.2722 67.3854 43.1849 67.5439 43.1283 67.5888C42.5373 67.7787 41.9188 67.9178 41.2911 68.003L41.2987 68Z" fill="#425375" stroke="white" stroke-width="0.4" mask="url(#path-2-inside-1_254_5712)"/>
</g>
<path id="Vector_3" d="M22.3584 54.6219C25.3347 51.2661 29.029 48.5095 33.641 46.2039L33.641 46.2039C36.0258 45.0109 38.5991 43.9028 41.2889 42.9095L41.2543 42.8157L41.2889 42.9095C42.6372 42.4116 44.0746 42.0499 45.4696 41.6988L45.4766 41.697C45.4766 41.697 45.4767 41.697 45.4767 41.697C46.1256 41.5341 46.7988 41.3648 47.4569 41.1835C47.4569 41.1835 47.4569 41.1835 47.4569 41.1835L47.4303 41.0871M22.3584 54.6219L53.9619 39.7151L53.9508 39.6157M22.3584 54.6219C22.3612 54.6242 22.364 54.6265 22.3668 54.6288C22.4266 54.6778 22.4868 54.7272 22.5453 54.7763C23.0101 55.1607 23.4497 55.5235 23.8993 55.8597C23.9188 55.8522 23.9398 55.8431 23.96 55.833C23.9777 55.8243 23.9933 55.8156 24.0057 55.8078C24.0118 55.8039 24.0167 55.8005 24.0203 55.7978C24.0234 55.7954 24.0248 55.7941 24.025 55.794C25.8557 53.9102 27.8978 51.9569 30.3914 50.477L30.3914 50.477C32.429 49.2689 34.4321 48.1003 36.499 47.1201L36.4991 47.1201C38.5231 46.1609 40.6629 45.3669 42.7276 44.6016L42.977 44.5089L43.0119 44.6026L42.9771 44.5089C44.0372 44.1152 45.1473 43.8209 46.2152 43.5385L46.2154 43.5384C46.3211 43.5107 46.4253 43.4828 46.5297 43.4549C46.6118 43.4329 46.694 43.4109 46.777 43.389M22.3584 54.6219L46.777 43.389M47.4303 41.0871C47.8562 40.9699 48.2863 40.8431 48.7045 40.7199L48.7623 40.7028C49.6579 40.4382 50.5826 40.166 51.5028 39.9701C52.2882 39.8026 53.1107 39.7101 53.9091 39.6204L53.9508 39.6157M47.4303 41.0871C46.7735 41.2681 46.1014 41.437 45.4523 41.6L47.4303 41.0871ZM53.9508 39.6157L53.962 39.7151L53.9886 39.7121C54.3813 39.6682 54.7895 39.6226 55.1906 39.5683L55.1907 39.5683C55.6733 39.5024 56.1543 39.4336 56.6367 39.3633M53.9508 39.6157L53.9771 39.6128C54.3701 39.5688 54.7773 39.5233 55.1772 39.4692C55.6594 39.4034 56.1401 39.3346 56.6224 39.2643M56.6224 39.2643L56.6367 39.3633M56.6224 39.2643L56.6368 39.3633M56.6224 39.2643L56.6528 39.2599C57.4502 39.1447 58.2755 39.0254 59.0873 38.9294C60.0518 38.8142 60.9276 38.7469 61.7681 38.723C62.2509 38.7085 62.7322 38.6926 63.2149 38.6766L63.2593 38.6752C64.6571 38.6273 66.1039 38.5795 67.5216 38.5795C67.9579 38.5795 68.3651 38.584 68.7647 38.5929C71.098 38.6453 73.8538 38.7425 76.5988 39.0595C78.5147 39.2796 80.4502 39.6595 82.3225 40.0271L82.3523 40.0329L82.4499 40.0521C82.9653 40.1534 83.4795 40.2544 83.9951 40.3514M56.6367 39.3633C56.6368 39.3633 56.6368 39.3633 56.6368 39.3633M56.6367 39.3633L56.6368 39.3633M56.6368 39.3633L56.6665 39.359C57.4643 39.2437 58.2885 39.1245 59.0991 39.0287L59.0992 39.0287C60.0611 38.9138 60.9338 38.8468 61.7709 38.823L61.7711 38.823C62.254 38.8085 62.7355 38.7925 63.2182 38.7766L63.2626 38.7751L63.2627 38.7751C64.6607 38.7273 66.1058 38.6795 67.5216 38.6795C67.9572 38.6795 68.3637 38.6839 68.7625 38.6929C71.0951 38.7452 73.8471 38.8423 76.5874 39.1588L76.5874 39.1588C78.4993 39.3785 80.4315 39.7578 82.3051 40.1256L82.333 40.1311L82.4305 40.1502C82.9459 40.2515 83.4605 40.3526 83.9766 40.4497M83.9951 40.3514L83.9765 40.4497C83.9765 40.4497 83.9765 40.4497 83.9766 40.4497M83.9951 40.3514L83.9766 40.4497M83.9951 40.3514C85.5429 40.6445 87.204 40.9989 89.0764 41.4325C89.4393 41.5163 89.7929 41.6613 90.165 41.8154C90.2086 41.8333 90.2526 41.8513 90.2967 41.8692C90.3407 41.8871 90.3847 41.9051 90.4283 41.923M83.9766 40.4497C85.5227 40.7425 87.1825 41.0966 89.0539 41.53L89.0539 41.53C89.4074 41.6116 89.7534 41.7532 90.1267 41.9078L90.1269 41.9078L90.2589 41.9618L90.3041 41.9803M90.3041 41.9803L90.3334 41.8916L90.4283 41.923M90.3041 41.9803L89.6924 43.8311M90.3041 41.9803L90.3903 42.0155L90.4283 41.923M90.4283 41.923L89.7577 43.9522M89.6924 43.8311C89.7228 43.8393 89.7532 43.8475 89.7835 43.8556L89.7577 43.9522M89.6924 43.8311C89.5701 43.7982 89.4477 43.7648 89.3246 43.7312C89.2814 43.7194 89.2381 43.7076 89.1948 43.6957M89.6924 43.8311L89.6628 43.9208L89.7577 43.9522M89.7577 43.9522C89.6047 43.9113 89.4517 43.8695 89.2979 43.8276C89.2548 43.8158 89.2116 43.804 89.1683 43.7922M89.1948 43.6957L89.1683 43.7922M89.1948 43.6957C88.5521 43.5194 87.8836 43.3362 87.2114 43.1905L87.1902 43.2883M89.1948 43.6957C89.1947 43.6957 89.1946 43.6957 89.1946 43.6957L89.1683 43.7922M89.1683 43.7922C88.5253 43.6157 87.8593 43.4333 87.1902 43.2883M87.1902 43.2883C85.2551 42.8696 83.3383 42.4823 81.0571 42.0307M87.1902 43.2883L87.2114 43.1905C85.2753 42.7716 83.3579 42.3842 81.0765 41.9326C80.2372 41.7662 79.3384 41.6134 78.3298 41.4637L78.3296 41.4637C77.4944 41.3408 76.6505 41.2508 75.9278 41.1761L75.9175 41.2755M81.0571 42.0307L57.2107 41.3363C57.6279 41.2855 58.0504 41.2571 58.4576 41.2298L58.5046 41.2266M81.0571 42.0307C80.2196 41.8647 79.3225 41.7122 78.3151 41.5626C77.4822 41.44 76.6402 41.3503 75.9175 41.2755M81.0571 42.0307L71.3996 40.8554M75.9175 41.2755L75.9278 41.1761C75.5091 41.1328 75.0888 41.0835 74.6692 41.0342C73.6044 40.9086 72.4989 40.7794 71.4018 40.7554M75.9175 41.2755C75.498 41.2322 75.077 41.1828 74.6575 41.1335C73.592 41.0079 72.4912 40.8793 71.3996 40.8554M71.4018 40.7554C70.9999 40.7464 70.5858 40.7419 70.135 40.7419C69.1366 40.7419 68.1239 40.7645 67.1443 40.7863L67.0554 40.7883L66.8686 40.7925C66.1939 40.8077 65.502 40.8233 64.8204 40.8301M71.4018 40.7554L71.3996 40.8554M71.4018 40.7554C71.4018 40.7554 71.4018 40.7554 71.4018 40.7554L71.3996 40.8554M64.8204 40.8301C64.7054 40.8301 64.5872 40.8095 64.451 40.7853L64.4507 40.7852L64.4374 40.7829C64.2879 40.7569 64.1247 40.7284 63.9513 40.7284H63.9489C63.9126 40.7284 63.8685 40.7284 63.825 40.7334M64.8204 40.8301C64.8206 40.8301 64.8207 40.8301 64.8209 40.8301V40.9301M64.8204 40.8301C64.8202 40.8301 64.8201 40.8301 64.8199 40.8301L64.8209 40.9301M63.825 40.7334C62.9213 40.8097 62.004 40.901 61.1181 40.9906M63.825 40.7334C63.8255 40.7334 63.826 40.7333 63.8265 40.7333L63.8349 40.8329M63.825 40.7334C63.8244 40.7335 63.8239 40.7335 63.8233 40.7336L63.8349 40.8329M61.1181 40.9906L61.0396 40.9984C60.4949 41.0526 59.9517 41.1067 59.4071 41.158L59.4071 41.158C59.1655 41.1809 58.9192 41.1979 58.6761 41.2147C58.6187 41.2187 58.5615 41.2226 58.5046 41.2266M61.1181 40.9906L61.1182 40.9906L61.1281 41.0901M61.1181 40.9906L61.1281 41.0901M58.5046 41.2266L58.5049 41.2266L58.5117 41.3264L58.5046 41.2266ZM54.6129 41.7271L54.6191 41.7261C55.4163 41.5934 56.3223 41.4425 57.2105 41.3363L54.6129 41.7271ZM54.6129 41.7271C54.6129 41.7271 54.6128 41.7271 54.6128 41.7272C54.3408 41.7717 54.0672 41.8162 53.7936 41.8608L53.7879 41.8617M54.6129 41.7271L53.7879 41.8617M53.7879 41.8617C52.8236 42.0172 51.8231 42.1805 50.8467 42.3874L50.8466 42.3875C49.4186 42.6916 47.9882 43.0644 46.777 43.389M53.7879 41.8617L46.777 43.389M61.1281 41.0901C62.0146 41.0004 62.9316 40.9092 63.8349 40.8329M61.1281 41.0901L61.0494 41.098C60.5047 41.1522 59.9613 41.2062 59.4165 41.2576L63.8349 40.8329M63.8349 40.8329C63.8732 40.8284 63.913 40.8284 63.9513 40.8284C64.1159 40.8284 64.2717 40.8556 64.4231 40.8819L64.4335 40.8838M63.8349 40.8329L64.4335 40.8838M64.4335 40.8838C64.5683 40.9077 64.6954 40.9301 64.8209 40.9301M64.4335 40.8838L71.3996 40.8554M64.8209 40.9301C65.5033 40.9233 66.196 40.9077 66.8708 40.8925L67.0577 40.8883L67.1461 40.8863C68.126 40.8644 69.1377 40.8419 70.135 40.8419C70.5851 40.8419 70.9984 40.8464 71.3996 40.8554" fill="#425375" stroke="white" stroke-width="0.2"/>
<path id="Vector_4" d="M31.4244 19.9402L31.4244 19.9402C29.7534 22.0935 28.5765 24.4715 27.9228 27.0098C27.932 27.025 27.9442 27.0429 27.9583 27.0611C27.9769 27.085 27.9929 27.1017 28.0029 27.1106C28.6037 27.2845 29.2219 27.4184 29.8432 27.508C29.8573 27.5034 29.8803 27.4936 29.9078 27.4784C29.9319 27.465 29.9515 27.4518 29.9647 27.4415C30.3763 25.9881 30.9326 24.6394 31.6636 23.3205L31.6636 23.3205C32.9139 21.0676 34.6156 19.1515 36.7171 17.6282C38.6903 16.1978 40.3668 15.3755 42.1459 14.9724C42.5309 14.8847 42.924 14.7791 43.3067 14.6744L43.3068 14.6744C44.164 14.4416 45.0635 14.1977 45.9772 14.1432L45.9774 14.1432C46.6954 14.1012 47.3404 14.0802 47.9459 14.0802C50.2161 14.0802 52.0761 14.3715 53.795 15.0015C56.4182 15.962 58.5563 17.1972 60.3294 18.7815L60.2628 18.8561L60.3294 18.7815C62.2546 20.5024 63.7416 22.5838 64.8736 25.1467C64.8737 25.1468 64.8737 25.1468 64.8737 25.1469L64.7823 25.1873C64.8481 25.3354 64.9047 25.5028 64.9583 25.6658L31.4244 19.9402ZM31.4244 19.9402C33.1079 17.769 35.1583 16.0076 37.5177 14.7029L37.5177 14.7029M31.4244 19.9402L37.5177 14.7029M37.5177 14.7029C39.7016 13.4949 41.8097 12.7336 43.9619 12.3738L43.962 12.3738M37.5177 14.7029L43.962 12.3738M43.962 12.3738C44.7819 12.2364 45.6319 12.1578 46.4592 12.0813L46.5038 12.0772L46.5038 12.0772M43.962 12.3738L46.5038 12.0772M46.5038 12.0772C46.5638 12.0716 46.6238 12.066 46.6838 12.0605C47.0074 12.0306 47.3311 12.0006 47.6559 11.9654C47.7027 11.9654 47.7498 11.9651 47.7965 11.9647L47.7967 11.9647C47.8453 11.9643 47.8936 11.964 47.9413 11.964C50.7452 11.964 53.5362 12.5708 56.237 13.7692C60.3909 15.6124 63.5445 18.411 65.6153 22.0872L65.6153 22.0873M46.5038 12.0772L65.6153 22.0873M65.6153 22.0873C65.9344 22.6521 66.2066 23.2623 66.473 23.8597L66.4837 23.8837C66.4837 23.8837 66.4837 23.8837 66.4837 23.8838C66.7102 24.3918 66.9472 24.921 67.2137 25.4296L65.6153 22.0873ZM66.9663 25.7828C66.968 25.7822 66.9685 25.7821 66.9675 25.7823C66.9674 25.7823 66.9673 25.7823 66.9672 25.7823L66.9663 25.7828ZM45.9832 14.243C45.0814 14.2969 44.1919 14.5376 43.333 14.7709L45.9832 14.243Z" fill="#425375" stroke="white" stroke-width="0.2"/>
<path id="Vector_5" d="M47.8496 7.37364H47.8497H47.8497H47.8498H47.8499H47.8499H47.85H47.8501H47.8501H47.8502H47.8503H47.8503H47.8504H47.8505H47.8505H47.8506H47.8507H47.8507H47.8508H47.8509H47.8509H47.851H47.8511H47.8511H47.8512H47.8513H47.8513H47.8514H47.8515H47.8515H47.8516H47.8517H47.8517H47.8518H47.8519H47.8519H47.852H47.8521H47.8521H47.8522H47.8523H47.8523H47.8524H47.8525H47.8525H47.8526H47.8527H47.8527H47.8528H47.8529H47.8529H47.853H47.8531H47.8531H47.8532H47.8533H47.8533H47.8534H47.8535H47.8535H47.8536H47.8537H47.8537H47.8538H47.8539H47.8539H47.854H47.8541H47.8541H47.8542H47.8543H47.8543H47.8544H47.8545H47.8545H47.8546H47.8547H47.8547H47.8548H47.8549H47.8549H47.855H47.8551H47.8551H47.8552H47.8553H47.8553H47.8554H47.8554H47.8555H47.8556H47.8556H47.8557H47.8558H47.8558H47.8559H47.856H47.856H47.8561H47.8562H47.8562H47.8563H47.8564H47.8564H47.8565H47.8566H47.8566H47.8567H47.8568H47.8568H47.8569H47.857H47.857H47.8571H47.8571H47.8572H47.8573H47.8573H47.8574H47.8575H47.8575H47.8576H47.8577H47.8577H47.8578H47.8579H47.8579H47.858H47.8581H47.8581H47.8582H47.8582H47.8583H47.8584H47.8584H47.8585H47.8586H47.8586H47.8587H47.8588H47.8588H47.8589H47.859H47.859H47.8591H47.8591H47.8592H47.8593H47.8593H47.8594H47.8595H47.8595H47.8596H47.8597H47.8597H47.8598H47.8599H47.8599H47.86H47.86H47.8601H47.8602H47.8602H47.8603H47.8604H47.8604H47.8605H47.8606H47.8606H47.8607H47.8607H47.8608H47.8609H47.8609H47.861H47.8611H47.8611H47.8612H47.8612H47.8613H47.8614H47.8614H47.8615H47.8616H47.8616H47.8617H47.8618H47.8618C48.0445 7.37364 48.2973 7.24708 48.5119 7.0432C48.7257 6.84016 48.8742 6.58635 48.8795 6.36178L48.8795 6.36161C48.9162 4.89665 48.9498 2.96568 48.8795 1.01744L48.8795 1.01742C48.8679 0.694445 48.7725 0.471308 48.6057 0.326807C48.4368 0.180525 48.1777 0.1 47.8082 0.1C47.7597 0.1 47.7095 0.101437 47.6576 0.104331L47.6521 0.00448598L47.6578 0.104321C47.3643 0.12123 47.1737 0.175457 47.0486 0.313207C46.9212 0.453556 46.841 0.703134 46.8335 1.16648L47.8496 7.37364ZM47.8496 7.37364L47.8344 7.37245C47.4984 7.34623 47.2563 7.23502 47.0951 7.05126C46.933 6.86635 46.8408 6.59431 46.8335 6.22306L46.8335 6.22301C46.8212 5.62188 46.8243 5.00857 46.8273 4.41472V4.41421C46.8273 4.28221 46.8281 4.15054 46.8289 4.01852L46.8289 4.01838C46.8296 3.88651 46.8304 3.75431 46.8304 3.62168C46.8304 3.36904 46.8304 3.11605 46.8289 2.863L47.8496 7.37364ZM46.8289 2.86295C46.8258 2.3053 46.8243 1.73054 46.8335 1.16649L46.8289 2.86295Z" fill="#425375" stroke="white" stroke-width="0.2"/>
<path id="Vector_6" d="M57.1895 8.93643L57.1894 8.93634C57.0844 8.82483 57.0171 8.63983 56.9507 8.45001L56.9507 8.44989C56.9473 8.44024 56.9439 8.43059 56.9405 8.42093C56.9291 8.38823 56.9177 8.35558 56.9058 8.32353C56.9171 8.25589 56.9256 8.19383 56.9332 8.13802C56.9356 8.12099 56.9378 8.10455 56.94 8.08871L56.9401 8.08798C56.9608 7.93302 56.9748 7.84197 57.0014 7.78173L57.0014 7.78174L57.0019 7.78055C57.6725 6.20736 58.3596 4.5977 59.0634 3.02556C59.2305 2.65311 59.5781 2.43124 60.001 2.43124C60.1807 2.43124 60.3634 2.46989 60.5467 2.54738C60.851 2.67763 60.9763 2.87235 61.0135 3.08025C61.0522 3.29655 60.9975 3.54001 60.9121 3.76054L60.9119 3.76106L60.8876 3.82468C60.8876 3.82479 60.8875 3.82491 60.8875 3.82503C60.3087 5.31148 59.7107 6.84565 59.0776 8.33473C58.8008 8.98517 58.3906 9.32208 57.9739 9.32208H57.9443L57.9405 9.32453C57.6879 9.31516 57.4211 9.18308 57.1895 8.93643Z" fill="#425375" stroke="white" stroke-width="0.2"/>
<path id="Vector_7" d="M78.2903 20.0269C78.0223 19.4423 77.6794 19.1821 77.1803 19.1821C77.1497 19.1821 77.1175 19.1836 77.0854 19.1851L77.0854 19.1851C77.0249 19.2045 76.9648 19.2239 76.9047 19.2434C76.8446 19.2628 76.7845 19.2823 76.7241 19.3017M78.2903 20.0269L71.7606 21.2187C73.1553 20.649 74.6067 20.0852 75.8866 19.5888C76.1346 19.4922 76.3953 19.408 76.649 19.326C76.6741 19.3179 76.6991 19.3098 76.7241 19.3017M78.2903 20.0269C78.3637 20.1854 78.3316 20.4232 78.2061 20.6624L78.2903 20.0269ZM76.7241 19.3017L76.7547 19.3969L76.7549 19.3968M76.7241 19.3017L76.7549 19.3968M76.7549 19.3968L76.9355 19.3385L77.1034 19.2843C77.1308 19.2831 77.1563 19.2821 77.1803 19.2821C77.4109 19.2821 77.5994 19.3416 77.7614 19.4648C77.9254 19.5896 78.0694 19.785 78.1994 20.0686L78.1995 20.069C78.2539 20.1863 78.2368 20.3886 78.1175 20.616L78.1175 20.616C77.9906 20.8583 77.7786 21.0608 77.5583 21.1569L77.5582 21.157C76.2984 21.7077 74.9943 22.2227 73.7292 22.7222L73.656 22.7511L73.6558 22.7512L73.4751 22.823L73.475 22.823C73.3655 22.8667 73.2563 22.9118 73.1456 22.9583L73.1455 22.9583C72.758 23.1219 72.3807 23.2797 72.0438 23.2899H72.0101H71.9531C71.6504 23.2738 71.4448 23.1302 71.3026 22.9549C71.149 22.7658 71.0702 22.5401 71.0336 22.4014L71.0336 22.4013C70.9858 22.2209 71.0368 22.0066 71.1753 21.8035C71.3131 21.6014 71.5319 21.42 71.7984 21.3113L71.7984 21.3113C73.1922 20.7419 74.6428 20.1785 75.9228 19.682L75.9229 19.682C76.168 19.5865 76.4258 19.5032 76.6801 19.421C76.705 19.4129 76.73 19.4049 76.7549 19.3968Z" fill="#425375" stroke="white" stroke-width="0.2"/>
<path id="Vector_8" d="M34.6495 4.14507C34.5852 3.97759 34.5408 3.79666 34.4948 3.60526M34.6495 4.14507C34.9373 4.89423 35.2221 5.62694 35.5436 6.35666M34.6495 4.14507L34.7428 4.10921M34.6495 4.14507L34.7428 4.10921M34.4948 3.60526L36.7775 8.97049C36.3709 8.23857 36.0248 7.45041 35.6896 6.68699L35.6844 6.67516L35.5436 6.35666M34.4948 3.60526C34.4749 3.52301 34.455 3.44227 34.4336 3.36002L34.4948 3.60526ZM35.5436 6.35666L35.635 6.31621L35.635 6.31624M35.5436 6.35666L35.6351 6.31634L35.7759 6.63472L35.776 6.63496L35.7802 6.64467C36.1161 7.40952 36.4606 8.1941 36.865 8.92192L36.865 8.92202C37.0376 9.23349 37.3292 9.30016 37.5184 9.30782L37.5191 9.30713H37.5599C37.7327 9.30713 37.9166 9.26209 38.0911 9.1755L38.0911 9.17549C38.31 9.0669 38.4904 8.87749 38.5967 8.67154C38.7041 8.46347 38.7281 8.25531 38.6635 8.10343L38.6635 8.10334C37.9166 6.34087 37.1667 4.61288 36.4321 2.9687L35.635 6.31624M35.635 6.31624C35.3146 5.589 35.0306 4.85836 34.7428 4.10923L35.635 6.31624ZM34.7428 4.10921C34.6812 3.94881 34.6382 3.77416 34.5921 3.58192L34.592 3.58174M34.7428 4.10921L34.592 3.58174M34.592 3.58174C34.5729 3.50257 34.5536 3.42441 34.533 3.34481C34.5228 3.12199 34.5714 2.95157 34.6734 2.81918C34.778 2.68341 34.9478 2.57577 35.2007 2.49867L35.2008 2.49863M34.592 3.58174L35.2008 2.49863M35.2008 2.49863C35.3487 2.4533 35.4904 2.43124 35.6201 2.43124M35.2008 2.49863L35.6201 2.43124M35.6201 2.43124C35.8113 2.43124 35.9738 2.47841 36.1073 2.56664M35.6201 2.43124L36.1073 2.56664M36.1073 2.56664C36.241 2.65496 36.3513 2.7881 36.4321 2.96866L36.1073 2.56664Z" fill="#425375" stroke="white" stroke-width="0.2"/>
<path id="Vector_9" d="M24.5481 22.3686C24.5864 21.7436 24.2863 21.3458 23.5774 21.0767C23.0828 20.8894 22.5857 20.6886 22.1021 20.4932C22.0528 20.4733 22.0036 20.4534 21.9546 20.4337L24.5481 22.3686ZM24.5481 22.3686C24.5114 22.9697 24.2128 23.2927 23.6341 23.354L24.5481 22.3686ZM17.357 19.8819L17.4517 19.9139C17.4993 19.7731 17.5692 19.648 17.7227 19.5541C17.8805 19.4575 18.1387 19.3867 18.5787 19.3867C18.6161 19.3867 18.6519 19.3868 18.6884 19.3878C18.7681 19.4111 18.8625 19.437 18.9646 19.4641C19.2941 19.5539 19.7414 19.6769 20.1621 19.8335C20.7476 20.0525 21.3396 20.2923 21.9147 20.5254L21.917 20.5263L21.9172 20.5264C21.9662 20.5462 22.0154 20.5661 22.0647 20.586C22.5482 20.7813 23.0464 20.9825 23.542 21.1702C23.8867 21.3011 24.1198 21.4588 24.263 21.6493C24.4046 21.8376 24.4663 22.0683 24.4483 22.3625L24.4483 22.3625C24.4308 22.6483 24.352 22.8544 24.221 22.9958C24.0904 23.1367 23.8965 23.2257 23.6236 23.2546L23.6233 23.2546C23.572 23.2602 23.5175 23.263 23.4626 23.263H23.3638C23.1835 23.2524 23.0036 23.2136 22.8485 23.1533C21.2843 22.5355 19.7054 21.8791 18.1738 21.2423C18.1383 21.2276 18.1029 21.2129 18.0675 21.1981L17.9899 21.1654L17.9899 21.1654L17.9894 21.1653C17.7755 21.0763 17.6 20.8841 17.4984 20.649C17.3969 20.414 17.3736 20.1462 17.4518 19.9138L17.357 19.8819ZM17.357 19.8819C17.4611 19.5738 17.6816 19.2867 18.5787 19.2867C18.6201 19.2867 18.6614 19.2867 18.7043 19.2882M17.357 19.8819C17.1825 20.4008 17.4657 21.0557 17.951 21.2576L18.7043 19.2882M18.7043 19.2882C18.7854 19.3122 18.8834 19.3391 18.9906 19.3675C19.3197 19.4572 19.7714 19.5813 20.197 19.7398L18.7043 19.2882Z" fill="#425375" stroke="white" stroke-width="0.2"/>
<path id="Vector_10" d="M67.2846 14.4122C66.9794 14.698 66.6808 14.846 66.4156 14.8622H66.367C66.1105 14.8622 65.8585 14.7386 65.6175 14.472L65.6172 14.4717C65.521 14.3661 65.4553 14.1983 65.378 13.9951L65.378 13.995C65.3573 13.9408 65.3356 13.8856 65.3139 13.8306C65.3342 13.7632 65.3513 13.6977 65.3668 13.6384L65.3674 13.6362C65.3674 13.6361 65.3674 13.636 65.3675 13.636C65.3876 13.5604 65.4069 13.4885 65.4278 13.4287C65.4503 13.3641 65.4686 13.3327 65.4784 13.3232C66.6571 12.1735 68.2162 10.6656 69.8332 9.18634C69.9619 9.06881 70.0827 9.01962 70.2067 9.01962C70.3296 9.01962 70.4658 9.06569 70.6067 9.14002C70.7466 9.21382 70.8829 9.31107 71.0048 9.40428C71.1802 9.53841 71.278 9.68961 71.31 9.85554C71.3422 10.0229 71.31 10.2188 71.1992 10.4459L71.199 10.4464C71.1107 10.6304 71.0067 10.7813 70.9008 10.8847L70.9003 10.8852L70.3553 11.425C70.3553 11.425 70.3553 11.425 70.3553 11.425C69.357 12.4135 68.3245 13.4354 67.2846 14.4122Z" fill="#425375" stroke="white" stroke-width="0.2"/>
<path id="Vector_11" d="M29.2348 14.8742C29.4031 14.8578 29.577 14.7729 29.7674 14.5997L29.7676 14.5995C30.0219 14.3694 30.1507 14.1109 30.1588 13.854L30.1588 13.8539C30.1669 13.6104 30.0625 13.3635 29.8413 13.1376L29.8413 13.1376C28.7999 12.0727 27.6726 10.9746 26.1852 9.57564C26.0396 9.43897 25.8356 9.3367 25.6005 9.21887L25.5968 9.21702C25.5179 9.17784 25.4372 9.13711 25.356 9.09389C25.0701 9.1228 24.8617 9.16483 24.7059 9.24164C24.5506 9.31818 24.443 9.43163 24.3667 9.61839L24.3666 9.61854C24.2634 9.8698 24.2395 10.0809 24.287 10.2741C24.3348 10.4682 24.4579 10.6577 24.6744 10.8591L29.2348 14.8742ZM29.2348 14.8742H29.1733C28.9391 14.8742 28.6645 14.7382 28.355 14.4374C28.0206 14.112 27.6882 13.7848 27.356 13.4576C27.2732 13.3761 27.1905 13.2947 27.1077 13.2132C26.3194 12.4343 25.5024 11.6288 24.6744 10.8591L29.2348 14.8742Z" fill="#425375" stroke="white" stroke-width="0.2"/>
</g>
<defs>
<clipPath id="clip0_254_5712">
<rect width="94" height="68" fill="white"/>
</clipPath>
</defs>
</svg>
