<svg width="62" height="62" viewBox="0 0 62 62" fill="none" xmlns="http://www.w3.org/2000/svg">
<g id="Layer_1" clip-path="url(#clip0_253_5703)">
<path id="Vector" d="M17.8422 25.5403C17.6958 25.5403 17.575 25.5379 17.4628 25.5305C17.0138 25.5049 16.7148 25.2303 16.6843 24.8141C16.6672 24.5823 16.7319 24.3675 16.8686 24.2088C16.9906 24.0672 17.1602 23.9855 17.3578 23.9708C17.7312 23.944 18.118 23.9305 18.5048 23.9305C18.8916 23.9305 19.2564 23.9427 19.6371 23.9672C19.8347 23.9794 20.0153 24.0685 20.1459 24.2186C20.2837 24.3772 20.3545 24.5871 20.3399 24.7958C20.3106 25.2071 19.9994 25.5013 19.5663 25.5257C19.4467 25.533 19.3186 25.5354 19.1624 25.5354C19.0502 25.5354 18.9391 25.5342 18.8269 25.5318C18.7122 25.5305 18.5987 25.5281 18.484 25.5281H18.24V25.533C18.2132 25.533 18.1863 25.533 18.1595 25.533C18.0533 25.5342 17.9472 25.5354 17.841 25.5354L17.8422 25.5403Z" fill="#425375"/>
<path id="Vector_2" d="M12.9186 57.8431C12.8064 57.8431 12.6941 57.8407 12.5831 57.8383C12.4672 57.8358 12.3525 57.8334 12.2378 57.8334H11.9938V57.8395C11.973 57.8395 11.9523 57.8395 11.9303 57.8395C11.8303 57.8407 11.7302 57.8419 11.6302 57.8419C11.4935 57.8419 11.38 57.8395 11.2751 57.8334C10.7553 57.8065 10.4039 57.4672 10.421 57.0096C10.4381 56.5666 10.7809 56.2614 11.2763 56.2505C11.6326 56.2431 11.9645 56.2395 12.2878 56.2395C12.6282 56.2395 12.9601 56.2444 13.2761 56.2529C13.7569 56.2663 14.057 56.5421 14.0802 56.9913C14.1034 57.4538 13.7959 57.7907 13.3152 57.8285C13.1993 57.8383 13.0736 57.8419 12.9198 57.8419L12.9186 57.8431Z" fill="#425375"/>
<g id="Group 1000004202">
<path id="Vector_3" d="M2.03927 62.0004C1.67811 62.0004 1.31573 62.0004 0.954568 61.9955C0.383544 61.9894 0.0138427 61.6794 0.0114024 61.2046C0.0114024 60.9752 0.0919314 60.7799 0.249329 60.6396C0.416488 60.4907 0.656854 60.4113 0.943586 60.4101C1.64272 60.4065 2.34064 60.4065 3.03856 60.4065C3.51197 60.4065 6.04254 60.4077 6.04254 60.4077L6.1011 60.2466C6.20603 59.9549 6.0645 59.7547 5.98031 59.6351C5.96567 59.6144 5.95103 59.5936 5.9376 59.5729C4.94807 57.9167 4.23185 56.1642 3.81213 54.3628C3.69865 53.8758 3.45097 53.6671 2.98487 53.6671C2.95925 53.6671 2.93363 53.6671 2.90679 53.6684C2.72132 53.6757 2.56759 53.6794 2.42117 53.6794C2.09295 53.6794 1.80988 53.6598 1.55731 53.6208C0.650754 53.4792 0.034585 52.7823 0.0223836 51.8853C-0.00445938 49.8557 -0.00567952 47.7223 0.0199433 45.5463C0.0309246 44.6053 0.669056 43.9072 1.64638 43.7681C1.74034 43.7547 1.83551 43.7449 1.93068 43.7351C1.9807 43.7303 2.02219 43.7278 2.06367 43.7278C2.18202 43.7278 2.3077 43.7412 2.44191 43.7559C2.57857 43.7705 2.72132 43.7852 2.8592 43.7852C3.05198 43.7852 3.33261 43.7608 3.55346 43.546C3.81457 43.2921 3.88899 42.9028 3.95976 42.5281C3.99027 42.3682 4.01955 42.2169 4.06103 42.0814C4.62108 40.2617 5.45565 38.5141 6.54157 36.8872C7.21997 35.8706 8.10212 35.397 9.31616 35.397H9.36131C10.0519 35.4044 10.7962 35.4068 11.7027 35.4068C12.2787 35.4068 12.8546 35.4056 13.4317 35.4044C14.0076 35.4031 14.5835 35.4019 15.1594 35.4019H16.2905L16.0721 35.0333C15.9927 34.9003 15.9208 34.777 15.8524 34.6611C15.7146 34.4268 15.5925 34.2205 15.4681 34.0155L14.952 33.1697C14.2162 31.9627 13.4549 30.7154 12.6996 29.4925C12.5044 29.1764 12.4373 28.8798 12.4897 28.5589C12.7765 26.8075 12.2298 25.5761 10.8206 24.7974C10.3155 24.518 9.85424 24.1103 9.40889 23.7161C9.25637 23.5807 9.10386 23.4464 8.9489 23.3158C8.7976 23.1889 8.61214 23.0583 8.38032 23.0583C8.22536 23.0583 8.07162 23.1157 7.91178 23.234C7.71046 23.3817 7.44569 23.4513 7.07599 23.4513H6.95398C6.65016 23.4513 6.34513 23.4525 6.04131 23.4549C5.7375 23.4562 5.43491 23.4586 5.13109 23.4586C4.65646 23.4586 4.26724 23.4549 3.90608 23.4452C2.86286 23.4183 2.12346 22.6922 2.10638 21.6792C2.07221 19.6142 2.07221 17.4821 2.10516 15.3426C2.12102 14.3089 2.87872 13.5718 3.94878 13.551C4.33312 13.5437 4.75529 13.54 5.23969 13.54C5.65941 13.54 6.07914 13.5425 6.49887 13.5449L7.05403 13.5486C7.62505 13.551 8.08382 13.7609 8.41814 14.1734C8.64875 14.4578 8.92328 14.5847 9.31006 14.5847L9.52846 14.5811C9.89328 14.5737 10.2691 14.5664 10.6388 14.5664C11.0085 14.5664 11.344 14.5737 11.6466 14.5896C11.682 14.592 11.7149 14.592 11.7479 14.592C11.9089 14.592 12.142 14.5725 12.3104 14.4041C12.4873 14.2259 12.5105 13.9586 12.5093 13.7219C12.4971 10.8392 12.4983 7.90765 12.4995 5.07377C12.4995 4.1743 12.4995 3.27483 12.4995 2.37536C12.4995 1.48565 12.6691 0.901058 13.0351 0.537364C13.4012 0.173671 13.9881 0.00402832 14.8836 0.00402832H47.1514C48.8693 0.00402832 49.5087 0.636221 49.5099 2.33753C49.5099 3.87773 49.5099 5.41794 49.5099 6.95692C49.5099 9.13908 49.5099 11.3212 49.5123 13.5022C49.5123 13.5986 49.5123 13.6828 49.5099 13.7585C49.505 14.1002 49.5026 14.2894 49.6465 14.4334C49.7893 14.5786 50.0016 14.5786 50.2456 14.5786H50.464C50.5104 14.5786 50.7142 14.5786 50.7642 14.5786C50.874 14.5786 50.9838 14.5786 51.0936 14.5762C51.2022 14.5762 51.3108 14.5737 51.4194 14.5737C51.5548 14.5737 51.6903 14.575 51.8257 14.5798C51.9746 14.5859 52.1124 14.5908 52.2491 14.5908C52.8055 14.5908 53.4412 14.5054 53.9341 13.8708C54.1 13.6572 54.4295 13.5486 54.9163 13.5473C55.1823 13.5473 55.4483 13.5449 55.7143 13.5437C56.0791 13.5412 56.4451 13.5388 56.81 13.5388C57.2968 13.5388 57.7019 13.5425 58.0813 13.551C59.1404 13.5742 59.8908 14.3199 59.9054 15.3634C59.9359 17.4638 59.9359 19.5764 59.9054 21.6401C59.8896 22.6787 59.1404 23.4208 58.0813 23.4452C57.7263 23.4537 57.348 23.4574 56.8917 23.4574C56.5623 23.4574 56.2328 23.4549 55.9034 23.4537C55.574 23.4513 55.2457 23.4501 54.9163 23.4501C54.6833 23.4501 54.3892 23.4305 54.1891 23.2804C54.0036 23.1413 53.8267 23.0742 53.6486 23.0742C53.3838 23.0742 53.1703 23.2218 52.997 23.3671C52.1368 24.0847 51.1863 24.8463 50.0065 25.7653C49.7319 25.9788 49.4281 26.2913 49.516 26.8148C49.7625 28.2757 49.3659 29.6512 48.2336 31.2756C47.6687 32.086 47.1575 32.9561 46.6645 33.797C46.4449 34.1717 46.2167 34.5598 45.9861 34.9394L45.8641 35.1395L46.0581 35.2689C46.2485 35.3958 46.4303 35.4105 46.5511 35.4105C46.6011 35.4105 46.6499 35.408 46.6987 35.4044C46.7353 35.4019 46.7707 35.3995 46.8061 35.3995L47.7443 35.4019C48.5801 35.4044 49.4172 35.4068 50.2529 35.4068C51.1522 35.4068 51.9416 35.4044 52.6652 35.3983H52.7005C53.9097 35.3983 54.7919 35.8767 55.4763 36.9043C56.766 38.8411 57.6799 40.9025 58.1924 43.0297C58.2766 43.3824 58.4401 43.7425 59.0086 43.7425C59.0343 43.7425 59.0611 43.7425 59.0892 43.74C59.2392 43.7327 59.3881 43.729 59.5309 43.729C59.831 43.729 60.1177 43.7461 60.385 43.7803C61.3281 43.8999 61.9699 44.5943 61.9833 45.5097C62.0163 47.8175 62.0163 49.9106 61.9809 51.9073C61.9638 52.8995 61.2037 53.611 60.0897 53.6781C60.0641 53.6794 60.0384 53.6806 60.0116 53.6806C59.8859 53.6806 59.7493 53.6659 59.6053 53.6501C59.4564 53.6342 59.3027 53.6171 59.1551 53.6171C58.9623 53.6171 58.6804 53.6415 58.4632 53.849C58.1899 54.1114 58.1094 54.5178 58.0325 54.9108C58.0008 55.0743 57.9703 55.2293 57.9276 55.3685C57.4676 56.8672 56.8466 58.2695 56.0815 59.5351C56.0242 59.6303 55.9766 59.7242 55.9156 59.8438C55.8851 59.9049 55.8497 59.9732 55.8082 60.0513L55.6203 60.4089H60.7107C61.2549 60.4089 61.6283 60.509 61.8223 60.7067C61.9418 60.8287 61.998 60.9947 61.9931 61.2156C61.9858 61.5805 61.8369 61.9991 60.7339 61.9991H3.63521C3.36922 61.9991 3.10323 61.9991 2.83602 61.9991C2.57003 61.9991 2.30404 61.9991 2.03805 61.9991L2.03927 62.0004ZM6.23532 53.6806C5.95224 53.6806 5.66917 53.7086 5.51788 53.9137C5.36292 54.1248 5.43125 54.4019 5.51544 54.6679C6.03765 56.3338 6.77462 57.929 7.70436 59.4094C8.14727 60.1148 8.71585 60.415 9.60289 60.415H9.61753C13.7038 60.4016 17.7912 60.3991 20.8953 60.3991C22.4509 60.3991 28.6736 60.4016 30.2293 60.4016H39.6256C43.4373 60.4016 47.9542 60.4016 52.5492 60.4113C53.2984 60.4113 53.8096 60.1367 54.2111 59.5204C55.1908 58.0193 55.9449 56.4071 56.4525 54.7302C56.5855 54.2908 56.6526 54.0699 56.511 53.8807C56.3719 53.6928 56.134 53.6928 55.7009 53.6928C47.4881 53.6928 21.2784 53.694 21.2784 53.694C16.8102 53.694 11.5295 53.6928 6.24386 53.6794H6.23532V53.6806ZM3.41924 49.5091C2.53586 49.5115 2.09417 49.5127 1.82574 49.7873C1.55976 50.0595 1.5683 50.4891 1.5866 51.3434V51.3898C1.59758 51.867 1.81598 52.0891 2.27231 52.0891C2.29672 52.0891 2.32356 52.0891 2.3504 52.0879C3.20938 52.0574 4.00369 52.0427 4.77969 52.0427C10.2849 52.0403 15.7926 52.0403 21.2979 52.0403H43.48C47.2282 52.0403 50.9753 52.0403 54.7235 52.0427C56.1523 52.0427 57.7202 52.0586 59.6578 52.0891H59.6968C60.0226 52.0891 60.3984 52.0098 60.4118 51.3861V51.341C60.4313 50.4891 60.4399 50.0607 60.1739 49.7886C59.9042 49.5127 59.4601 49.5127 58.5755 49.5103C58.0277 49.5103 57.6506 49.4078 57.453 49.2089C57.3322 49.0868 57.2736 48.9208 57.2748 48.7011C57.2761 48.3118 57.4334 47.914 58.5865 47.9115C59.4674 47.9091 59.9091 47.9079 60.1775 47.632C60.4447 47.3562 60.4338 46.9205 60.4106 46.0528V46.0223C60.4008 45.6988 60.3178 45.3278 59.7407 45.3278H59.7127C59.3442 45.3339 58.9415 45.3376 58.4486 45.3376C58.1728 45.3376 57.8971 45.3376 57.6226 45.3364C57.3468 45.3364 57.0711 45.3351 56.7953 45.3351H3.37532C2.52366 45.3351 2.09662 45.3351 1.83185 45.6036C1.56708 45.8734 1.5744 46.303 1.58782 47.1585V47.1988C1.59392 47.5088 1.66957 47.9201 2.26499 47.9201C2.28574 47.9201 2.3077 47.9201 2.33088 47.9188C2.59931 47.9079 2.84822 47.903 3.09103 47.903C3.38996 47.903 3.68035 47.9115 3.95244 47.9274C4.40877 47.9542 4.72601 48.2752 4.72479 48.706C4.72479 49.1124 4.42952 49.4285 3.99271 49.492C3.87557 49.5091 3.75112 49.5115 3.63521 49.5115H3.43754H3.41924V49.5091ZM9.4638 36.9848C8.71097 36.9848 8.1973 37.2558 7.79831 37.8636C6.80024 39.3842 6.03887 41.0148 5.53252 42.7112C5.40928 43.1249 5.34096 43.3531 5.48249 43.5423C5.62525 43.7327 5.85829 43.7327 6.32561 43.7327H55.6069C56.1084 43.7327 56.3597 43.7327 56.5074 43.5338C56.6538 43.3373 56.5793 43.0932 56.4451 42.6514C55.9254 40.9379 55.1567 39.3098 54.1598 37.8123C53.7791 37.2411 53.3008 36.9861 52.6078 36.9861H52.5846C49.7795 37.008 47.0001 37.0117 44.6501 37.0117H43.6215C31.4543 37.008 20.4853 37.0031 9.46624 36.9848H9.46136H9.4638ZM28.3637 35.3934C34.1789 35.3934 38.9118 35.3958 43.2591 35.4007C43.6776 35.4007 43.9424 35.2494 44.1474 34.8954C44.4976 34.2901 44.8697 33.6811 45.2296 33.0928C45.3712 32.8609 45.5139 32.6291 45.6543 32.396L47.2355 29.7891H15.0569V30.0332C15.0569 30.0564 15.0557 30.0759 15.0545 30.0917C15.0496 30.1479 15.0435 30.2321 15.0947 30.3175C15.3973 30.8191 15.7011 31.3207 16.0049 31.8223C16.637 32.8658 17.291 33.9447 17.9242 35.0114C18.1536 35.3958 18.4916 35.3958 18.7381 35.3958H18.7515C21.9555 35.3958 25.1596 35.3946 28.3637 35.3946V35.3934ZM43.5983 28.078C44.9881 28.078 46.0569 28.0829 47.0623 28.0939H47.0891C47.2978 28.0939 47.5601 28.0707 47.7346 27.8901C47.9091 27.7094 47.9237 27.4531 47.9152 27.2261C47.892 26.6037 47.8969 25.9666 47.9017 25.3503C47.9042 25.0855 47.9066 24.8206 47.9066 24.5558V14.3113C47.9066 13.3435 47.9066 12.3757 47.9054 11.4067C47.903 8.52032 47.9005 5.5351 47.92 2.59992C47.9225 2.25331 47.8859 1.98482 47.7016 1.79931C47.5052 1.6016 47.2063 1.57475 46.9403 1.57475H46.9208C43.8118 1.59305 40.7078 1.59549 38.3505 1.59549C37.156 1.59549 35.9603 1.59549 34.7658 1.59427C33.5712 1.59427 32.3755 1.59305 31.181 1.59305C31.181 1.59305 25.0364 1.59549 23.8431 1.59549C21.4138 1.59549 18.2171 1.59427 15.0288 1.57963H15.0154C14.7641 1.57963 14.4822 1.60526 14.2943 1.79565C14.1064 1.98482 14.082 2.26186 14.0845 2.5328C14.1162 6.49315 14.1308 10.7025 14.132 15.4C14.132 18.6244 14.1272 22.8752 14.0808 27.1651C14.0784 27.3982 14.1003 27.6899 14.2894 27.8815C14.4834 28.078 14.7787 28.0951 15.0398 28.0951C20.5353 28.0853 25.9613 28.0841 31.0065 28.0841H39.8696C40.4919 28.0841 41.1129 28.0841 41.7352 28.0829C42.3562 28.0829 42.9785 28.0804 43.5995 28.0804L43.5983 28.078ZM50.1846 16.1713C50.0358 16.1713 49.821 16.1896 49.6673 16.3471C49.5087 16.5094 49.4952 16.7437 49.4989 16.9072C49.5135 17.598 49.5111 18.3034 49.5087 18.9857C49.5074 19.2651 49.5062 19.5458 49.5062 19.8253V24.1262C49.5062 24.1262 50.4567 23.3646 50.7215 23.1523C51.4389 22.5774 52.1161 22.0331 52.7908 21.5034C53.0654 21.2874 53.102 21.0165 53.102 20.7797L53.0995 19.9718C53.0959 18.96 53.091 17.9141 53.1093 16.8865C53.1117 16.7303 53.0971 16.5033 52.9409 16.3446C52.7908 16.1921 52.5797 16.1725 52.4138 16.1725C52.3955 16.1725 52.376 16.1725 52.3577 16.1725C51.9819 16.1823 51.6171 16.1872 51.273 16.1872C50.9289 16.1872 50.5714 16.1823 50.2407 16.1713C50.2224 16.1713 50.2041 16.1713 50.1871 16.1713H50.1846ZM9.51016 16.1737C9.31006 16.1737 9.1612 16.225 9.05627 16.3312C8.91352 16.4752 8.89521 16.6729 8.89643 16.8645C8.90253 17.7201 8.90253 18.5902 8.90131 19.4323C8.90131 19.8741 8.90131 20.3172 8.90131 20.759V20.8115C8.89887 20.986 8.89521 21.2496 9.14656 21.4485C9.84814 22.0026 10.5461 22.5616 11.2464 23.1205L12.1871 23.8723L12.336 23.6575C12.3543 23.6307 12.3702 23.6112 12.3836 23.5941C12.4238 23.544 12.4775 23.4769 12.4775 23.372C12.48 22.5567 12.4812 21.7414 12.4836 20.9262C12.4861 19.5507 12.4885 18.1741 12.4958 16.7986C12.4958 16.5936 12.4458 16.4422 12.3384 16.3348C12.1957 16.1921 11.998 16.175 11.8626 16.175H11.8443C11.4307 16.1799 11.0183 16.1847 10.6046 16.1847C10.2154 16.1847 9.86644 16.1811 9.54067 16.1725H9.51016V16.1737ZM5.54472 21.8513C5.91808 21.8513 6.24874 21.8574 6.55499 21.8696C6.57695 21.8696 6.5977 21.8708 6.61722 21.8708C6.84783 21.8708 7.01742 21.8122 7.13578 21.6914C7.29928 21.5254 7.31636 21.2887 7.31148 21.0787C7.29927 20.4795 7.30172 19.868 7.30416 19.2761C7.30416 19.0247 7.3066 18.7745 7.3066 18.5231C7.3066 18.2705 7.3066 18.0166 7.3066 17.7628C7.30538 17.133 7.30416 16.4825 7.31148 15.843C7.31392 15.6685 7.29683 15.4476 7.1431 15.2926C7.03085 15.1791 6.87223 15.1242 6.65748 15.1242C6.64406 15.1242 6.62942 15.1242 6.616 15.1242C6.27802 15.1339 5.92296 15.1388 5.5313 15.1388C5.17868 15.1388 4.79068 15.1351 4.31238 15.1266H4.28554C4.15498 15.1266 3.96586 15.1425 3.82799 15.2804C3.68889 15.4207 3.67303 15.6172 3.67425 15.7527C3.68401 17.5614 3.68401 19.4067 3.67425 21.2374C3.67425 21.3729 3.68889 21.5681 3.82921 21.7097C3.96708 21.8488 4.15865 21.8647 4.2892 21.8647H4.33801C4.73455 21.8574 5.14329 21.8501 5.54594 21.8501L5.54472 21.8513ZM56.5037 21.8513C56.8771 21.8513 57.2553 21.8562 57.6287 21.8671C57.6445 21.8671 57.6592 21.8671 57.675 21.8671C57.8166 21.8671 58.0216 21.8501 58.1692 21.6999C58.318 21.5474 58.3327 21.3338 58.329 21.1654C58.3144 20.5466 58.3168 19.9144 58.3193 19.303C58.3193 19.0516 58.3217 18.8002 58.3217 18.55C58.3217 18.2998 58.3217 18.0374 58.3205 17.7823C58.3193 17.1355 58.3168 16.4667 58.3266 15.8101C58.329 15.6209 58.3119 15.4256 58.1716 15.2828C58.0679 15.1766 57.9191 15.1254 57.7177 15.1254H57.6799C57.2883 15.1376 56.8966 15.1425 56.5171 15.1425C56.1377 15.1425 55.7497 15.1364 55.3775 15.1254C55.3641 15.1254 55.3495 15.1254 55.336 15.1254C55.1262 15.1254 54.97 15.1791 54.8602 15.2901C54.7089 15.4427 54.6894 15.6575 54.6894 15.8491C54.6967 17.7652 54.6967 19.4995 54.6894 21.1507C54.6894 21.3253 54.7077 21.5449 54.8614 21.6999C54.9737 21.8134 55.1335 21.8684 55.3482 21.8684H55.3873C55.757 21.8574 56.1316 21.8525 56.5025 21.8525L56.5037 21.8513Z" fill="#425375"/>
<path id="Vector_4" d="M30.956 21.3725H24.4356C22.908 21.3725 21.3816 21.3725 19.854 21.3725C17.8371 21.3725 16.6779 20.2228 16.6731 18.2213C16.6645 14.6942 16.6633 11.0402 16.6718 7.36054C16.6767 5.29798 17.8151 4.16052 19.8796 4.16052C23.6974 4.1593 27.5152 4.15808 31.333 4.15808C34.9373 4.15808 38.5416 4.15808 42.1458 4.1593C44.1615 4.1593 45.3206 5.31385 45.3267 7.32514C45.3377 10.9365 45.3377 14.6112 45.3267 18.2469C45.3206 20.2302 44.1737 21.3701 42.1812 21.3713C40.6512 21.3725 39.1211 21.3737 37.5899 21.3737H30.956V21.3725ZM22.9141 19.7798C23.6461 19.7798 24.5137 19.7798 25.4007 19.7884H25.4178C25.8827 19.7884 26.1194 19.609 26.2621 19.1488C26.9124 17.0399 28.8146 15.623 30.9938 15.623C33.2132 15.6254 35.0715 17.0106 35.7353 19.1513C35.8768 19.609 36.1147 19.7871 36.582 19.7871H36.5991C37.5288 19.7798 38.4415 19.7786 39.1321 19.7786H41.5138H42.1471C43.2977 19.7774 43.7259 19.3429 43.7271 18.1749C43.7296 14.6051 43.7296 10.9731 43.7271 7.37762C43.7271 6.19379 43.2842 5.75321 42.0958 5.75199C40.4291 5.75077 38.7624 5.74955 37.0957 5.74955C35.6925 5.74955 34.2906 5.74955 32.8875 5.75321H32.8728C32.7667 5.75321 32.6739 5.75077 32.5934 5.74955C32.5287 5.74833 32.4714 5.7471 32.4201 5.7471C32.2505 5.7471 32.0748 5.75809 31.9492 5.88502C31.7991 6.03635 31.8003 6.24871 31.804 6.67098V6.85039C31.8052 6.94681 31.7942 7.05298 31.7832 7.16527C31.7503 7.48258 31.7112 7.84261 31.9357 8.12698C32.1175 8.35764 32.3933 8.35764 32.4848 8.35764C32.5763 8.35764 32.6751 8.34788 32.7667 8.3369C32.8521 8.32713 32.9326 8.31859 33.0046 8.31859C33.0314 8.31859 33.0583 8.31859 33.0839 8.32347C33.5805 8.38693 33.8977 8.725 33.8745 9.16558C33.8514 9.60372 33.5268 9.90151 33.0668 9.90761C32.386 9.91616 31.6978 9.91982 31.0231 9.91982C30.3252 9.91982 29.6199 9.91494 28.9293 9.90639C28.4706 9.90029 28.1484 9.60128 28.1265 9.16192C28.1057 8.74819 28.4071 8.41012 28.8744 8.32225C28.9 8.31737 28.9305 8.31493 28.9659 8.31493C29.0416 8.31493 29.127 8.32591 29.2161 8.3369C29.3149 8.3491 29.4162 8.36253 29.5162 8.36253C29.7981 8.36253 29.9982 8.25269 30.1104 8.03423C30.2581 7.74864 30.2349 7.41302 30.2117 7.0896C30.2032 6.96145 30.1946 6.84063 30.1971 6.72712C30.1971 6.7076 30.1971 6.68685 30.1971 6.66732C30.1971 6.65634 30.1958 6.64535 30.1971 6.63437C30.2239 6.44886 30.241 6.1767 30.0665 5.97411C29.8871 5.76663 29.5992 5.73978 29.3674 5.73978H29.3491C27.647 5.75077 25.9864 5.75321 24.5856 5.75321H20.9399H19.8369C18.7266 5.75321 18.2727 6.20843 18.2702 7.32148C18.2666 8.58465 18.2678 9.84781 18.2678 11.111V12.7513C18.2678 13.2883 18.2678 13.8253 18.2678 14.3623C18.2678 15.6535 18.2653 16.9899 18.2714 18.3043C18.2763 19.3087 18.7388 19.7774 19.7307 19.781C20.1688 19.7823 20.608 19.7835 21.0473 19.7835H22.9141V19.7798ZM30.9535 17.2157C29.5394 17.2364 28.3119 18.1261 27.8971 19.4296L27.7958 19.7481H34.232L34.1137 19.421C33.6293 18.081 32.4079 17.2157 31.0023 17.2157H30.9535Z" fill="#425375"/>
<path id="Vector_5" d="M44.1469 25.5404C44.0248 25.5404 43.9041 25.5379 43.782 25.5367C43.6747 25.5355 43.5685 25.5331 43.4611 25.5331C43.3526 25.5331 43.244 25.5343 43.1354 25.5367C43.0292 25.5379 42.9231 25.5392 42.8181 25.5392C42.6717 25.5392 42.5509 25.5367 42.4387 25.5294C41.9982 25.5038 41.6919 25.2194 41.6578 24.8032C41.6407 24.5957 41.7115 24.3761 41.8481 24.2174C41.9311 24.1198 42.0763 24.0014 42.2959 23.9855C42.6937 23.9562 43.0963 23.9416 43.4916 23.9416C43.887 23.9416 44.2969 23.9575 44.6898 23.9867C45.1352 24.0209 45.3414 24.4261 45.3145 24.8093C45.2865 25.2292 44.99 25.505 44.5434 25.5306C44.4251 25.5379 44.2994 25.5404 44.1469 25.5404Z" fill="#425375"/>
<path id="Vector_6" d="M23.2364 57.8408C21.3915 57.8408 19.5455 57.8408 17.7006 57.8383C17.3309 57.8383 17.0454 57.7443 16.8746 57.5686C16.7416 57.4319 16.6769 57.2452 16.683 57.0133C16.6964 56.508 17.0381 56.2505 17.7006 56.2493C18.4998 56.2481 19.299 56.2469 20.0982 56.2469H23.19H26.366C27.1371 56.2469 27.9083 56.2469 28.6794 56.2481C29.3407 56.2481 29.6823 56.5068 29.697 57.0133C29.7031 57.2452 29.6396 57.4319 29.5079 57.5686C29.337 57.7443 29.0503 57.8383 28.6806 57.8383C26.8663 57.8395 25.0507 57.8408 23.2364 57.8408Z" fill="#425375"/>
<path id="Vector_7" d="M35.5476 41.1609C34.6227 41.1609 33.8674 41.1584 33.1707 41.1535C32.8535 41.1511 32.5948 41.0425 32.4411 40.8472C32.3057 40.6739 32.2642 40.4408 32.3227 40.1894C32.4216 39.7744 32.6961 39.5718 33.1622 39.5706C35.0851 39.567 37.0081 39.5633 38.931 39.5633C40.8539 39.5633 42.6927 39.5657 44.4448 39.5718C44.9792 39.5731 45.3135 39.8782 45.3148 40.3688C45.3172 40.8667 44.9792 41.1535 44.3899 41.156C43.5956 41.1596 42.8013 41.1609 42.0082 41.1609C41.4457 41.1609 38.7809 41.1584 38.7809 41.1584C38.2416 41.1584 37.7035 41.1584 37.1642 41.1596C36.6262 41.1596 36.0869 41.1609 35.5488 41.1609H35.5476Z" fill="#425375"/>
<path id="Vector_8" d="M50.3951 41.1609C50.2828 41.1609 50.1706 41.1596 50.0596 41.1572C50.0266 41.1572 49.9937 41.1572 49.9607 41.156V41.1535L49.7167 41.1499C49.602 41.1499 49.4873 41.1523 49.3726 41.1535C49.2604 41.156 49.1493 41.1572 49.0383 41.1572C48.8833 41.1572 48.7565 41.1535 48.6381 41.145C48.222 41.1145 47.9426 40.8374 47.9243 40.4383C47.9097 40.1088 47.9975 39.6988 48.5027 39.6206C48.9004 39.5596 49.3128 39.5279 49.7289 39.5279C50.145 39.5279 50.5586 39.5584 50.9771 39.617C51.3871 39.6756 51.6043 40.071 51.5774 40.42C51.5457 40.8313 51.2321 41.123 50.799 41.1486C50.6794 41.156 50.5513 41.1584 50.3951 41.1584V41.1609Z" fill="#425375"/>
</g>
</g>
<defs>
<clipPath id="clip0_253_5703">
<rect width="62" height="62" fill="white"/>
</clipPath>
</defs>
</svg>
