<svg width="104" height="61" viewBox="0 0 104 61" fill="none" xmlns="http://www.w3.org/2000/svg">
<g id="Layer_1">
<g clip-path="url(#clip0_253_5354)">
<g id="Vector">
<mask id="path-2-inside-1_253_5354" fill="white">
<path d="M21.095 61C20.9697 61 20.8053 60.9986 20.6466 60.983C20.1507 60.935 19.7203 60.4796 19.6855 59.9705C19.6521 59.4756 20.0393 58.9778 20.531 58.8816C20.8262 58.8251 21.1424 58.8251 21.4767 58.8251H21.492C27.5395 58.8222 33.5856 58.8222 39.6331 58.8222H46.281C47.6473 58.8222 47.8353 58.6271 47.8353 57.22L47.8325 3.91291C47.8325 3.21999 47.8325 2.56666 47.0386 2.56666C46.8743 2.56666 46.6863 2.59353 46.3938 2.63737C44.1263 2.97817 41.8588 3.32181 39.5914 3.66685C37.2501 4.0218 34.9088 4.37816 32.5661 4.72887C30.8933 4.98058 29.2206 5.22664 27.5465 5.47411C25.7553 5.73856 23.9642 6.00159 22.1745 6.27168C19.7301 6.63936 17.2453 7.02259 14.8428 7.39309C13.8706 7.54299 12.8998 7.69289 11.9277 7.84137C11.8719 7.84986 11.8162 7.86117 11.7605 7.8739C11.7034 7.88521 11.6505 7.89794 11.6059 7.90218L11.507 7.91208C10.0112 8.0648 9.6964 8.14258 9.73818 9.45348C9.74375 9.62318 9.74932 9.81691 9.74932 10.046C9.74097 14.0621 9.74097 18.1462 9.74236 22.0944C9.74236 24.0643 9.74236 26.0342 9.74236 28.0041V28.1525C9.74375 28.3986 9.74654 28.6319 9.70754 28.8441C9.61422 29.3645 9.14207 29.7873 8.65737 29.7873C8.64345 29.7873 8.62812 29.7873 8.6142 29.7873C8.0724 29.7576 7.60721 29.2839 7.55567 28.7069C7.54453 28.5867 7.54592 28.458 7.54732 28.3222C7.54732 28.2742 7.54732 28.2275 7.54732 28.1794V26.8827C7.54732 20.4568 7.54732 14.0324 7.54871 7.60663C7.54871 6.57431 7.84955 6.22926 8.88858 6.07371C11.2327 5.72017 13.5767 5.35957 15.9194 5.00038C18.0462 4.67372 20.1716 4.34705 22.2984 4.02604C23.9544 3.77574 25.6119 3.5311 27.2693 3.28504C29.0228 3.02625 30.8362 2.75757 32.619 2.48747C35.7082 2.01798 38.8462 1.53151 41.8811 1.06061L44.5845 0.642025C45.026 0.574147 45.4662 0.502026 45.9063 0.43132C46.7991 0.287078 47.7225 0.138594 48.6306 0.016979C48.6793 0.00990834 48.7323 0.00708008 48.7866 0.00708008C48.9885 0.00708008 49.2225 0.0523323 49.4482 0.134352C51.6683 0.941821 53.9218 1.77333 56.1015 2.57797C57.3481 3.03756 58.5947 3.49716 59.8412 3.95534C60.7869 4.30321 60.9666 4.55351 60.968 5.53068C60.968 5.89977 60.9708 6.26744 60.9722 6.63653C60.9763 7.8244 60.9819 9.05328 60.9596 10.2595C60.954 10.5749 60.9805 10.9298 61.2229 11.1801C61.383 11.3456 61.6045 11.429 61.883 11.429C61.9764 11.429 62.0766 11.4205 62.1895 11.4022C64.2675 11.0698 66.3818 10.7432 68.4278 10.4292C69.3721 10.2836 70.3178 10.1379 71.2621 9.99227C71.7301 9.92015 72.1967 9.84519 72.6647 9.77025C73.5769 9.62459 74.5199 9.47469 75.4489 9.34176C75.5004 9.33469 75.5547 9.33045 75.6118 9.33045C75.7664 9.33045 75.9294 9.35873 76.0687 9.40823C78.9587 10.4434 81.9546 11.5294 84.97 12.6353C85.7542 12.9223 85.9366 13.184 85.9464 14.0339C85.9561 14.7932 85.9547 15.5668 85.9533 16.3148C85.9533 16.8494 85.9533 17.3839 85.9547 17.9185C85.9547 18.1207 85.9728 18.3201 85.9909 18.5322C85.9993 18.6354 86.009 18.7457 86.0174 18.8659L86.0494 19.3128L86.4868 19.2562C86.7152 19.2265 86.9394 19.1997 87.1581 19.1728C87.633 19.1148 88.0815 19.0597 88.5356 18.9904C89.2264 18.8843 89.9158 18.774 90.6067 18.6637C92.0203 18.4375 93.4828 18.2041 94.9229 18.0132C95.0176 18.0005 95.1193 17.9948 95.2238 17.9948C95.5734 17.9948 95.962 18.0641 96.3478 18.1942C97.9244 18.7274 99.5178 19.3015 101.06 19.8573C101.608 20.0552 102.158 20.2532 102.707 20.4498C103.834 20.8528 103.99 21.0748 103.99 22.2768C103.991 34.7198 103.993 47.1627 103.991 59.6071C103.991 60.5362 103.748 61.0071 102.418 61.0071C87.3768 61.0085 72.336 61.0099 57.2952 61.0099H55.2116C43.9745 61.0099 32.7402 61.0099 21.5031 61.0071C21.4321 61.0071 21.3624 61.0071 21.2914 61.0071C21.2232 61.0071 21.1549 61.0071 21.0867 61.0071L21.095 61ZM99.1612 58.7982C99.6264 58.7982 100.093 58.8095 100.548 58.8321C100.592 58.8336 100.632 58.835 100.671 58.835C101.04 58.835 101.314 58.7388 101.507 58.5422C101.777 58.2665 101.809 57.8635 101.806 57.5439C101.787 54.7368 101.789 51.8831 101.791 49.1227C101.791 48.2558 101.791 47.389 101.791 46.5221V42.0011C101.789 35.9784 101.788 29.7505 101.808 23.6259C101.81 22.7534 101.48 22.2839 100.702 22.0534C100.129 21.8837 99.5512 21.6688 98.9913 21.4609C98.6932 21.3506 98.3952 21.2389 98.0957 21.1342C97.6932 20.9928 97.455 20.9122 97.2405 20.9122C96.5469 20.9122 96.5469 21.6037 96.5469 22.274C96.5455 26.5956 96.5469 30.9172 96.5469 35.2388V39.3086L96.5455 39.73V43.725C96.5469 48.2516 96.5483 52.9338 96.5344 57.5382C96.5344 57.8564 96.5678 58.2566 96.8408 58.5352C97.0372 58.7346 97.3144 58.8321 97.689 58.8321C97.7252 58.8321 97.7628 58.8321 97.8018 58.8293C98.2559 58.8081 98.7127 58.7982 99.1598 58.7982H99.1612ZM62.1477 50.1861C61.8858 50.1861 61.507 50.2173 61.2465 50.4859C60.9861 50.7546 60.9582 51.1322 60.9624 51.432C60.9889 53.0964 61.0112 55.2883 60.9596 57.4944C60.9527 57.7899 60.9763 58.2156 61.2577 58.5083C61.5321 58.794 61.9276 58.8321 62.2772 58.8321H62.3092C64.2786 58.818 66.2202 58.8152 68.5281 58.8152H71.0783C71.7761 58.8152 72.4725 58.8152 73.1702 58.8152C74.4112 58.8138 74.5979 58.6257 74.5979 57.377C74.5979 51.7968 74.5979 46.2167 74.5979 40.6365V35.7422L74.6007 35.3194V12.9775C74.6007 12.7527 74.6007 12.532 74.5143 12.3284C74.4419 12.1559 74.2483 11.866 73.765 11.866C73.6912 11.866 73.6146 11.8716 73.5296 11.8858C69.5768 12.5009 65.645 13.1005 61.8399 13.6676C61.2605 13.7539 60.9694 14.0975 60.9735 14.6872V14.7056C60.9819 15.67 60.9916 16.667 60.968 17.6427C60.9596 17.9864 61.039 18.2395 61.2103 18.4177C61.3621 18.5746 61.5683 18.6552 61.8245 18.6552C61.9053 18.6552 61.9903 18.6482 62.085 18.6312C62.1463 18.6213 62.2187 18.6156 62.3148 18.6156C62.351 18.6156 62.3886 18.6156 62.4248 18.6156C62.975 18.627 63.4109 18.9918 63.482 19.5009C63.5655 20.0863 63.28 20.5417 62.7201 20.7185L62.7062 20.7227C62.4736 20.7962 62.2326 20.8712 62.0279 20.8726C61.6769 20.8754 61.4165 20.9702 61.2326 21.1667C60.9777 21.4368 60.9596 21.8158 60.968 22.0774C60.9861 22.5908 60.9819 23.1182 60.9777 23.6287C60.9763 23.8366 60.9749 24.0459 60.9749 24.2538C60.9749 25.5025 61.156 25.692 62.3608 25.7019C62.9638 25.7075 63.436 26.1063 63.4848 26.6522C63.5419 27.2956 63.1588 27.7764 62.5084 27.8796C62.3454 27.9051 62.17 27.9249 61.9875 27.939C61.2967 27.9913 60.9346 28.4057 60.9666 29.1071C60.9972 29.7647 60.9972 30.4406 60.9666 31.118C60.9499 31.4913 61.0279 31.7642 61.2048 31.9523C61.3594 32.1164 61.5697 32.1998 61.8329 32.1998C61.9165 32.1998 62.0028 32.1913 62.0989 32.1758C62.1505 32.1673 62.2131 32.163 62.2883 32.163C62.3357 32.163 62.3817 32.1644 62.4276 32.1659C63.0126 32.1899 63.4374 32.5717 63.4848 33.1161C63.5377 33.7327 63.2118 34.1753 62.6143 34.3026L62.5321 34.3196C62.3455 34.3592 62.17 34.3974 62.0098 34.3988C61.6699 34.4016 61.4179 34.4935 61.2368 34.6816C60.9861 34.9432 60.9596 35.3081 60.9652 35.598C60.9833 36.6048 60.9805 37.6329 60.9777 38.6256C60.9777 39.0753 60.9749 39.525 60.9749 39.9733C60.9749 40.8727 60.9763 41.468 62.0265 41.468C62.1519 41.468 62.3009 41.4624 62.4778 41.4553C63.3914 41.4199 64.3065 41.3832 65.2202 41.3478C66.7634 41.287 68.308 41.2262 69.8512 41.1682C69.886 41.1682 69.9209 41.1668 69.9557 41.1668C70.6451 41.1668 71.0699 41.4157 71.2162 41.9078C71.3276 42.2797 71.2844 42.6333 71.095 42.9034C70.8903 43.1933 70.5393 43.363 70.1075 43.3785L69.6312 43.3955C67.1659 43.4846 64.6157 43.5765 62.1087 43.6486C61.8204 43.6571 61.4582 43.7023 61.2103 43.9781C61.0265 44.1831 60.9471 44.466 60.9694 44.8435C61.0139 45.5987 60.993 46.3496 60.9694 46.9209C60.954 47.2829 61.0362 47.5516 61.2173 47.7453C61.3983 47.9363 61.656 48.0296 62.007 48.0296H62.0446C62.39 48.0225 62.7368 48.0211 63.0822 48.0211C63.3789 48.0211 63.6756 48.0211 63.9708 48.0239C64.255 48.0239 64.5377 48.0268 64.8218 48.0268H65.0196C65.4848 48.0268 65.95 48.0268 66.4152 48.0253C66.879 48.0253 67.3442 48.0239 67.808 48.0239C68.7119 48.0239 69.4431 48.0268 70.1103 48.0352C70.6005 48.0409 71.1981 48.2134 71.2607 49.0053C71.2886 49.3461 71.2036 49.636 71.017 49.8425C70.815 50.0674 70.5003 50.1876 70.1075 50.1904C68.5058 50.2017 67.1687 50.2059 65.9026 50.2059C64.5711 50.2059 63.3511 50.2003 62.1769 50.189H62.1463L62.1477 50.1861ZM87.0578 51.4475C86.6929 51.4475 86.4241 51.5423 86.2347 51.7374C85.9728 52.0075 85.9477 52.3936 85.9505 52.6609C85.9784 54.5544 85.9784 56.1227 85.9505 57.5948C85.945 57.862 85.97 58.2481 86.2374 58.5239C86.5035 58.7982 86.8865 58.8307 87.1525 58.8307H87.1957C87.9172 58.8208 88.7083 58.8152 89.6874 58.8152C90.1874 58.8152 90.6874 58.8152 91.1888 58.818C91.6902 58.818 92.1903 58.8208 92.6917 58.8208H92.9702C94.2237 58.8208 94.4132 58.6229 94.4132 57.3204C94.4132 51.7714 94.4132 46.2223 94.4132 40.6747V35.5668C94.4104 31.019 94.409 26.317 94.4257 21.6928C94.4257 21.3789 94.3951 20.9857 94.1346 20.7213C93.9661 20.5502 93.7321 20.4625 93.4396 20.4625C93.3365 20.4625 93.2237 20.4724 93.0956 20.4936C91.4549 20.7609 89.2919 21.1045 87.1219 21.3987C86.2639 21.5146 85.8795 21.9954 85.9491 22.8679C85.9826 23.2893 85.9742 23.7122 85.9672 24.1605C85.9645 24.3542 85.9603 24.5479 85.9603 24.7417V29.8622C85.9603 34.0707 85.9589 38.2791 85.9603 42.4862C85.9603 43.2838 85.9603 43.8593 86.9812 43.8593C87.0885 43.8593 87.2152 43.8551 87.3642 43.8508C87.757 43.8381 88.1525 43.8169 88.537 43.7957C89.0634 43.7674 89.608 43.7391 90.1387 43.7306H90.1651C90.8741 43.7306 91.3281 44.1322 91.3518 44.7799C91.3769 45.4644 90.9367 45.8957 90.1735 45.931C89.9353 45.9423 89.6985 45.9536 89.4604 45.965C88.9088 45.9904 88.3573 46.0159 87.8057 46.047C86.1135 46.1431 85.9408 46.3256 85.9505 47.9985V48.0565C85.9519 48.3563 85.9575 49.2684 87.0759 49.2684C87.0968 49.2684 87.1177 49.2684 87.1386 49.2684C87.6414 49.2556 88.0885 49.2486 88.5035 49.2486C89.1581 49.2486 89.7459 49.2641 90.3044 49.2981C90.9757 49.3377 91.3741 49.7704 91.3462 50.4294C91.3184 51.0728 90.8964 51.4475 90.1902 51.4574L89.881 51.4617C89.4116 51.4673 88.9423 51.4744 88.4743 51.4744C87.9798 51.4744 87.5453 51.4673 87.1483 51.4532C87.1191 51.4532 87.0898 51.4518 87.0606 51.4518L87.0578 51.4475ZM50.0568 3.30201C50.0471 3.46605 50.0359 3.61029 50.0262 3.74322C50.0067 4.002 49.99 4.22402 49.99 4.45028C49.9872 6.72704 49.9886 9.0052 49.9886 11.282V14.4199V28.3166C49.9886 38.0373 49.9886 47.7567 49.9886 57.4774C49.9886 58.5932 50.21 58.8194 51.3075 58.8208C51.7616 58.8208 52.217 58.8208 52.6711 58.8208C53.3745 58.8208 57.4317 58.8194 57.4317 58.8194C58.5988 58.8194 58.7896 58.6186 58.7896 57.3897V29.3659C58.7896 22.0506 58.7896 14.4878 58.8022 7.04804C58.8022 6.45835 58.6796 5.81351 57.7534 5.50947C56.8453 5.21109 55.9274 4.87028 55.0416 4.5422C54.6614 4.40079 54.2812 4.25938 53.8995 4.1222C53.153 3.85069 52.4065 3.58059 51.6028 3.28928L50.0944 2.74201L50.0596 3.30484L50.0568 3.30201ZM76.8068 12.6254C76.7971 12.7951 76.7873 12.9436 76.779 13.0793C76.7623 13.3395 76.747 13.5644 76.747 13.7906C76.7456 16.4308 76.7456 19.071 76.747 21.7112V25.5208C76.747 25.5208 76.747 50.7306 76.747 57.3897C76.747 58.6115 76.9392 58.8109 78.1189 58.8166C78.857 58.8194 79.5938 58.8208 80.332 58.8208C80.9629 58.8208 81.5925 58.8208 82.2234 58.8208H82.5048C83.5953 58.8208 83.8015 58.6059 83.8015 57.4717V24.0487C83.8028 23.3049 83.8015 22.5611 83.8015 21.8158C83.7987 19.7696 83.7973 17.6526 83.8126 15.5724C83.8182 14.83 83.5104 14.3888 82.8418 14.1852C82.4713 14.072 82.0967 13.9306 81.7346 13.7949C81.5201 13.7143 81.307 13.6337 81.0911 13.5573C80.247 13.2589 79.4016 12.9634 78.5074 12.6508L76.8375 12.0654L76.8068 12.6268V12.6254Z"/>
</mask>
<path d="M21.095 61C20.9697 61 20.8053 60.9986 20.6466 60.983C20.1507 60.935 19.7203 60.4796 19.6855 59.9705C19.6521 59.4756 20.0393 58.9778 20.531 58.8816C20.8262 58.8251 21.1424 58.8251 21.4767 58.8251H21.492C27.5395 58.8222 33.5856 58.8222 39.6331 58.8222H46.281C47.6473 58.8222 47.8353 58.6271 47.8353 57.22L47.8325 3.91291C47.8325 3.21999 47.8325 2.56666 47.0386 2.56666C46.8743 2.56666 46.6863 2.59353 46.3938 2.63737C44.1263 2.97817 41.8588 3.32181 39.5914 3.66685C37.2501 4.0218 34.9088 4.37816 32.5661 4.72887C30.8933 4.98058 29.2206 5.22664 27.5465 5.47411C25.7553 5.73856 23.9642 6.00159 22.1745 6.27168C19.7301 6.63936 17.2453 7.02259 14.8428 7.39309C13.8706 7.54299 12.8998 7.69289 11.9277 7.84137C11.8719 7.84986 11.8162 7.86117 11.7605 7.8739C11.7034 7.88521 11.6505 7.89794 11.6059 7.90218L11.507 7.91208C10.0112 8.0648 9.6964 8.14258 9.73818 9.45348C9.74375 9.62318 9.74932 9.81691 9.74932 10.046C9.74097 14.0621 9.74097 18.1462 9.74236 22.0944C9.74236 24.0643 9.74236 26.0342 9.74236 28.0041V28.1525C9.74375 28.3986 9.74654 28.6319 9.70754 28.8441C9.61422 29.3645 9.14207 29.7873 8.65737 29.7873C8.64345 29.7873 8.62812 29.7873 8.6142 29.7873C8.0724 29.7576 7.60721 29.2839 7.55567 28.7069C7.54453 28.5867 7.54592 28.458 7.54732 28.3222C7.54732 28.2742 7.54732 28.2275 7.54732 28.1794V26.8827C7.54732 20.4568 7.54732 14.0324 7.54871 7.60663C7.54871 6.57431 7.84955 6.22926 8.88858 6.07371C11.2327 5.72017 13.5767 5.35957 15.9194 5.00038C18.0462 4.67372 20.1716 4.34705 22.2984 4.02604C23.9544 3.77574 25.6119 3.5311 27.2693 3.28504C29.0228 3.02625 30.8362 2.75757 32.619 2.48747C35.7082 2.01798 38.8462 1.53151 41.8811 1.06061L44.5845 0.642025C45.026 0.574147 45.4662 0.502026 45.9063 0.43132C46.7991 0.287078 47.7225 0.138594 48.6306 0.016979C48.6793 0.00990834 48.7323 0.00708008 48.7866 0.00708008C48.9885 0.00708008 49.2225 0.0523323 49.4482 0.134352C51.6683 0.941821 53.9218 1.77333 56.1015 2.57797C57.3481 3.03756 58.5947 3.49716 59.8412 3.95534C60.7869 4.30321 60.9666 4.55351 60.968 5.53068C60.968 5.89977 60.9708 6.26744 60.9722 6.63653C60.9763 7.8244 60.9819 9.05328 60.9596 10.2595C60.954 10.5749 60.9805 10.9298 61.2229 11.1801C61.383 11.3456 61.6045 11.429 61.883 11.429C61.9764 11.429 62.0766 11.4205 62.1895 11.4022C64.2675 11.0698 66.3818 10.7432 68.4278 10.4292C69.3721 10.2836 70.3178 10.1379 71.2621 9.99227C71.7301 9.92015 72.1967 9.84519 72.6647 9.77025C73.5769 9.62459 74.5199 9.47469 75.4489 9.34176C75.5004 9.33469 75.5547 9.33045 75.6118 9.33045C75.7664 9.33045 75.9294 9.35873 76.0687 9.40823C78.9587 10.4434 81.9546 11.5294 84.97 12.6353C85.7542 12.9223 85.9366 13.184 85.9464 14.0339C85.9561 14.7932 85.9547 15.5668 85.9533 16.3148C85.9533 16.8494 85.9533 17.3839 85.9547 17.9185C85.9547 18.1207 85.9728 18.3201 85.9909 18.5322C85.9993 18.6354 86.009 18.7457 86.0174 18.8659L86.0494 19.3128L86.4868 19.2562C86.7152 19.2265 86.9394 19.1997 87.1581 19.1728C87.633 19.1148 88.0815 19.0597 88.5356 18.9904C89.2264 18.8843 89.9158 18.774 90.6067 18.6637C92.0203 18.4375 93.4828 18.2041 94.9229 18.0132C95.0176 18.0005 95.1193 17.9948 95.2238 17.9948C95.5734 17.9948 95.962 18.0641 96.3478 18.1942C97.9244 18.7274 99.5178 19.3015 101.06 19.8573C101.608 20.0552 102.158 20.2532 102.707 20.4498C103.834 20.8528 103.99 21.0748 103.99 22.2768C103.991 34.7198 103.993 47.1627 103.991 59.6071C103.991 60.5362 103.748 61.0071 102.418 61.0071C87.3768 61.0085 72.336 61.0099 57.2952 61.0099H55.2116C43.9745 61.0099 32.7402 61.0099 21.5031 61.0071C21.4321 61.0071 21.3624 61.0071 21.2914 61.0071C21.2232 61.0071 21.1549 61.0071 21.0867 61.0071L21.095 61ZM99.1612 58.7982C99.6264 58.7982 100.093 58.8095 100.548 58.8321C100.592 58.8336 100.632 58.835 100.671 58.835C101.04 58.835 101.314 58.7388 101.507 58.5422C101.777 58.2665 101.809 57.8635 101.806 57.5439C101.787 54.7368 101.789 51.8831 101.791 49.1227C101.791 48.2558 101.791 47.389 101.791 46.5221V42.0011C101.789 35.9784 101.788 29.7505 101.808 23.6259C101.81 22.7534 101.48 22.2839 100.702 22.0534C100.129 21.8837 99.5512 21.6688 98.9913 21.4609C98.6932 21.3506 98.3952 21.2389 98.0957 21.1342C97.6932 20.9928 97.455 20.9122 97.2405 20.9122C96.5469 20.9122 96.5469 21.6037 96.5469 22.274C96.5455 26.5956 96.5469 30.9172 96.5469 35.2388V39.3086L96.5455 39.73V43.725C96.5469 48.2516 96.5483 52.9338 96.5344 57.5382C96.5344 57.8564 96.5678 58.2566 96.8408 58.5352C97.0372 58.7346 97.3144 58.8321 97.689 58.8321C97.7252 58.8321 97.7628 58.8321 97.8018 58.8293C98.2559 58.8081 98.7127 58.7982 99.1598 58.7982H99.1612ZM62.1477 50.1861C61.8858 50.1861 61.507 50.2173 61.2465 50.4859C60.9861 50.7546 60.9582 51.1322 60.9624 51.432C60.9889 53.0964 61.0112 55.2883 60.9596 57.4944C60.9527 57.7899 60.9763 58.2156 61.2577 58.5083C61.5321 58.794 61.9276 58.8321 62.2772 58.8321H62.3092C64.2786 58.818 66.2202 58.8152 68.5281 58.8152H71.0783C71.7761 58.8152 72.4725 58.8152 73.1702 58.8152C74.4112 58.8138 74.5979 58.6257 74.5979 57.377C74.5979 51.7968 74.5979 46.2167 74.5979 40.6365V35.7422L74.6007 35.3194V12.9775C74.6007 12.7527 74.6007 12.532 74.5143 12.3284C74.4419 12.1559 74.2483 11.866 73.765 11.866C73.6912 11.866 73.6146 11.8716 73.5296 11.8858C69.5768 12.5009 65.645 13.1005 61.8399 13.6676C61.2605 13.7539 60.9694 14.0975 60.9735 14.6872V14.7056C60.9819 15.67 60.9916 16.667 60.968 17.6427C60.9596 17.9864 61.039 18.2395 61.2103 18.4177C61.3621 18.5746 61.5683 18.6552 61.8245 18.6552C61.9053 18.6552 61.9903 18.6482 62.085 18.6312C62.1463 18.6213 62.2187 18.6156 62.3148 18.6156C62.351 18.6156 62.3886 18.6156 62.4248 18.6156C62.975 18.627 63.4109 18.9918 63.482 19.5009C63.5655 20.0863 63.28 20.5417 62.7201 20.7185L62.7062 20.7227C62.4736 20.7962 62.2326 20.8712 62.0279 20.8726C61.6769 20.8754 61.4165 20.9702 61.2326 21.1667C60.9777 21.4368 60.9596 21.8158 60.968 22.0774C60.9861 22.5908 60.9819 23.1182 60.9777 23.6287C60.9763 23.8366 60.9749 24.0459 60.9749 24.2538C60.9749 25.5025 61.156 25.692 62.3608 25.7019C62.9638 25.7075 63.436 26.1063 63.4848 26.6522C63.5419 27.2956 63.1588 27.7764 62.5084 27.8796C62.3454 27.9051 62.17 27.9249 61.9875 27.939C61.2967 27.9913 60.9346 28.4057 60.9666 29.1071C60.9972 29.7647 60.9972 30.4406 60.9666 31.118C60.9499 31.4913 61.0279 31.7642 61.2048 31.9523C61.3594 32.1164 61.5697 32.1998 61.8329 32.1998C61.9165 32.1998 62.0028 32.1913 62.0989 32.1758C62.1505 32.1673 62.2131 32.163 62.2883 32.163C62.3357 32.163 62.3817 32.1644 62.4276 32.1659C63.0126 32.1899 63.4374 32.5717 63.4848 33.1161C63.5377 33.7327 63.2118 34.1753 62.6143 34.3026L62.5321 34.3196C62.3455 34.3592 62.17 34.3974 62.0098 34.3988C61.6699 34.4016 61.4179 34.4935 61.2368 34.6816C60.9861 34.9432 60.9596 35.3081 60.9652 35.598C60.9833 36.6048 60.9805 37.6329 60.9777 38.6256C60.9777 39.0753 60.9749 39.525 60.9749 39.9733C60.9749 40.8727 60.9763 41.468 62.0265 41.468C62.1519 41.468 62.3009 41.4624 62.4778 41.4553C63.3914 41.4199 64.3065 41.3832 65.2202 41.3478C66.7634 41.287 68.308 41.2262 69.8512 41.1682C69.886 41.1682 69.9209 41.1668 69.9557 41.1668C70.6451 41.1668 71.0699 41.4157 71.2162 41.9078C71.3276 42.2797 71.2844 42.6333 71.095 42.9034C70.8903 43.1933 70.5393 43.363 70.1075 43.3785L69.6312 43.3955C67.1659 43.4846 64.6157 43.5765 62.1087 43.6486C61.8204 43.6571 61.4582 43.7023 61.2103 43.9781C61.0265 44.1831 60.9471 44.466 60.9694 44.8435C61.0139 45.5987 60.993 46.3496 60.9694 46.9209C60.954 47.2829 61.0362 47.5516 61.2173 47.7453C61.3983 47.9363 61.656 48.0296 62.007 48.0296H62.0446C62.39 48.0225 62.7368 48.0211 63.0822 48.0211C63.3789 48.0211 63.6756 48.0211 63.9708 48.0239C64.255 48.0239 64.5377 48.0268 64.8218 48.0268H65.0196C65.4848 48.0268 65.95 48.0268 66.4152 48.0253C66.879 48.0253 67.3442 48.0239 67.808 48.0239C68.7119 48.0239 69.4431 48.0268 70.1103 48.0352C70.6005 48.0409 71.1981 48.2134 71.2607 49.0053C71.2886 49.3461 71.2036 49.636 71.017 49.8425C70.815 50.0674 70.5003 50.1876 70.1075 50.1904C68.5058 50.2017 67.1687 50.2059 65.9026 50.2059C64.5711 50.2059 63.3511 50.2003 62.1769 50.189H62.1463L62.1477 50.1861ZM87.0578 51.4475C86.6929 51.4475 86.4241 51.5423 86.2347 51.7374C85.9728 52.0075 85.9477 52.3936 85.9505 52.6609C85.9784 54.5544 85.9784 56.1227 85.9505 57.5948C85.945 57.862 85.97 58.2481 86.2374 58.5239C86.5035 58.7982 86.8865 58.8307 87.1525 58.8307H87.1957C87.9172 58.8208 88.7083 58.8152 89.6874 58.8152C90.1874 58.8152 90.6874 58.8152 91.1888 58.818C91.6902 58.818 92.1903 58.8208 92.6917 58.8208H92.9702C94.2237 58.8208 94.4132 58.6229 94.4132 57.3204C94.4132 51.7714 94.4132 46.2223 94.4132 40.6747V35.5668C94.4104 31.019 94.409 26.317 94.4257 21.6928C94.4257 21.3789 94.3951 20.9857 94.1346 20.7213C93.9661 20.5502 93.7321 20.4625 93.4396 20.4625C93.3365 20.4625 93.2237 20.4724 93.0956 20.4936C91.4549 20.7609 89.2919 21.1045 87.1219 21.3987C86.2639 21.5146 85.8795 21.9954 85.9491 22.8679C85.9826 23.2893 85.9742 23.7122 85.9672 24.1605C85.9645 24.3542 85.9603 24.5479 85.9603 24.7417V29.8622C85.9603 34.0707 85.9589 38.2791 85.9603 42.4862C85.9603 43.2838 85.9603 43.8593 86.9812 43.8593C87.0885 43.8593 87.2152 43.8551 87.3642 43.8508C87.757 43.8381 88.1525 43.8169 88.537 43.7957C89.0634 43.7674 89.608 43.7391 90.1387 43.7306H90.1651C90.8741 43.7306 91.3281 44.1322 91.3518 44.7799C91.3769 45.4644 90.9367 45.8957 90.1735 45.931C89.9353 45.9423 89.6985 45.9536 89.4604 45.965C88.9088 45.9904 88.3573 46.0159 87.8057 46.047C86.1135 46.1431 85.9408 46.3256 85.9505 47.9985V48.0565C85.9519 48.3563 85.9575 49.2684 87.0759 49.2684C87.0968 49.2684 87.1177 49.2684 87.1386 49.2684C87.6414 49.2556 88.0885 49.2486 88.5035 49.2486C89.1581 49.2486 89.7459 49.2641 90.3044 49.2981C90.9757 49.3377 91.3741 49.7704 91.3462 50.4294C91.3184 51.0728 90.8964 51.4475 90.1902 51.4574L89.881 51.4617C89.4116 51.4673 88.9423 51.4744 88.4743 51.4744C87.9798 51.4744 87.5453 51.4673 87.1483 51.4532C87.1191 51.4532 87.0898 51.4518 87.0606 51.4518L87.0578 51.4475ZM50.0568 3.30201C50.0471 3.46605 50.0359 3.61029 50.0262 3.74322C50.0067 4.002 49.99 4.22402 49.99 4.45028C49.9872 6.72704 49.9886 9.0052 49.9886 11.282V14.4199V28.3166C49.9886 38.0373 49.9886 47.7567 49.9886 57.4774C49.9886 58.5932 50.21 58.8194 51.3075 58.8208C51.7616 58.8208 52.217 58.8208 52.6711 58.8208C53.3745 58.8208 57.4317 58.8194 57.4317 58.8194C58.5988 58.8194 58.7896 58.6186 58.7896 57.3897V29.3659C58.7896 22.0506 58.7896 14.4878 58.8022 7.04804C58.8022 6.45835 58.6796 5.81351 57.7534 5.50947C56.8453 5.21109 55.9274 4.87028 55.0416 4.5422C54.6614 4.40079 54.2812 4.25938 53.8995 4.1222C53.153 3.85069 52.4065 3.58059 51.6028 3.28928L50.0944 2.74201L50.0596 3.30484L50.0568 3.30201ZM76.8068 12.6254C76.7971 12.7951 76.7873 12.9436 76.779 13.0793C76.7623 13.3395 76.747 13.5644 76.747 13.7906C76.7456 16.4308 76.7456 19.071 76.747 21.7112V25.5208C76.747 25.5208 76.747 50.7306 76.747 57.3897C76.747 58.6115 76.9392 58.8109 78.1189 58.8166C78.857 58.8194 79.5938 58.8208 80.332 58.8208C80.9629 58.8208 81.5925 58.8208 82.2234 58.8208H82.5048C83.5953 58.8208 83.8015 58.6059 83.8015 57.4717V24.0487C83.8028 23.3049 83.8015 22.5611 83.8015 21.8158C83.7987 19.7696 83.7973 17.6526 83.8126 15.5724C83.8182 14.83 83.5104 14.3888 82.8418 14.1852C82.4713 14.072 82.0967 13.9306 81.7346 13.7949C81.5201 13.7143 81.307 13.6337 81.0911 13.5573C80.247 13.2589 79.4016 12.9634 78.5074 12.6508L76.8375 12.0654L76.8068 12.6268V12.6254Z" fill="#425375" stroke="white" stroke-width="0.6" mask="url(#path-2-inside-1_253_5354)"/>
</g>
<path id="Vector_2" d="M4.72641 57.3104C4.91367 57.3013 5.07047 57.2486 5.19627 57.1609C5.33493 57.0644 5.44479 56.9192 5.51508 56.7227L5.51514 56.7225C5.61858 56.4343 5.61064 56.1709 5.50947 55.9561L5.50919 55.9555C5.41007 55.7425 5.21256 55.5724 4.92178 55.471C3.33018 54.9173 2.223 53.5771 2.04061 51.9707L2.04061 51.9707C1.85957 50.3737 2.61326 48.8761 4.04368 47.9667C4.32846 47.7844 4.47787 47.5862 4.52223 47.3813L4.52239 47.3805C4.58792 47.0852 4.44145 46.7501 4.28185 46.4995L4.28182 46.4994C3.56984 45.3802 3.36623 44.1893 3.7379 43.1512C4.10961 42.1129 5.01756 41.3314 6.27107 40.9348C6.59915 40.8302 6.9644 40.6405 7.08695 40.3137L7.08714 40.3132C7.20981 39.9896 7.06474 39.6035 6.89068 39.3085L6.89056 39.3083C6.53082 38.6963 6.42574 38.1435 6.46561 37.665C6.50533 37.1881 6.688 36.7959 6.88723 36.501C7.39628 35.7453 8.14287 35.3419 9.03664 35.3419C9.21699 35.3419 9.40244 35.3583 9.5901 35.3908L9.59042 35.3908C10.6764 35.5813 11.4416 36.2713 11.6692 37.2876C11.7601 37.6916 11.8959 37.9487 12.1007 38.1189C12.3075 38.2907 12.6063 38.392 13.0625 38.4367L13.0626 38.4367C14.1604 38.5451 15.102 39.0533 15.7064 39.8759C16.2699 40.6422 16.4772 41.6014 16.2914 42.571C16.2914 42.571 16.2914 42.571 16.2914 42.571L16.1441 42.5428C16.0772 42.892 15.9296 43.2654 15.7067 43.6486L4.72641 57.3104ZM4.72641 57.3104H4.66605C4.50823 57.3104 4.33652 57.2801 4.1556 57.2194L4.72641 57.3104ZM18.7147 49.3437L18.5647 49.3461L4.15531 57.2193C1.85135 56.4398 0.129881 54.0829 0.150189 51.7529L0.150183 51.7511C0.144717 50.078 0.603528 48.7732 1.59041 47.6224C1.74496 47.4428 1.89682 47.2343 1.97792 46.9767C2.0602 46.7154 2.06603 46.4156 1.94915 46.0596L1.94911 46.0595C1.18251 43.7313 1.90171 41.4767 3.87786 40.0132L3.87799 40.0131C4.15845 39.8049 4.36073 39.5804 4.48319 39.3123C4.60572 39.044 4.6422 38.7455 4.61358 38.3997C4.4309 36.1877 5.65881 34.2888 7.6596 33.6594C8.13595 33.5097 8.6222 33.433 9.10489 33.433C10.7223 33.433 12.2154 34.2954 13.0978 35.7492C13.3669 36.1937 13.8632 36.5848 14.3424 36.726C16.8016 37.4536 18.9086 40.1866 18.0386 43.3243L18.0385 43.3244C17.9288 43.7217 17.9669 44.0488 18.0837 44.3193C18.1988 44.5858 18.3857 44.7868 18.5556 44.9417C20.3105 46.5436 20.9328 48.4984 20.4157 50.7723C19.905 53.0163 18.4557 54.5216 16.0831 55.2539C15.8796 55.3161 15.6457 55.3564 15.4071 55.366H15.407H15.4069H15.4068H15.4067H15.4065H15.4064H15.4063H15.4062H15.4061H15.406H15.4059H15.4057H15.4056H15.4055H15.4054H15.4053H15.4052H15.4051H15.405H15.4048H15.4047H15.4046H15.4045H15.4044H15.4043H15.4042H15.4041H15.4039H15.4038H15.4037H15.4036H15.4035H15.4034H15.4033H15.4032H15.403H15.4029H15.4028H15.4027H15.4026H15.4025H15.4024H15.4023H15.4021H15.402H15.4019H15.4018H15.4017H15.4016H15.4015H15.4014H15.4012H15.4011H15.401H15.4009H15.4008H15.4007H15.4006H15.4005H15.4004H15.4002H15.4001H15.4H15.3999H15.3998H15.3997H15.3996H15.3995H15.3993H15.3992H15.3991H15.399H15.3989H15.3988H15.3987H15.3986H15.3985H15.3983H15.3982H15.3981H15.398H15.3979H15.3978H15.3977H15.3976H15.3975H15.3973H15.3972H15.3971H15.397H15.3969H15.3968H15.3967H15.3966H15.3965H15.3963H15.3962H15.3961H15.396H15.3959H15.3958H15.3957H15.3956H15.3955H15.3954H15.3952H15.3951H15.395H15.3949H15.3948H15.3947H15.3946H15.3945H15.3944H15.3942H15.3941H15.394H15.3939H15.3938H15.3937H15.3936H15.3935H15.3934H15.3933H15.3931H15.393H15.3929H15.3928H15.3927H15.3926H15.3925H15.3924H15.3923H15.3922H15.392H15.3919H15.3918H15.3917H15.3916H15.3915H15.3914H15.3913H15.3912H15.3911H15.3909H15.3908H15.3907H15.3906H15.3905H15.3904H15.3903H15.3902H15.3901H15.39H15.3898H15.3897H15.3896H15.3895H15.3894H15.3893H15.3892H15.3891H15.389H15.3889H15.3888H15.3886H15.3885H15.3884H15.3883H15.3882H15.3881H15.388H15.3879H15.3878H15.3877H15.3876H15.3874H15.3873H15.3872H15.3871H15.387H15.3869H15.3868H15.3867H15.3866H15.3865H15.3864H15.3862H15.3861H15.386H15.3859H15.3858H15.3857H15.3856H15.3855H15.3854H15.3853H15.3852H15.385H15.3849H15.3848H15.3847H15.3846H15.3845H15.3844H15.3843H15.3842H15.3841H15.384H15.3839H15.3837H15.3836H15.3835H15.3834H15.3833H15.3832H15.3831H15.383H15.3829H15.3828H15.3827H15.3826H15.3824H15.3823H15.3822H15.3821H15.382H15.3819H15.3818H15.3817H15.3816H15.3815H15.3814H15.3813H15.3811H15.381H15.3809H15.3808H15.3807H15.3806H15.3805H15.3804H15.3803H15.3802H15.3801H15.38H15.3799H15.3797H15.3796H15.3795H15.3794H15.3793H15.3792H15.3791H15.379H15.3789H15.3788H15.3787H15.3786H15.3785H15.3783H15.3782H15.3781H15.378H15.3779H15.3778H15.3777H15.3776H15.3775H15.3774H15.3773H15.3772H15.3771H15.3769H15.3768H15.3767H15.3766H15.3765H15.3764H15.3763H15.3762H15.3761H15.376H15.3759H15.3758H15.3757H15.3756H15.3754H15.3753H15.3752H15.3751H15.375H15.3749H15.3748H15.3747H15.3746H15.3745H15.3744H15.3743H15.3742H15.374H15.3739H15.3738H15.3737H15.3736H15.3735H15.3734H15.3733H15.3732H15.3731H15.373H15.3729H15.3728H15.3727H15.3725H15.3724H15.3723H15.3722H15.3721H15.372H15.3719H15.3718H15.3717H15.3716H15.3715H15.3714H15.3713H15.3712H15.3711H15.3709H15.3708H15.3707H15.3706H15.3705H15.3704H15.3703H15.3702H15.3701H15.37H15.3699H15.3698H15.3697H15.3696H15.3695H15.3693H15.3692H15.3691H15.369H15.3689H15.3688H15.3687H15.3686H15.3685H15.3684H15.3683H15.3682H15.3681H15.368H15.3679H15.3677H15.3676H15.3675H15.3674H15.3673H15.3672H15.3671H15.367H15.3669H15.3668H15.3667H15.3666H15.3665H15.3664H15.3663H15.3661H15.366H15.3659H15.3658H15.3657H15.3656H15.3655H15.3654H15.3653H15.3652H15.3651H15.365H15.3649H15.3648H15.3647H15.3645H15.3644H15.3643H15.3642H15.3641H15.364H15.3639H15.3638H15.3637H15.3636H15.3635H15.3634H15.3633H15.3632H15.3631H15.363H15.3628H15.3627H15.3626H15.3625H15.3624H15.3623H15.3622H15.3621H15.362H15.3619H15.3618H15.3617H15.3616H15.3615H15.3614H15.3613H15.3611H15.361H15.3609H15.3608H15.3607H15.3606H15.3605H15.3604H15.3603H15.3602H15.3601H15.36H15.3599H15.3598H15.3597H15.3596H15.3594H15.3593H15.3592H15.3591H15.359H15.3589H15.3588H15.3587H15.3586H15.3585H15.3584H15.3583H15.3582H15.3581H15.358H15.3579H15.3578H15.3576H15.3575H15.3574H15.3573H15.3572H15.3571H15.357H15.3569H15.3568H15.3567H15.3566H15.3565H15.3564H15.3563H15.3562H15.3561H15.3559H15.3558H15.3557H15.3556H15.3555H15.3554H15.3553H15.3552H15.3551H15.355H15.3549H15.3548H15.3547H15.3546H15.3545H15.3544C14.8666 55.366 14.4899 55.0433 14.4134 54.5525L14.4134 54.5523C14.3852 54.3728 14.4421 54.1631 14.571 53.972C14.6992 53.782 14.8902 53.6236 15.1077 53.5442C15.1996 53.5108 15.2923 53.479 15.387 53.4465C15.4228 53.4343 15.4589 53.4219 15.4953 53.4093L15.507 53.4053C15.9379 53.259 16.4023 53.1014 16.8218 52.8291C18.0279 52.0469 18.7379 50.745 18.7147 49.3437C18.7147 49.3437 18.7147 49.3437 18.7147 49.3437Z" fill="#425375" stroke="white" stroke-width="0.3"/>
<path id="Vector_3" d="M41.7406 39.7654C40.1835 39.8432 38.5734 39.9224 36.9926 39.9605M41.7406 39.7654L42.1919 39.7428C42.8952 39.7088 43.3549 39.2535 43.3368 38.6115C43.3186 37.9737 42.8353 37.5325 42.1348 37.5155M41.7406 39.7654L41.7331 39.6156M41.7406 39.7654L41.7331 39.6156L41.7331 39.6156M36.9926 39.9605L42.1348 37.5155M36.9926 39.9605C36.4689 39.9733 35.909 39.9789 35.2293 39.9789C34.7613 39.9789 34.2933 39.9761 33.8254 39.9733L33.8246 39.9733C33.3555 39.9704 32.8864 39.9676 32.4172 39.9676H32.1508L36.9926 39.9605ZM42.1348 37.5155L42.1311 37.6655C42.1317 37.6655 42.1323 37.6655 42.1329 37.6655H42.1331H42.1332H42.1334H42.1335H42.1337H42.1338H42.134H42.1341H42.1343H42.1345H42.1346H42.1348V37.5155ZM41.7331 39.6156C40.1757 39.6934 38.5675 39.7724 36.9889 39.8106L36.9889 39.8106C36.4668 39.8233 35.9081 39.8289 35.2293 39.8289C34.7618 39.8289 34.2943 39.8261 33.8263 39.8233L33.8252 39.8233C33.3563 39.8204 32.8868 39.8176 32.4172 39.8176H32.0008H31.8508V39.9676V39.9952M41.7331 39.6156L21.8676 39.4469C21.8857 39.8126 22.0286 40.0132 22.2072 40.1292C22.3793 40.241 22.6017 40.2852 22.8245 40.2918L22.825 40.2913H22.8877H22.8879H22.888H22.8881H22.8883H22.8884H22.8885H22.8887H22.8888H22.8889H22.889H22.8892H22.8893H22.8894H22.8896H22.8897H22.8898H22.89H22.8901H22.8902H22.8903H22.8905H22.8906H22.8907H22.8909H22.891H22.8911H22.8913H22.8914H22.8915H22.8917H22.8918H22.8919H22.892H22.8922H22.8923H22.8924H22.8926H22.8927H22.8928H22.893H22.8931H22.8932H22.8934H22.8935H22.8936H22.8937H22.8939H22.894H22.8941H22.8943H22.8944H22.8945H22.8947H22.8948H22.8949H22.8951H22.8952H22.8953H22.8954H22.8956H22.8957H22.8958H22.896H22.8961H22.8962H22.8964H22.8965H22.8966H22.8967H22.8969H22.897H22.8971H22.8973H22.8974H22.8975H22.8977H22.8978H22.8979H22.8981H22.8982H22.8983H22.8984H22.8986H22.8987H22.8988H22.899H22.8991H22.8992H22.8994H22.8995H22.8996H22.8998H22.8999H22.9H22.9001H22.9003H22.9004H22.9005H22.9007H22.9008H22.9009H22.9011H22.9012H22.9013H22.9014H22.9016H22.9017H22.9018H22.902H22.9021H22.9022H22.9024H22.9025H22.9026H22.9028H22.9029H22.903H22.9031H22.9033H22.9034H22.9035H22.9037H22.9038H22.9039H22.9041H22.9042H22.9043H22.9045H22.9046H22.9047H22.9048H22.905H22.9051H22.9052H22.9054H22.9055H22.9056H22.9058H22.9059H22.906H22.9061H22.9063H22.9064H22.9065H22.9067H22.9068H22.9069H22.9071H22.9072H22.9073H22.9075H22.9076H22.9077H22.9078H22.908H22.9081H22.9082H22.9084H22.9085H22.9086H22.9088H22.9089H22.909H22.9092H22.9093H22.9094H22.9095H22.9097H22.9098H22.9099H22.9101H22.9102H22.9103H22.9105H22.9106H22.9107H22.9108H22.911H22.9111H22.9112H22.9114H22.9115H22.9116H22.9118H22.9119H22.912H22.9122H22.9123H22.9124H22.9125H22.9127H22.9128H22.9129H22.9131H22.9132H22.9133H22.9135H22.9136H22.9137H22.9139H22.914H22.9141H22.9142H22.9144H22.9145H22.9146H22.9148H22.9149H22.915H22.9152H22.9153H22.9154H22.9156H22.9157H22.9158H22.9159H22.9161H22.9162H22.9163H22.9165H22.9166H22.9167H22.9169H22.917H22.9171H22.9172H22.9174H22.9175H22.9176H22.9178H22.9179H22.918H22.9182H22.9183H22.9184H22.9186H22.9187H22.9188H22.9189H22.9191H22.9192H22.9193H22.9195H22.9196H22.9197H22.9199H22.92H22.9201H22.9203H22.9204H22.9205H22.9206H22.9208H22.9209H22.921H22.9212H22.9213H22.9214H22.9216H22.9217H22.9218H22.9219H22.9221H22.9222H22.9223H22.9225H22.9226H22.9227H22.9229H22.923H22.9231H22.9233H22.9234H22.9235H22.9236H22.9238H22.9239H22.924H22.9242H22.9243H22.9244H22.9246H22.9247H22.9248H22.925H22.9251H22.9252H22.9253H22.9255H22.9256H22.9257H22.9259H22.926H22.9261H22.9263H22.9264H22.9265H22.9266H22.9268H22.9269H22.927H22.9272H22.9273H22.9274H22.9276H22.9277H22.9278H22.928H22.9281H22.9282H22.9283H22.9285H22.9286H22.9287H22.9289H22.929H22.9291H22.9293H22.9294H22.9295H22.9297H22.9298H22.9299H22.93H22.9302H22.9303H22.9304H22.9306H22.9307H22.9308H22.931H22.9311H22.9312H22.9313H22.9315H22.9316H22.9317H22.9319H22.932H22.9321H22.9323H22.9324H22.9325H22.9327H22.9328H22.9329H22.933H22.9332H22.9333H22.9334H22.9336H22.9337H22.9338H22.934H22.9341H22.9342H22.9344H22.9345H22.9346H22.9347H22.9349H22.935H22.9351H22.9353H22.9354H22.9355H22.9357H22.9358H22.9359H22.9361H22.9362H22.9363H22.9364H22.9366H22.9367H22.9368H22.937H22.9371H22.9372H22.9374H22.9375H22.9376H22.9377H22.9379H22.938H22.9381H22.9383H22.9384H22.9385H22.9387H22.9388H22.9389H22.9391H22.9392H22.9393H22.9394H22.9396H22.9397H22.9398H22.94H22.9401H22.9402H22.9404H22.9405H22.9406H22.9408H22.9409H22.941H22.9411H22.9413H22.9414H22.9415H22.9417H22.9418H22.9419H22.9421H22.9422H22.9423H22.9424H22.9426H22.9427H22.9428H22.943H22.9431H22.9432H22.9434H22.9435H22.9436H22.9438H22.9439H22.944H22.9441H22.9443H22.9444H22.9445H22.9447H22.9448H22.9449H22.9451H22.9452H22.9453H22.9455H22.9456H22.9457H22.9458H22.946H22.9461H22.9462H22.9464H22.9465H22.9466H22.9468H22.9469H22.947H22.9471H22.9473H22.9474H22.9475H22.9477H22.9478H22.9479H22.9481H22.9482H22.9483H22.9485H22.9486H22.9487H22.9488H22.949H22.9491H22.9492H22.9494H22.9495H22.9496H22.9498H22.9499H22.95H22.9502H22.9503H22.9504H22.9505H22.9507H22.9508H22.9509H22.9511H22.9512H22.9513H22.9515H22.9516H22.9517H22.9518H22.952H22.9521H22.9522H22.9524H22.9524C25.1898 40.226 27.4635 40.147 29.6668 40.0704L29.7769 40.0666L29.7769 40.0666L31.8508 39.9952M31.8508 39.9952L31.9956 39.9902L32.0008 40.1401M31.8508 39.9952V40.1401H32.0008M32.0008 40.1401V40.1176L29.7821 40.2165L32.0008 40.1401ZM25.1461 38.3215L25.1459 38.3215L25.0872 38.3239C24.2888 38.3557 23.4705 38.3883 22.6727 38.4596C22.4002 38.4842 22.1962 38.5919 22.0626 38.7543C21.9282 38.9176 21.853 39.1508 21.8676 39.4469L25.1461 38.3215ZM25.1461 38.3215L25.2823 38.3159C25.2824 38.3159 25.2824 38.3159 25.2825 38.3159C29.5832 38.1455 33.8852 37.9792 38.186 37.813L38.3452 37.8068L38.3452 37.8068M25.1461 38.3215L38.3452 37.8068M38.3452 37.8068L41.724 37.6753M38.3452 37.8068L41.724 37.6753M41.724 37.6753C41.7241 37.6753 41.7241 37.6753 41.7242 37.6753L41.724 37.6753Z" fill="#425375" stroke="white" stroke-width="0.3"/>
<path id="Vector_4" d="M23.9964 47.0538L24.1152 47.1453C24.2852 46.9246 24.5762 46.7907 24.9527 46.7881C26.1878 46.7824 27.4243 46.7796 28.6594 46.7796C29.4798 46.7796 30.3 46.7796 31.1188 46.781H31.1191C31.5292 46.781 31.9393 46.7813 32.3495 46.7817L32.3495 46.7817C32.7597 46.7821 33.1699 46.7824 33.5802 46.7824C33.9904 46.7824 34.9874 46.7817 35.9815 46.781L36.0018 46.781C36.9891 46.7803 37.9696 46.7796 38.3658 46.7796C39.6471 46.7796 40.9282 46.781 42.2093 46.7866C42.5039 46.7879 42.7262 46.8667 42.8824 47.0013C43.0382 47.1355 43.1443 47.339 43.181 47.6205C43.2132 47.8698 43.1538 48.0895 43.0251 48.263C42.8957 48.4373 42.6893 48.574 42.4136 48.6419L42.4136 48.6419C42.1871 48.6978 41.9201 48.704 41.6514 48.704L41.6512 48.704C39.5872 48.7068 37.5231 48.7083 35.4577 48.7083H31.225C30.9558 48.7083 30.2831 48.7086 29.6099 48.709L29.6072 48.709H29.6065C28.9326 48.7093 28.2589 48.7097 27.9895 48.7097H27.8395V48.7111C26.9455 48.7109 26.0528 48.7094 25.1589 48.704C24.9565 48.7027 24.6908 48.6756 24.4605 48.5728C24.2356 48.4724 24.0489 48.303 23.9778 48.0085L23.9778 48.0085C23.8941 47.6621 23.9509 47.3592 24.1153 47.1452L23.9964 47.0538ZM23.9964 47.0538C24.2011 46.788 24.5409 46.6409 24.9518 46.6381M23.9964 47.0538C23.7986 47.3112 23.7401 47.6633 23.832 48.0437L24.9518 46.6381M24.9518 46.6381C26.1872 46.6324 27.424 46.6296 28.6594 46.6296C29.4798 46.6296 30.3001 46.6296 31.1191 46.631C31.5293 46.631 31.9395 46.6313 32.3496 46.6317C32.7598 46.6321 33.17 46.6324 33.5802 46.6324C33.9932 46.6324 35.001 46.6317 36.0019 46.631C36.9891 46.6303 37.9695 46.6296 38.3658 46.6296C39.6472 46.6296 40.9286 46.631 42.2099 46.6367C42.852 46.6395 43.249 46.9817 43.3297 47.6011C43.4036 48.1724 43.0581 48.6376 42.4495 48.7875L24.9518 46.6381Z" fill="#425375" stroke="white" stroke-width="0.3"/>
<path id="Vector_5" d="M8.25531 52.494L8.29233 52.3486C7.88627 52.2452 7.49184 52.0944 7.04596 51.9176L7.04588 51.9176C6.76862 51.8078 6.57608 51.6308 6.47137 51.4205C6.36681 51.2104 6.34393 50.9552 6.42685 50.6773L6.42687 50.6773C6.53363 50.3191 6.85449 50.0872 7.29011 50.0872C7.37579 50.0872 7.46452 50.0972 7.55686 50.1153C7.76001 50.158 7.96294 50.2132 8.22451 50.2867L8.22466 50.2867C8.36182 50.3251 8.51278 50.3663 8.68161 50.4116L8.68213 50.4117L9.20582 50.5503L9.3942 50.6002V50.4053V49.8566C9.3942 49.4872 9.3928 49.1306 9.39141 48.7827C9.39121 48.7265 9.391 48.6706 9.39078 48.6149C9.38812 47.9111 9.38558 47.2425 9.39974 46.5776L9.39974 46.5775C9.40693 46.2205 9.50071 45.9464 9.65171 45.7599C9.80033 45.5763 10.0142 45.4649 10.2916 45.4473C10.3209 45.4458 10.3476 45.4446 10.371 45.4446C10.6582 45.4446 10.8799 45.5457 11.0322 45.7189C11.1865 45.8945 11.2825 46.159 11.2851 46.5063L11.2851 46.5064C11.2962 47.8631 11.2948 49.2426 11.2934 50.5777V50.5778V51.8718V53.7922C11.2934 54.0097 11.2934 54.228 11.2935 54.447C11.2936 56.2057 11.2937 58.0078 11.2851 59.783C11.2831 60.1293 11.1872 60.3929 11.0325 60.5677C10.8799 60.7402 10.6573 60.8412 10.3682 60.8415C10.3113 60.8415 10.2528 60.8377 10.1925 60.83C9.94764 60.7973 9.75509 60.6771 9.62025 60.4835C9.48319 60.2867 9.40035 60.0056 9.39838 59.6487L9.39837 59.6486C9.38723 57.7464 9.3761 55.7894 9.40532 53.8666L9.40532 53.8665C9.41119 53.4665 9.3308 53.1321 9.14079 52.8717C8.94991 52.6101 8.6624 52.4422 8.29208 52.3486L8.25531 52.494ZM8.25531 52.494C7.83887 52.3879 7.43635 52.2338 6.99066 52.057M8.25531 52.494C8.94893 52.6693 9.26648 53.1049 9.25534 53.8643L6.99066 52.057M6.99066 52.057C6.37643 51.8138 6.09788 51.2552 6.28312 50.6344C6.41125 50.2045 6.79706 49.9372 7.29011 49.9372C7.3876 49.9372 7.48649 49.9486 7.58677 49.9684C7.79569 50.0122 8.00322 50.0688 8.26506 50.1423L6.99066 52.057ZM11.4351 46.5051C11.4462 47.8627 11.4448 49.2429 11.4434 50.5778V51.8718V53.7922C11.4434 54.0097 11.4434 54.228 11.4435 54.447C11.4436 56.2057 11.4437 58.0082 11.4351 59.7838C11.4309 60.528 11.0226 60.9902 10.3696 60.9915L11.4351 46.5051Z" fill="#425375" stroke="white" stroke-width="0.3"/>
<path id="Vector_6" d="M16.864 31.0614C17.0367 30.8507 17.1161 30.5933 17.091 30.319C17.0367 29.7208 16.5492 29.3192 15.8807 29.3192C15.8375 29.3192 15.7943 29.322 15.7512 29.3249L15.761 29.4745C15.7613 29.4745 15.7617 29.4745 15.762 29.4745M16.864 31.0614L15.762 29.4745M16.864 31.0614C16.6523 31.3202 16.325 31.4814 15.9434 31.5154L16.864 31.0614ZM15.762 29.4745C15.3572 29.5069 14.9493 29.5463 14.5976 29.5816L14.5973 29.5816C14.2989 29.611 14.0626 29.729 13.9042 29.9001C13.7464 30.0706 13.658 30.3023 13.6684 30.5761C13.6795 30.8481 13.7857 31.0705 13.9573 31.2274C14.126 31.3816 14.3661 31.4799 14.6612 31.4907L14.6623 31.4906L15.0409 31.4524C15.3308 31.4227 15.6296 31.3929 15.93 31.366L15.9301 31.366C16.278 31.335 16.5656 31.1893 16.7479 30.9664L16.748 30.9663C16.8957 30.7861 16.9631 30.5679 16.9417 30.3327L16.9416 30.3326C16.8955 29.8248 16.4856 29.4692 15.8807 29.4692C15.8436 29.4692 15.8056 29.4716 15.762 29.4745Z" fill="#425375" stroke="white" stroke-width="0.3"/>
<path id="Vector_7" d="M31.3355 12.7173L31.3355 12.7173C31.4074 13.1609 31.816 13.4981 32.3728 13.52L32.5904 13.4843C32.5905 13.4842 32.5906 13.4842 32.5906 13.4842C32.8872 13.4348 33.2324 13.3768 33.5763 13.3189L33.5777 13.3186L33.5777 13.3186L33.6217 13.3116C33.7094 13.297 33.7768 13.2847 33.8237 13.2685L33.8238 13.2684C34.235 13.1264 34.5276 12.6797 34.4869 12.2932L31.3355 12.7173ZM31.3355 12.7173C31.2584 12.2411 31.5128 11.8254 31.9169 11.7089M31.3355 12.7173L31.9169 11.7089M31.9169 11.7089C32.4686 11.5513 33.0555 11.4601 33.6154 11.4475H33.6346C34.0414 11.4475 34.4366 11.8179 34.4869 12.2932L31.9169 11.7089Z" fill="#425375" stroke="white" stroke-width="0.3"/>
<path id="Vector_8" d="M32.3626 22.1013C32.4923 22.089 32.6229 22.0806 32.7496 22.0725L32.7576 22.072C32.7742 22.0709 32.7906 22.0697 32.8069 22.0686C33.0728 22.05 33.3168 22.033 33.5553 21.9931C34.144 21.8943 34.5488 21.3854 34.4845 20.9185C34.4137 20.4114 34.0167 20.0765 33.4408 20.0765L32.3626 22.1013ZM32.3626 22.1013H32.2932C31.7634 22.1013 31.375 21.7547 31.3297 21.2633L32.3626 22.1013ZM32.5193 20.1832C32.8044 20.1395 33.0684 20.099 33.3315 20.0804L31.3297 21.2632C31.2821 20.7429 31.6289 20.3149 32.2049 20.2305L32.2053 20.2304L32.2077 20.2301C32.3016 20.216 32.3956 20.202 32.4883 20.188L32.4886 20.1879C32.4989 20.1863 32.5091 20.1848 32.5193 20.1832Z" fill="#425375" stroke="white" stroke-width="0.3"/>
<path id="Vector_9" d="M34.6372 28.8355C34.6093 28.2331 34.101 27.7608 33.4826 27.7608H33.4366C32.9658 27.7792 32.4589 27.8457 31.931 27.9602C31.509 28.0521 31.1942 28.465 31.1817 28.9416L34.6372 28.8355ZM34.6372 28.8355C34.6637 29.3941 34.2207 29.8834 33.6065 29.9711C33.4241 29.998 33.2333 30.0064 33.0313 30.0149M34.6372 28.8355L33.0313 30.0149M33.0313 30.0149C32.9338 30.0192 32.8377 30.0234 32.7416 30.0291L33.0313 30.0149ZM31.4616 29.5003C31.3728 29.3593 31.3259 29.177 31.3316 28.9454C31.3427 28.5277 31.618 28.1819 31.9629 28.1068C32.4821 27.9941 32.9793 27.929 33.4395 27.9108H33.4396H33.4397H33.4397H33.4398H33.4399H33.44H33.4401H33.4402H33.4403H33.4404H33.4405H33.4406H33.4406H33.4407H33.4408H33.4409H33.441H33.4411H33.4412H33.4413H33.4414H33.4414H33.4415H33.4416H33.4417H33.4418H33.4419H33.442H33.4421H33.4422H33.4423H33.4423H33.4424H33.4425H33.4426H33.4427H33.4428H33.4429H33.443H33.4431H33.4432H33.4432H33.4433H33.4434H33.4435H33.4436H33.4437H33.4438H33.4439H33.444H33.4441H33.4441H33.4442H33.4443H33.4444H33.4445H33.4446H33.4447H33.4448H33.4449H33.4449H33.445H33.4451H33.4452H33.4453H33.4454H33.4455H33.4456H33.4457H33.4458H33.4458H33.4459H33.446H33.4461H33.4462H33.4463H33.4464H33.4465H33.4466H33.4467H33.4467H33.4468H33.4469H33.447H33.4471H33.4472H33.4473H33.4474H33.4475H33.4476H33.4476H33.4477H33.4478H33.4479H33.448H33.4481H33.4482H33.4483H33.4484H33.4484H33.4485H33.4486H33.4487H33.4488H33.4489H33.449H33.4491H33.4492H33.4493H33.4493H33.4494H33.4495H33.4496H33.4497H33.4498H33.4499H33.45H33.4501H33.4502H33.4502H33.4503H33.4504H33.4505H33.4506H33.4507H33.4508H33.4509H33.451H33.4511H33.4511H33.4512H33.4513H33.4514H33.4515H33.4516H33.4517H33.4518H33.4519H33.452H33.452H33.4521H33.4522H33.4523H33.4524H33.4525H33.4526H33.4527H33.4528H33.4528H33.4529H33.453H33.4531H33.4532H33.4533H33.4534H33.4535H33.4536H33.4537H33.4537H33.4538H33.4539H33.454H33.4541H33.4542H33.4543H33.4544H33.4545H33.4546H33.4546H33.4547H33.4548H33.4549H33.455H33.4551H33.4552H33.4553H33.4554H33.4555H33.4555H33.4556H33.4557H33.4558H33.4559H33.456H33.4561H33.4562H33.4563H33.4563H33.4564H33.4565H33.4566H33.4567H33.4568H33.4569H33.457H33.4571H33.4572H33.4572H33.4573H33.4574H33.4575H33.4576H33.4577H33.4578H33.4579H33.458H33.4581H33.4581H33.4582H33.4583H33.4584H33.4585H33.4586H33.4587H33.4588H33.4589H33.459H33.459H33.4591H33.4592H33.4593H33.4594H33.4595H33.4596H33.4597H33.4598H33.4599H33.4599H33.46H33.4601H33.4602H33.4603H33.4604H33.4605H33.4606H33.4607H33.4607H33.4608H33.4609H33.461H33.4611H33.4612H33.4613H33.4614H33.4615H33.4616H33.4616H33.4617H33.4618H33.4619H33.462H33.4621H33.4622H33.4623H33.4624H33.4625H33.4625H33.4626H33.4627H33.4628H33.4629H33.463H33.4631H33.4632H33.4633H33.4634H33.4634H33.4635H33.4636H33.4637H33.4638H33.4639H33.464H33.4641H33.4642H33.4642H33.4643H33.4644H33.4645H33.4646H33.4647H33.4648H33.4649H33.465H33.4651H33.4651H33.4652H33.4653H33.4654H33.4655H33.4656H33.4657H33.4658H33.4659H33.466H33.466H33.4661H33.4662H33.4663H33.4664H33.4665H33.4666H33.4667H33.4668H33.4669H33.4669H33.467H33.4671H33.4672H33.4673H33.4674H33.4675H33.4676H33.4677H33.4677H33.4678H33.4679H33.468H33.4681H33.4682H33.4683H33.4684H33.4685H33.4686H33.4686H33.4687H33.4688H33.4689H33.469H33.4691H33.4692H33.4693H33.4694H33.4695H33.4695H33.4696H33.4697H33.4698H33.4699H33.47H33.4701H33.4702H33.4703H33.4704H33.4704H33.4705H33.4706H33.4707H33.4708H33.4709H33.471H33.4711H33.4712H33.4713H33.4713H33.4714H33.4715H33.4716H33.4717H33.4718H33.4719H33.472H33.4721H33.4721H33.4722H33.4723H33.4724H33.4725H33.4726H33.4727H33.4728H33.4729H33.473H33.473H33.4731H33.4732H33.4733H33.4734H33.4735H33.4736H33.4737H33.4738H33.4739H33.4739H33.474H33.4741H33.4742H33.4743H33.4744H33.4745H33.4746H33.4747H33.4748H33.4748H33.4749H33.475H33.4751H33.4752H33.4753H33.4754H33.4755H33.4756H33.4756H33.4757H33.4758H33.4759H33.476H33.4761H33.4762H33.4763H33.4764H33.4765H33.4765H33.4766H33.4767H33.4768H33.4769H33.477H33.4771H33.4772H33.4773H33.4774H33.4774H33.4775H33.4776H33.4777H33.4778H33.4779H33.478H33.4781H33.4782H33.4783H33.4783H33.4784H33.4785H33.4786H33.4787H33.4788H33.4789H33.479H33.4791H33.4791H33.4792H33.4793H33.4794H33.4795H33.4796H33.4797H33.4798H33.4799H33.48H33.48H33.4801H33.4802H33.4803H33.4804H33.4805H33.4806H33.4807H33.4808H33.4809H33.4809H33.481H33.4811H33.4812H33.4813H33.4814H33.4815H33.4816H33.4817H33.4818H33.4818H33.4819H33.482H33.4821H33.4822H33.4823H33.4824H33.4825H33.4826C34.0244 27.9108 34.4634 28.3237 34.4873 28.8425L34.4874 28.8426C34.5096 29.3119 34.1355 29.7441 33.5853 29.8226L33.5847 29.8227C33.4112 29.8482 33.2282 29.8565 33.025 29.8651L33.0248 29.8651C32.9274 29.8693 32.8302 29.8736 32.7328 29.8793L32.7328 29.8793L32.7319 29.8794L32.3823 29.902L32.3559 29.9037C32.1597 29.8924 32.0023 29.8769 31.8846 29.8303L31.8845 29.8302C31.6875 29.7522 31.55 29.6406 31.4616 29.5003Z" fill="#425375" stroke="white" stroke-width="0.3"/>
<path id="Vector_10" d="M40.1132 20.1625L40.1132 20.1628C40.1494 20.6441 40.5129 20.9906 40.9733 20.9983H40.9733H40.9735H40.9738H40.974H40.9742H40.9744H40.9746H40.9748H40.975H40.9752H40.9755H40.9757H40.9759H40.9761H40.9763H40.9765H40.9767H40.9769H40.9772H40.9774H40.9776H40.9778H40.978H40.9782H40.9784H40.9786H40.9789H40.9791H40.9793H40.9795H40.9797H40.9799H40.9801H40.9804H40.9806H40.9808H40.981H40.9812H40.9814H40.9816H40.9818H40.9821H40.9823H40.9825H40.9827H40.9829H40.9831H40.9833H40.9836H40.9838H40.984H40.9842H40.9844H40.9846H40.9848H40.9851H40.9853H40.9855H40.9857H40.9859H40.9861H40.9863H40.9866H40.9868H40.987H40.9872H40.9874H40.9876H40.9878H40.9881H40.9883H40.9885H40.9887H40.9889H40.9891H40.9893H40.9896H40.9898H40.99H40.9902H40.9904H40.9906H40.9908H40.9911H40.9913H40.9915H40.9917H40.9919H40.9921H40.9923H40.9926H40.9928H40.993H40.9932H40.9934H40.9936H40.9939H40.9941H40.9943H40.9945H40.9947H40.9949H40.9951H40.9954H40.9956H40.9958H40.996H40.9962H40.9964H40.9966H40.9969H40.9971H40.9973H40.9975H40.9977H40.9979H40.9982H40.9984H40.9986H40.9988H40.999H40.9992H40.9995H40.9997H40.9999H41.0001H41.0003H41.0005H41.0007H41.001H41.0012H41.0014H41.0016H41.0018H41.002H41.0023H41.0025H41.0027H41.0029H41.0031H41.0033H41.0036H41.0038H41.004H41.0042H41.0044H41.0046H41.0049H41.0051H41.0053H41.0055H41.0057H41.0059H41.0062H41.0064H41.0066H41.0068H41.007H41.0072H41.0075H41.0077H41.0079H41.0081H41.0083H41.0085H41.0088H41.009H41.0092H41.0094H41.0096H41.0098H41.0101H41.0103H41.0105H41.0107H41.0109H41.0111H41.0114H41.0116H41.0118H41.012H41.0122H41.0124H41.0127H41.0129H41.0131H41.0133H41.0135H41.0137H41.014H41.0142H41.0144H41.0146H41.0148H41.015H41.0153H41.0155H41.0157H41.0159H41.0161H41.0163H41.0166H41.0168H41.017H41.0172H41.0174H41.0177H41.0179H41.0181H41.0183H41.0185H41.0187H41.019H41.0192H41.0194H41.0196H41.0198H41.02H41.0203H41.0205H41.0207H41.0209H41.0211H41.0214H41.0216H41.0218H41.022H41.0222H41.0224H41.0227H41.0229H41.0231H41.0233H41.0235H41.0238H41.024H41.0242H41.0244H41.0246H41.0248H41.0251H41.0253H41.0255H41.0257H41.0259H41.0262H41.0264H41.0266H41.0268H41.027H41.0272H41.0275H41.0277H41.0279H41.0281H41.0283H41.0286H41.0288H41.029H41.0292H41.0294H41.0296H41.0299H41.0301H41.0303H41.0305H41.0307H41.031H41.0312H41.0314H41.0316H41.0318H41.032H41.0323H41.0325H41.0327H41.0329H41.0331H41.0334H41.0336H41.0338H41.034H41.0342H41.0345H41.0347H41.0349H41.0351H41.0353H41.0355H41.0358H41.036H41.0362H41.0364H41.0366H41.0369H41.0371H41.0373H41.0375H41.0377H41.038H41.0382H41.0384H41.0386H41.0388H41.0391H41.0393H41.0395H41.0397H41.0399H41.0401H41.0404H41.0406H41.0408H41.041H41.0412H41.0415H41.0417H41.0419H41.0421H41.0423H41.0426H41.0428H41.043H41.0432H41.0434H41.0437H41.0439H41.0441H41.0443H41.0445H41.0448H41.045H41.0452H41.0454H41.0456H41.0458H41.0461H41.0463H41.0465H41.0467H41.0469H41.0472H41.0474H41.0476H41.0478H41.048H41.0483H41.0485H41.0487H41.0489H41.0491H41.0494H41.0496H41.0498H41.05H41.0502H41.0505H41.0507H41.0509H41.0511H41.0513H41.0516H41.0518H41.052H41.0522H41.0524H41.0527H41.0529H41.0531H41.0533H41.0535H41.0538H41.054H41.0542H41.0544H41.0546H41.0549H41.0551H41.0553H41.0555H41.0557H41.056H41.0562H41.0564H41.0566H41.0568H41.0571H41.0573H41.0575H41.0577H41.0579H41.0582H41.0584H41.0586H41.0588H41.059H41.0593H41.0595H41.0597H41.0599H41.0601H41.0604H41.0606H41.0608H41.061H41.0612H41.0615H41.0617H41.0619H41.0621H41.0623H41.0626H41.0628H41.063H41.0632H41.0634H41.0637H41.0639H41.0641H41.0643H41.0645H41.0648H41.065H41.0652H41.0654H41.0656H41.0659H41.0661H41.0663H41.0665H41.0667H41.067H41.0672H41.0674H41.0676H41.0678H41.0681H41.0683H41.0685H41.0687H41.0689H41.0692H41.0694H41.0696H41.0698H41.07H41.0703H41.0705H41.0707H41.0709H41.0711H41.0714H41.0716H41.0718H41.072H41.0722H41.0725H41.0727H41.0729H41.0731H41.0733H41.0736H41.0738H41.074H41.0742H41.0744H41.0747H41.0749H41.0751H41.0753H41.0755H41.0758H41.076H41.0762H41.0764H41.0766H41.0769H41.0771H41.0773H41.0775H41.0777H41.078H41.0782H41.0784H41.0786H41.0788H41.0791H41.0793H41.0795H41.0797H41.0799H41.0802H41.0804H41.0806H41.0808H41.0811H41.0813H41.0815H41.0817H41.0819H41.0822H41.0824H41.0826H41.0828H41.083H41.0833H41.0835L40.1132 20.1625ZM40.1132 20.1625C40.0783 19.7097 40.3768 19.2952 40.7979 19.1943C41.1089 19.1204 41.4385 19.0707 41.7094 19.0298L41.7181 19.0285C41.8125 19.015 41.9013 19.0014 41.9808 18.9876H41.9944C42.2118 18.9876 42.4921 19.019 42.7257 19.1427C42.9504 19.2617 43.1394 19.4692 43.1853 19.8498L43.1853 19.8498C43.2445 20.3388 42.9154 20.775 42.3761 20.8765L40.1132 20.1625Z" fill="#425375" stroke="white" stroke-width="0.3"/>
<path id="Vector_11" d="M41.1016 12.1681C41.2294 12.1497 41.3609 12.134 41.4932 12.1186C41.4934 12.1186 41.4935 12.1186 41.4936 12.1186L41.1016 12.1681ZM41.1016 12.1681C40.5693 12.1538 40.1762 11.8127 40.1165 11.345C40.0556 10.867 40.3705 10.4204 40.8574 10.3097C41.3442 10.2002 41.7354 10.1306 42.0932 10.0904L42.0937 10.0903C42.1369 10.0853 42.1798 10.0829 42.2213 10.0829C42.7078 10.0829 43.0904 10.4102 43.1736 10.9105L41.1016 12.1681Z" fill="#425375" stroke="white" stroke-width="0.3"/>
<path id="Vector_12" d="M40.3749 27.4856L40.3748 27.4857C40.2164 27.6641 40.1334 27.8316 40.109 27.9955C40.0847 28.1587 40.1162 28.3348 40.2159 28.5355L40.3749 27.4856ZM40.3749 27.4856C40.4734 27.3746 40.6795 27.2603 40.962 27.1741C41.2389 27.0895 41.5685 27.0383 41.8922 27.0383C42.1057 27.0383 42.2984 27.0617 42.4533 27.102C42.6122 27.1434 42.7153 27.1986 42.7664 27.25L42.7666 27.2502M40.3749 27.4856L42.7666 27.2502M42.7666 27.2502C42.9553 27.4394 43.1204 27.8437 43.148 28.2311L43.148 28.2311M42.7666 27.2502L43.148 28.2311M43.148 28.2311C43.1671 28.5004 42.9927 28.7481 42.6618 28.8491L42.6616 28.8491M43.148 28.2311L42.6616 28.8491M42.6616 28.8491C42.4105 28.9263 42.1401 28.9658 41.8384 29.01C41.8296 29.0112 41.8208 29.0125 41.812 29.0138L41.8337 29.1622M42.6616 28.8491L40.5897 28.9495M40.5897 28.9495C40.7465 29.0353 40.9516 29.0801 41.2307 29.0801H41.2321C41.2901 29.0801 41.3483 29.0789 41.4071 29.0752C41.5335 29.0542 41.6621 29.0355 41.7878 29.0173C41.7959 29.0161 41.8041 29.015 41.8122 29.0138L41.8337 29.1622M40.5897 28.9495C40.4353 28.865 40.3145 28.7337 40.2159 28.5355L40.5897 28.9495ZM41.8337 29.1622C41.8443 29.1607 41.8548 29.1592 41.8653 29.1576C42.1627 29.1141 42.4433 29.0731 42.7056 28.9925L41.4243 29.2245C41.5514 29.2032 41.6811 29.1844 41.8097 29.1657C41.8177 29.1646 41.8257 29.1634 41.8337 29.1622ZM42.8728 27.1443L42.8728 27.1443L42.8728 27.1443Z" fill="#425375" stroke="white" stroke-width="0.3"/>
<path id="Vector_13" d="M23.3249 23.2312C22.8585 23.2068 22.4913 22.8687 22.4219 22.3801L22.4219 22.3801C22.3482 21.8636 22.6847 21.4207 23.2494 21.3319L23.2495 21.3318C23.5048 21.2915 23.7605 21.2657 24.035 21.238L23.3249 23.2312ZM23.3249 23.2312H23.3793C23.4146 23.2312 23.4482 23.23 23.482 23.2264L23.4836 23.2262L23.4836 23.2262C23.8235 23.1942 24.188 23.1412 24.601 23.0641L24.6011 23.0641C24.876 23.0128 25.0795 22.8851 25.2083 22.709C25.3374 22.5326 25.4011 22.2945 25.3721 22.0061L25.3721 22.0061C25.3251 21.5359 24.9614 21.209 24.4319 21.1967C24.3183 21.209 24.2037 21.2215 24.089 21.2325C24.0889 21.2326 24.0888 21.2326 24.0887 21.2326L23.3249 23.2312Z" fill="#425375" stroke="white" stroke-width="0.3"/>
<path id="Vector_14" d="M22.2748 14.0339C22.1996 13.4456 22.5687 12.9676 23.1927 12.8446C23.5353 12.7767 24.0506 12.6876 24.5534 12.6876C25.0674 12.6876 25.4434 13.0284 25.5172 13.5559M22.2748 14.0339C22.3779 14.8371 23.0297 15.0082 23.4406 15.0351M22.2748 14.0339L22.4236 14.0148C22.3908 13.7579 22.455 13.5317 22.5903 13.3564C22.7261 13.1804 22.9405 13.0472 23.2217 12.9918L23.2218 12.9917C23.5623 12.9243 24.0659 12.8376 24.5534 12.8376C24.9877 12.8376 25.3045 13.1184 25.3687 13.5765M22.2748 14.0339L22.4236 14.0149C22.4695 14.3721 22.6331 14.5767 22.8236 14.6996C23.0145 14.8227 23.243 14.8699 23.4325 14.8841C23.5667 14.8584 23.7019 14.834 23.8371 14.8109M23.4406 15.0351H23.442M23.4406 15.0351L23.4409 15.0297M23.4406 15.0351V15.0279L23.4409 15.0297M23.442 15.0351C23.5812 15.0082 23.7219 14.9828 23.8626 14.9587M23.442 15.0351L23.4409 15.0297M23.442 15.0351V15.0138L23.4409 15.0297M23.8626 14.9587C24.2052 14.8993 24.5311 14.8428 24.8417 14.7494C25.332 14.6024 25.5966 14.1343 25.5172 13.5559M23.8626 14.9587L23.837 14.8109C23.837 14.8109 23.8371 14.8109 23.8371 14.8109M23.8626 14.9587L23.8373 14.8109C23.8373 14.8109 23.8372 14.8109 23.8371 14.8109M25.5172 13.5559L25.3686 13.5763C25.3686 13.5764 25.3686 13.5765 25.3687 13.5765M25.5172 13.5559L25.3687 13.5767C25.3687 13.5766 25.3687 13.5766 25.3687 13.5765M25.3687 13.5765C25.44 14.0968 25.2043 14.4841 24.7986 14.6058L24.7986 14.6058C24.4982 14.696 24.1814 14.7512 23.8371 14.8109" fill="#425375" stroke="white" stroke-width="0.3"/>
<path id="Vector_15" d="M13.6938 15.4242L13.6939 15.4245C13.7738 15.8746 14.1327 16.179 14.5601 16.179H14.5898C14.9902 16.1664 15.3698 16.1207 15.7166 16.0426C16.0131 15.9757 16.2321 15.8339 16.3696 15.6466C16.5069 15.4597 16.5718 15.2158 16.5393 14.9275C16.4905 14.4976 16.0958 14.1603 15.5184 14.1334C15.4208 14.1484 15.3148 14.1633 15.2028 14.1782C15.2027 14.1782 15.2026 14.1783 15.2025 14.1783L13.6938 15.4242ZM13.6938 15.4242C13.6019 14.9133 13.8597 14.4734 14.2724 14.3517L13.6938 15.4242Z" fill="#425375" stroke="white" stroke-width="0.3"/>
<path id="Vector_16" d="M13.6865 23.495L13.6865 23.495C13.7228 23.7557 13.838 23.9551 14.0111 24.0909C14.1841 24.2266 14.4265 24.3074 14.7318 24.3088C14.835 24.2936 14.9441 24.2798 15.0558 24.2661C15.0558 24.2661 15.0559 24.2661 15.056 24.2661L13.6865 23.495ZM13.6865 23.495C13.648 23.2179 13.7071 22.9764 13.8353 22.7925C13.9633 22.6087 14.167 22.4727 14.4355 22.4182L14.4355 22.4182M13.6865 23.495L14.4355 22.4182M14.4355 22.4182L14.4359 22.4181M14.4355 22.4182L14.4359 22.4181M14.4359 22.4181C14.7546 22.3526 15.1078 22.3194 15.4879 22.3194C15.577 22.3194 15.6664 22.3208 15.7523 22.3249L15.7523 22.3249M14.4359 22.4181L15.7523 22.3249M15.7523 22.3249L15.7535 22.3249M15.7523 22.3249L15.7535 22.3249M15.7535 22.3249C16.1692 22.3416 16.5023 22.6617 16.5418 23.0977L15.7535 22.3249Z" fill="#425375" stroke="white" stroke-width="0.3"/>
<path id="Vector_17" d="M23.6002 28.8148L23.6001 28.8149C23.2244 28.8831 22.9519 29.0234 22.7831 29.2046C22.6174 29.3823 22.5412 29.6097 22.5732 29.8814L23.6002 28.8148ZM23.6002 28.8148C23.8547 28.7683 24.1103 28.7452 24.3602 28.7452M23.6002 28.8148L24.3602 28.7452M24.3602 28.7452C24.4322 28.7452 24.5029 28.7465 24.573 28.7506L24.3602 28.7452ZM23.0016 30.5622C22.7831 30.4376 22.6147 30.2326 22.5732 29.8814L24.573 28.7506C24.9835 28.7743 25.3163 29.0948 25.37 29.553L25.37 29.5531C25.4286 30.0502 25.2039 30.4189 24.8076 30.5499L24.8074 30.55C24.6004 30.6187 24.37 30.6539 24.1098 30.6924L24.1095 30.6925C24.0039 30.7083 23.8979 30.7245 23.7916 30.743C23.5138 30.7376 23.2266 30.6904 23.0016 30.5622Z" fill="#425375" stroke="white" stroke-width="0.3"/>
<path id="Vector_18" d="M69.5929 26.9323C69.5188 26.9384 69.4454 26.9443 69.3756 26.9518H69.353H69.2805C68.9873 26.9404 68.7569 26.8611 68.5935 26.7354C68.4191 26.6013 68.3091 26.4055 68.2836 26.1494L68.2836 26.1492C68.2542 25.8581 68.3239 25.6221 68.4636 25.4496C68.6038 25.2765 68.8266 25.1525 69.1304 25.1093L69.1304 25.1093C69.4208 25.068 69.768 25.0189 70.0815 25.0189C70.2651 25.0189 70.4202 25.0351 70.5552 25.0672L70.5556 25.0673C70.831 25.1318 70.9694 25.2931 71.0429 25.4687C71.1195 25.652 71.1255 25.8538 71.1184 25.979L71.1183 25.9794C71.0942 26.4261 70.8241 26.7416 70.3842 26.8364C70.1516 26.8863 69.9064 26.9069 69.6599 26.9268L69.6595 26.9269C69.6373 26.9287 69.6151 26.9305 69.5929 26.9323Z" fill="#425375" stroke="white" stroke-width="0.3"/>
<path id="Vector_19" d="M68.8221 17.9162L68.8222 17.9162C69.0835 17.8268 69.3654 17.772 69.6765 17.7123C69.7978 17.6893 69.9193 17.6649 70.0396 17.6393C70.278 17.6511 70.522 17.6997 70.7156 17.816C70.9072 17.9312 71.058 18.1172 71.1029 18.4305L71.103 18.4306C71.1599 18.8251 71.0556 19.0701 70.899 19.2304C70.7354 19.3979 70.4963 19.4917 70.2551 19.5405L70.2547 19.5406C69.8271 19.6283 69.4657 19.6691 69.1511 19.6691H69.1509H69.1508H69.1506H69.1504H69.1503H69.1501H69.1499H69.1498H69.1496H69.1495H69.1493H69.1491H69.149H69.1488H69.1486H69.1485H69.1483H69.1482H69.148H69.1478H69.1477H69.1475H69.1473H69.1472H69.147H69.1468H69.1467H69.1465H69.1464H69.1462H69.146H69.1459H69.1457H69.1455H69.1454H69.1452H69.145H69.1449H69.1447H69.1446H69.1444H69.1442H69.1441H69.1439H69.1437H69.1436H69.1434H69.1433H69.1431H69.1429H69.1428H69.1426H69.1424H69.1423H69.1421H69.1419H69.1418H69.1416H69.1415H69.1413H69.1411H69.141H69.1408H69.1406H69.1405H69.1403H69.1402H69.14H69.1398H69.1397H69.1395H69.1393H69.1392H69.139H69.1389H69.1387H69.1385H69.1384H69.1382H69.138H69.1379H69.1377H69.1375H69.1374H69.1372H69.1371H69.1369H69.1367H69.1366H69.1364H69.1362H69.1361H69.1359H69.1358H69.1356H69.1354H69.1353H69.1351H69.1349H69.1348H69.1346H69.1345H69.1343H69.1341H69.134H69.1338H69.1336H69.1335H69.1333H69.1331H69.133H69.1328H69.1327H69.1325H69.1323H69.1322H69.132H69.1318H69.1317H69.1315H69.1314H69.1312H69.131H69.1309H69.1307H69.1305H69.1304H69.1302H69.1301H69.1299H69.1297H69.1296H69.1294H69.1292H69.1291H69.1289H69.1288H69.1286H69.1284H69.1283H69.1281H69.1279H69.1278H69.1276H69.1275H69.1273H69.1271H69.127H69.1268H69.1266H69.1265H69.1263H69.1262H69.126H69.1258H69.1257H69.1255H69.1253H69.1252H69.125H69.1249H69.1247H69.1245H69.1244H69.1242H69.124H69.1239H69.1237H69.1236H69.1234H69.1232H69.1231H69.1229H69.1227H69.1226H69.1224H69.1223H69.1221H69.1219H69.1218H69.1216H69.1214H69.1213H69.1211H69.121H69.1208H69.1206H69.1205H69.1203H69.1201H69.12H69.1198H69.1197H69.1195H69.1193H69.1192H69.119H69.1189H69.1187H69.1185H69.1184H69.1182H69.118H69.1179H69.1177H69.1176H69.1174H69.1172H69.1171H69.1169H69.1167H69.1166H69.1164H69.1163H69.1161H69.1159H69.1158H69.1156H69.1155H69.1153H69.1151H69.115H69.1148H69.1146H69.1145H69.1143H69.1142H69.114H69.1138H69.1137H69.1135H69.1134H69.1132H69.113H69.1129H69.1127H69.1125H69.1124H69.1122H69.1121H69.1119H69.1117H69.1116H69.1114H69.1113H69.1111H69.1109H69.1108H69.1106H69.1104H69.1103H69.1101H69.11H69.1098H69.1096H69.1095H69.1093H69.1092H69.109H69.1088H69.1087H69.1085H69.1084H69.1082H69.108H69.1079H69.1077H69.1075H69.1074H69.1072H69.1071H69.1069H69.1067H69.1066H69.1064H69.1063H69.1061H69.1059H69.1058H69.1056H69.1055H69.1053H69.1051H69.105H69.1048H69.1047H69.1045H69.1043H69.1042H69.104H69.1038H69.1037H69.1035H69.1034H69.1032H69.103H69.1029H69.1027H69.1026H69.1024H69.1022H69.1021H69.1019H69.1018H69.1016H69.1014H69.1013H69.1011H69.101H69.1008H69.1006H69.1005H69.1003H69.1002H69.1H69.0998H69.0997H69.0995H69.0994H69.0992H69.099H69.0989H69.0987H69.0986H69.0984H69.0982H69.0981H69.0979H69.0978H69.0976H69.0974H69.0973H69.0971H69.097H69.0968H69.0966H69.0965H69.0963H69.0962H69.096H69.0958H69.0957H69.0955H69.0954H69.0952H69.095H69.0949H69.0947H69.0946H69.0944H69.0942H69.0941H69.0939H69.0938H69.0936H69.0935H69.0933H69.0931H69.093H69.0928H69.0927H69.0925H69.0923H69.0922H69.092H69.0919H69.0917H69.0915H69.0914H69.0912H69.0911H69.0909H69.0907H69.0906H69.0904H69.0903H69.0901H69.09H69.0898H69.0896H69.0895H69.0893H69.0892H69.089H69.0888H69.0887H69.0885H69.0884H69.0882H69.088H69.0879H69.0877H69.0876H69.0874H69.0873H69.0871H69.0869H69.0868H69.0866H69.0865H69.0863H69.0861H69.086H69.0858H69.0857H69.0855H69.0854H69.0852H69.085H69.0849H69.0847H69.0846H69.0844H69.0843H69.0841H69.0839H69.0838H69.0836H69.0835H69.0833H69.0831H69.083H69.0828H69.0827H69.0825H69.0824H69.0822H69.082H69.0819H69.0817H69.0816H69.0814H69.0813H69.0811H69.0809H69.0808H69.0806H69.0805H69.0803H69.0802H69.08H69.0798H69.0797H69.0795H69.0794H69.0792H69.0791H69.0789H69.0787H69.0786H69.0784H69.0783H69.0781H69.078H69.0778H69.0776H69.0775H69.0773H69.0772H69.077H69.0769H69.0767H69.0765H69.0764H69.0762H69.0761H69.0759H69.0758H69.0756H69.0755H69.0753H69.0751H69.075H69.0748H69.0747H69.0745H69.0744H69.0742H69.074H69.0739H69.0737H69.0736H69.0734H69.0733H69.0731H69.073H69.0728H69.0726H69.0725H69.0723H69.0722H69.072H69.0719H69.0717H69.0716H69.0714H69.0712H69.0711H69.0709H69.0708H69.0707C68.7123 19.6601 68.3509 19.3323 68.2882 18.9254C68.2177 18.4561 68.456 18.0413 68.8221 17.9162Z" fill="#425375" stroke="white" stroke-width="0.3"/>
<path id="Vector_20" d="M70.254 33.6295C70.9072 33.5616 71.3041 33.1006 71.2623 32.4557C71.2247 31.8533 70.7846 31.4474 70.1537 31.4474C69.9286 31.4488 69.6985 31.4766 69.4564 31.506C69.4424 31.5077 69.4282 31.5094 69.4141 31.5111L70.254 33.6295ZM70.254 33.6295C70.0671 33.6495 69.8802 33.6646 69.6934 33.6797C69.656 33.6828 69.6186 33.6858 69.5812 33.6888L70.254 33.6295ZM70.1541 31.5974C69.9381 31.5988 69.7161 31.6256 69.4716 31.6552C69.4588 31.6568 69.4459 31.6583 69.433 31.6599C69.3549 31.6703 69.2758 31.6795 69.199 31.6884C69.1911 31.6893 69.1831 31.6903 69.1752 31.6912L69.1744 31.6913L69.1744 31.6913C68.8835 31.7237 68.655 31.8445 68.5034 32.0186C68.352 32.1924 68.2692 32.4285 68.2853 32.7073L70.1541 31.5974ZM70.1541 31.5974C70.4367 31.5975 70.6668 31.688 70.8294 31.8365C70.9918 31.9847 71.096 32.1992 71.1126 32.4651L71.1127 32.4654C71.1314 32.754 71.0518 32.9904 70.905 33.1612C70.758 33.3322 70.5329 33.4497 70.2385 33.4803L70.238 33.4803C70.0532 33.5001 69.8687 33.5151 69.6818 33.5302C69.6445 33.5332 69.607 33.5362 69.5695 33.5393C69.4559 33.5479 69.3424 33.5578 69.23 33.5677L69.2297 33.5677L69.2265 33.568C68.686 33.5483 68.3133 33.1942 68.2853 32.7073L70.1541 31.5974Z" fill="#425375" stroke="white" stroke-width="0.3"/>
<path id="Vector_21" d="M89.5249 26.645C89.2609 26.645 89.0171 26.5402 88.8363 26.353C88.658 26.167 88.5613 25.9199 88.5662 25.6566C88.5705 25.4297 88.635 25.2591 88.7331 25.1277C88.8323 24.9948 88.9721 24.8937 89.1385 24.8181C89.4747 24.6653 89.8953 24.6272 90.2213 24.6272H90.2706C90.5522 24.6306 90.7826 24.7303 90.942 24.8907C91.1016 25.0512 91.1987 25.281 91.198 25.5601C91.1974 25.8083 91.1274 25.9926 91.0212 26.1329C90.9135 26.2751 90.7619 26.3808 90.5862 26.4584C90.2314 26.615 89.8054 26.645 89.5402 26.645H89.5249Z" fill="#425375" stroke="white" stroke-width="0.3"/>
<path id="Vector_22" d="M91.1548 36.9946L91.1548 36.9946C91.2249 36.742 91.2506 36.4194 91.0648 36.1697L91.1851 36.0801L91.0648 36.1698C90.8829 35.9259 90.5197 35.7691 90.004 35.7691C89.8791 35.7691 89.7468 35.7785 89.6096 35.7974C89.34 35.8354 89.0658 35.9182 88.8677 36.079C88.6781 36.233 88.5451 36.4686 88.5687 36.8514L91.1548 36.9946ZM91.1548 36.9946C91.1091 37.1595 91.0306 37.324 90.8405 37.4549C90.6454 37.5891 90.3153 37.7001 89.7404 37.7134H89.692C89.3365 37.7134 89.0639 37.6254 88.8788 37.4797M91.1548 36.9946L88.8788 37.4797M88.8788 37.4797C88.6967 37.3363 88.5858 37.1267 88.5687 36.8515L88.8788 37.4797Z" fill="#425375" stroke="white" stroke-width="0.3"/>
<path id="Vector_23" d="M89.6816 32.4505C89.7848 32.4307 89.8892 32.4123 89.9921 32.3954C90.2344 32.3554 90.4472 32.3191 90.6337 32.2512L90.6344 32.2509C91.0358 32.1067 91.2587 31.7209 91.1885 31.2445L91.1885 31.2444C91.1228 30.7961 90.7677 30.4697 90.3596 30.4519L90.3595 30.4519C90.3314 30.4506 90.3013 30.4506 90.2672 30.4506C90.0443 30.4506 89.7907 30.4812 89.4672 30.5505L89.4671 30.5505C89.2625 30.5942 89.0087 30.6813 88.8227 30.849C88.6453 31.0089 88.518 31.2517 88.5731 31.6444L89.6816 32.4505ZM89.6816 32.4505C89.4723 32.4425 89.2203 32.404 89.0095 32.2907C88.7964 32.1762 88.6208 31.984 88.5731 31.6444L89.6816 32.4505Z" fill="#425375" stroke="white" stroke-width="0.3"/>
</g>
</g>
<defs>
<clipPath id="clip0_253_5354">
<rect width="104" height="61" fill="white"/>
</clipPath>
</defs>
</svg>
