<svg width="68" height="60" viewBox="0 0 68 60" fill="none" xmlns="http://www.w3.org/2000/svg">
<g id="Group 1000004199">
<path id="Vector" d="M55.224 59.2778C53.5436 59.2778 51.862 59.2778 50.1816 59.2755C48.5001 59.2755 46.8196 59.2732 45.1392 59.2732H5.69806C2.67743 59.2732 0.560586 57.4952 0.0359562 54.5172C-0.0533912 54.0071 0.0290833 53.5775 0.303998 53.1238C1.72325 50.7884 3.14593 48.4024 4.5228 46.0946C5.22383 44.92 5.92372 43.7466 6.62705 42.5731C6.83896 42.2184 6.8676 41.8684 6.8676 41.5724C6.86416 38.7487 6.86416 35.9792 6.8676 33.341C6.8676 33.0369 6.95122 32.5072 7.50448 32.3805C7.55718 32.369 7.60987 32.3621 7.66141 32.3621C8.09097 32.3621 8.42889 32.7732 8.43118 33.2972C8.4369 34.9175 8.43576 36.5642 8.43461 38.158C8.43461 38.8017 8.43461 39.4454 8.43461 40.0892C8.43461 40.1479 8.4369 40.2078 8.43919 40.2665C8.44378 40.3713 8.44721 40.4703 8.43461 40.5521C8.41514 40.6742 8.35557 41.045 8.58009 41.3098C8.78513 41.5517 9.11159 41.5839 9.40254 41.5839C17.9009 41.5747 26.3041 41.5736 34.1197 41.5736H46.3443C47.3168 41.5736 48.2904 41.5736 49.2629 41.5736C50.2355 41.5736 51.2091 41.5724 52.1816 41.5724C53.9193 41.5724 56.2114 41.5747 58.539 41.5897H58.5597C58.8254 41.5897 59.1255 41.5609 59.3363 41.3467C59.5471 41.1325 59.5723 40.8296 59.5688 40.5337C59.5448 38.5737 59.5505 36.5792 59.5551 34.6491L59.5585 33.3421C59.5585 33.0381 59.6433 32.5107 60.1988 32.3828C60.2515 32.3713 60.3042 32.3644 60.3558 32.3644C60.783 32.3644 61.1198 32.7767 61.1209 33.303C61.1232 33.8361 61.1267 34.3682 61.1301 34.9013C61.1416 36.7346 61.153 38.629 61.1083 40.4888C61.0809 41.6311 61.3478 42.6169 61.9491 43.59C63.2619 45.7123 64.5631 47.8911 65.822 49.9985C66.4852 51.1074 67.1702 52.2544 67.8484 53.3806C68.0064 53.6432 68.0179 53.9184 67.9847 54.2777C67.7212 57.1624 65.4406 59.2617 62.562 59.2698C60.4096 59.2755 58.0774 59.279 55.2217 59.279L55.224 59.2778ZM2.4575 54.6416C2.115 54.6416 1.96151 54.8466 1.90194 54.9698C1.72783 55.3222 1.9512 55.6285 2.07033 55.7932C2.09095 55.822 2.11157 55.8496 2.12989 55.8772C2.92486 57.106 4.06117 57.7025 5.60413 57.7025C14.1998 57.6967 22.6145 57.6956 29.7108 57.6956H48.6387L55.5677 57.6979C57.9228 57.6979 60.2779 57.6967 62.633 57.6921C64.0946 57.6887 65.2275 57.0012 65.9995 55.6492C66.0603 55.5421 66.2458 55.2174 66.082 54.9329C65.9789 54.7545 65.7865 54.6635 65.5104 54.6635C65.4738 54.6635 65.436 54.6646 65.3936 54.6681C65.3604 54.6704 65.3272 54.6715 65.2939 54.6715C65.2607 54.6715 65.2252 54.6715 65.1908 54.6704C65.1519 54.6704 65.1129 54.6692 65.074 54.6692H27.7989C19.4599 54.6692 11.1219 54.6692 2.78167 54.6738C2.75532 54.6738 2.71294 54.6681 2.67056 54.6623C2.60641 54.6531 2.53425 54.6439 2.45635 54.6439L2.4575 54.6416ZM8.80804 43.142C8.29372 43.142 7.96267 43.332 7.70036 43.7777C6.6889 45.4912 5.65224 47.2289 4.65109 48.9091C4.05201 49.9132 3.45407 50.9186 2.85613 51.9239C2.84009 51.9504 2.81145 51.9884 2.78282 52.0241C2.66827 52.1703 2.43115 52.4732 2.62474 52.821C2.68545 52.9315 2.8378 53.1158 3.16312 53.1158C3.2433 53.1158 3.3189 53.1054 3.38534 53.0962C3.43116 53.0904 3.47812 53.0835 3.50676 53.0835C11.4965 53.087 19.4862 53.0881 27.4759 53.0881H39.6478C47.9445 53.0881 56.2412 53.0881 64.5379 53.0847C64.5631 53.0847 64.6044 53.0893 64.6444 53.095C64.704 53.1031 64.7727 53.1112 64.8449 53.1112C65.1381 53.1112 65.2894 52.9626 65.365 52.8382C65.5711 52.4962 65.3352 52.1911 65.2355 52.0598C65.2115 52.0287 65.1874 51.9976 65.1748 51.9757C64.5391 50.9047 63.901 49.8361 63.263 48.7663C62.2893 47.1333 61.2825 45.4451 60.2985 43.7811C60.0327 43.332 59.7029 43.1397 59.1943 43.1397C50.8368 43.1454 42.3179 43.1478 33.8711 43.1478C25.4244 43.1478 17.1723 43.1454 8.81262 43.1397H8.81148L8.80804 43.142Z" fill="#425375"/>
<path id="Vector_2" d="M33.9973 33.9386H29.2253C28.239 33.9398 27.2539 33.9386 26.2688 33.9386C22.9446 33.9329 20.6193 31.6055 20.6136 28.2786C20.6067 24.6996 20.6067 21.0007 20.6136 17.2857C20.6193 13.9704 22.9251 11.6465 26.2218 11.6361C26.9103 11.6338 27.5987 11.6327 28.2883 11.6327C28.9778 11.6327 29.6583 11.6338 30.3421 11.6361C30.9366 11.6384 31.3284 11.9424 31.3387 12.4111C31.3433 12.615 31.2791 12.7865 31.1474 12.9224C30.9687 13.1067 30.6777 13.2092 30.3284 13.2115C30.0328 13.2115 29.7373 13.2126 29.4429 13.2126C29.1187 13.2126 27.8243 13.2103 27.5002 13.2103C27.0111 13.2103 26.5219 13.2103 26.0328 13.2149C23.8083 13.2299 22.1909 14.8628 22.1852 17.0957C22.176 20.7428 22.176 24.5775 22.1852 28.494C22.1897 30.6946 23.8518 32.3575 26.0489 32.361C28.6216 32.3644 31.1943 32.3667 33.7671 32.3667C36.5014 32.3667 39.2345 32.3644 41.9676 32.361C44.1543 32.3575 45.8061 30.6866 45.8107 28.4744C45.8187 24.3702 45.8187 20.661 45.8107 17.1337C45.8049 14.8352 44.1898 13.2241 41.8828 13.2161C41.0982 13.2138 40.3124 13.2126 39.5277 13.2126H36.5346C36.1795 13.2138 35.8244 13.2126 35.4681 13.2126C34.609 13.2126 34.3605 12.9604 34.3593 12.0944C34.357 10.9129 34.3547 9.51031 34.3593 8.06624C34.3616 7.43979 34.6674 7.03558 35.1394 7.03558C35.719 7.04134 35.9252 7.58143 35.9275 8.08351C35.9275 8.27007 35.9298 8.45778 35.9309 8.64433C35.9366 9.34449 35.9412 10.0677 35.9195 10.7759C35.9137 10.9624 35.9275 11.2319 36.1153 11.4265C36.2998 11.6188 36.5598 11.643 36.766 11.643H36.7923C37.5036 11.635 38.2746 11.6315 39.2161 11.6315C39.782 11.6315 40.3479 11.6327 40.9137 11.6338L41.7694 11.6361C43.3548 11.6384 44.7866 12.2027 45.8027 13.2253C46.8187 14.2479 47.38 15.6885 47.3811 17.2834C47.3857 20.9385 47.3857 24.6374 47.3811 28.2763C47.3777 31.609 45.0524 33.9375 41.727 33.9409C40.8221 33.9409 39.9172 33.9409 39.0134 33.9409C37.8381 33.9409 33.9985 33.9398 33.9985 33.9398L33.9973 33.9386Z" fill="#425375"/>
<path id="Vector_3" d="M7.64808 10.9072C7.50948 10.9072 7.36629 10.8543 7.21967 10.7518C6.98256 10.5836 6.86686 10.3533 6.86686 10.0493C6.86686 9.34684 6.86457 8.64554 6.86228 7.94308C6.85655 6.33318 6.84968 4.668 6.88175 3.03277C6.91612 1.32499 8.19447 0.127352 9.99059 0.121594C11.537 0.116988 13.2334 0.114685 15.3285 0.114685C16.4064 0.114685 17.4832 0.114685 18.5611 0.114685C19.639 0.114685 20.7169 0.115837 21.7936 0.115837H24.9265C27.9448 0.115837 30.9632 0.115837 33.9827 0.115837H57.6895C59.9702 0.115837 61.1271 1.27893 61.1271 3.57055V5.39349C61.1271 6.8583 61.1271 8.3231 61.1271 9.7879C61.1271 10.1184 61.0503 10.8876 60.3539 10.8992H60.339C59.638 10.8992 59.5612 10.1034 59.5612 9.76141C59.5612 8.67202 59.5612 7.58148 59.5612 6.4921C59.5612 5.5098 59.5612 4.52636 59.5612 3.54407C59.5612 2.1426 59.1202 1.69234 57.7479 1.69234H35.3458H10.2185C8.90467 1.69234 8.43846 2.15412 8.43846 3.45885C8.43732 5.55126 8.43617 7.7761 8.43961 9.96524C8.43961 10.3717 8.301 10.6308 7.98829 10.807C7.87145 10.8727 7.76148 10.9049 7.65037 10.9049L7.64808 10.9072Z" fill="#425375"/>
<path id="Vector_4" d="M10.4553 22.4229H4.33497C3.92374 22.4229 3.66715 22.2663 3.5022 21.9151C3.37849 21.6525 3.41629 21.4164 3.62477 21.1516C3.80003 20.9293 4.03714 20.8418 4.47242 20.8418C6.31321 20.8453 8.14712 20.8464 9.97989 20.8464H15.5916C15.8917 20.8464 16.1907 20.8464 16.4908 20.8464C16.8184 20.8464 17.5824 20.9259 17.5927 21.6249C17.595 21.8275 17.532 21.9968 17.4026 22.1281C17.2182 22.317 16.9032 22.4206 16.5183 22.4218C15.7107 22.4229 14.902 22.4229 14.0945 22.4229H10.4564H10.4553Z" fill="#425375"/>
<path id="Vector_5" d="M51.9654 22.4252C51.7558 22.4252 51.5473 22.4252 51.3377 22.4206C50.7844 22.4114 50.4076 22.0993 50.3995 21.6456C50.3961 21.4464 50.466 21.2668 50.6011 21.1286C50.7753 20.9489 51.0444 20.8499 51.3572 20.8487C52.1911 20.8464 53.0261 20.8453 53.86 20.8453C54.5966 20.8453 55.3343 20.8453 56.0708 20.8464H57.4752C58.0582 20.8464 58.6401 20.8464 59.2232 20.8464C59.8051 20.8464 60.3881 20.8453 60.97 20.8453C62.041 20.8453 62.9105 20.8476 63.7066 20.8522C63.9563 20.8533 64.1808 20.9443 64.34 21.1078C64.4809 21.2518 64.5577 21.4418 64.5554 21.6422C64.5496 22.0809 64.1865 22.4011 63.6711 22.4218C63.6252 22.4241 63.5783 22.4241 63.5325 22.4241H63.3412H52.8749C52.7226 22.4241 52.1155 22.4264 51.9643 22.4264L51.9654 22.4252Z" fill="#425375"/>
<path id="Vector_6" d="M60.5485 29.3348C60.3515 29.3348 60.1545 29.3348 59.9586 29.3336C59.7616 29.3336 59.5634 29.3325 59.3664 29.3325C59.1957 29.3325 59.0239 29.3325 58.8532 29.3348C58.5634 29.3348 58.3355 29.2369 58.127 29.0261C57.9609 28.858 57.7925 28.6922 57.6241 28.5264C57.2828 28.189 56.93 27.84 56.6001 27.4853C56.3068 27.1698 55.9632 27.0236 55.5164 27.0236H55.4901C54.883 27.0316 54.2415 27.0351 53.4706 27.0351C52.8612 27.0351 52.253 27.0328 51.6436 27.0305H51.4317C50.8039 27.027 50.3996 26.7172 50.4019 26.2393C50.4042 25.6636 50.9391 25.4551 51.4385 25.4528C51.7352 25.4517 52.033 25.4505 52.3297 25.4505C52.6264 25.4505 53.8406 25.4528 53.8406 25.4528C54.0685 25.4528 54.2965 25.4551 54.5233 25.4563C54.7524 25.4586 54.9826 25.4609 55.2117 25.4609C55.5714 25.4609 55.867 25.4563 56.143 25.4448C56.1659 25.4448 56.1888 25.4436 56.2117 25.4436C56.6058 25.4436 56.9105 25.5806 57.2026 25.8881C57.4248 26.123 57.6573 26.3545 57.8807 26.5779C58.1224 26.8186 58.3733 27.0685 58.6081 27.3207C58.891 27.6224 59.2095 27.764 59.6104 27.764C59.6321 27.764 59.6551 27.764 59.678 27.7629C59.9254 27.7537 60.1866 27.7491 60.4752 27.7491C60.7352 27.7491 61.0124 27.7525 61.3744 27.7606C61.8887 27.7721 62.2553 28.0876 62.2667 28.5287C62.2713 28.729 62.2015 28.9098 62.0651 29.0538C61.899 29.2277 61.6516 29.3256 61.3698 29.3302C61.0961 29.3348 60.8234 29.3359 60.5497 29.3359L60.5485 29.3348Z" fill="#425375"/>
<path id="Vector_7" d="M11.7371 17.8236C11.382 17.8236 11.1036 17.7038 10.8619 17.4458C10.8413 17.424 10.8184 17.4021 10.7955 17.3814C10.7852 17.3721 10.7749 17.3629 10.7657 17.3526C9.82183 16.0582 8.69468 15.4271 7.32125 15.4271C7.0681 15.4271 6.80235 15.449 6.53201 15.4939C6.4965 15.4997 6.46099 15.5031 6.42663 15.5031C6.01655 15.5031 5.72789 15.0955 5.7256 14.7293C5.72331 14.2905 6.0933 13.952 6.587 13.9428C6.85504 13.9382 7.14714 13.9359 7.50567 13.9359C7.71071 13.9359 7.91461 13.9359 8.11965 13.937C8.32469 13.937 8.53088 13.9382 8.73592 13.9382C8.87681 13.9382 9.0177 13.9382 9.1586 13.937C9.43466 13.937 9.66146 14.0395 9.88025 14.2583C10.0475 14.4264 10.2159 14.5934 10.3843 14.7604C10.7245 15.0978 11.0773 15.4467 11.4095 15.7991C11.697 16.1043 12.0257 16.2459 12.4438 16.2459H12.4656C13.0681 16.239 13.7279 16.2355 14.4828 16.2355C15.1529 16.2355 15.8241 16.2378 16.4942 16.2401H16.5813C16.9284 16.2413 17.2193 16.3449 17.398 16.5303C17.5309 16.6674 17.5951 16.839 17.5905 17.0428C17.5802 17.508 17.1873 17.8109 16.5916 17.8155C16.2686 17.8178 15.9456 17.8178 15.6214 17.8178H14.1895C13.9536 17.8178 13.7165 17.8155 13.4805 17.8143C13.2422 17.8132 13.0051 17.812 12.7669 17.812C12.3831 17.812 12.0693 17.8155 11.7772 17.8224H11.7359L11.7371 17.8236Z" fill="#425375"/>
<path id="Vector_8" d="M56.0971 17.8363C56.0364 17.8363 55.9734 17.834 55.9092 17.8294C55.6641 17.8109 55.4018 17.8017 55.0845 17.8017C54.8737 17.8017 54.6618 17.8052 54.4499 17.8098C54.2426 17.8132 54.0352 17.8167 53.8279 17.8167H52.3949C52.0891 17.8167 51.7832 17.8167 51.4774 17.8167C51.0891 17.8155 50.7729 17.7096 50.5873 17.5207C50.4602 17.3906 50.3972 17.2225 50.3995 17.021C50.4098 16.3185 51.1738 16.2413 51.5014 16.2402L52.2849 16.2379C52.7214 16.2367 53.1578 16.2344 53.5942 16.2344C54.3124 16.2344 54.9012 16.239 55.4442 16.2471H55.4797C55.9551 16.2471 56.3273 16.0824 56.6504 15.7289C56.939 15.4134 57.2517 15.1059 57.5553 14.8076C57.7363 14.6291 57.9173 14.4506 58.096 14.2698C58.3216 14.0395 58.5771 13.9324 58.8966 13.9324H58.9218C59.1773 13.937 59.4327 13.9382 59.6882 13.9382C59.8657 13.9382 60.0444 13.9382 60.222 13.937C60.3995 13.937 60.5759 13.9359 60.7535 13.9359C60.9448 13.9359 61.1372 13.9359 61.3285 13.9393C61.8806 13.9463 62.2575 14.2572 62.2655 14.7144C62.2689 14.9239 62.1888 15.1301 62.0433 15.2775C61.9425 15.3811 61.7638 15.5043 61.49 15.5043C61.4476 15.5043 61.403 15.5009 61.3583 15.4951C61.112 15.4606 60.8714 15.4433 60.6412 15.4433C59.2953 15.4433 58.2197 16.0237 57.3548 17.2167C57.0478 17.6393 56.6481 17.8374 56.0959 17.8374L56.0971 17.8363Z" fill="#425375"/>
<path id="Vector_9" d="M9.02603 29.3416C8.99969 29.3416 8.97219 29.3416 8.94585 29.3404C8.70644 29.3312 8.44642 29.3266 8.13027 29.3266C7.9447 29.3266 7.75913 29.3278 7.57356 29.3289C7.38914 29.3301 7.20587 29.3312 7.02144 29.3312C6.89659 29.3312 6.77287 29.3312 6.64802 29.3289C6.1062 29.322 5.72705 28.9973 5.72705 28.5412C5.72705 28.0933 6.10735 27.7697 6.6526 27.7547C6.67093 27.7547 6.68925 27.7536 6.70873 27.7524C6.72247 27.7524 6.73736 27.7501 6.75111 27.7501C7.02144 27.8019 7.28719 27.8284 7.54264 27.8284C8.7179 27.8284 9.72134 27.2665 10.5243 26.1586C10.8897 25.6554 11.38 25.4308 12.1165 25.4308C12.1715 25.4308 12.2265 25.432 12.2826 25.4343C12.7855 25.455 13.3285 25.4642 13.9928 25.4642C14.3903 25.4642 14.7889 25.4608 15.1864 25.4573C15.5828 25.4539 15.9791 25.4504 16.3754 25.4504H16.5885C16.931 25.4516 17.2185 25.5552 17.3983 25.7418C17.5301 25.8788 17.5965 26.0573 17.5908 26.2577C17.5747 26.815 17.0604 27.02 16.5839 27.0246C16.4499 27.0258 16.3159 27.0269 16.1807 27.0269H15.5667H14.5679C14.1979 26.9371 13.8348 26.891 13.4888 26.891C12.1417 26.891 10.9905 27.5543 9.96991 28.9178C9.75456 29.2057 9.45444 29.3393 9.02489 29.3393L9.02603 29.3416Z" fill="#425375"/>
<path id="Vector_10" d="M33.9737 28.1762C32.8179 28.1681 31.6037 27.339 31.2096 26.2899C31.1077 26.017 31.0985 25.7971 31.1844 25.6681C31.2703 25.5391 31.4788 25.4643 31.7709 25.4585C32.0309 25.4527 32.3104 25.4493 32.6483 25.4493C32.8797 25.4493 33.1123 25.4504 33.3436 25.4516C33.5773 25.4527 33.8099 25.4539 34.0424 25.4539C34.2749 25.4539 34.4926 25.4527 34.7148 25.4516C34.9359 25.4504 35.1581 25.4493 35.3792 25.4493C35.6987 25.4493 35.9622 25.4516 36.2085 25.4573C36.5086 25.4643 36.7205 25.5391 36.8053 25.6692C36.8935 25.8028 36.8774 26.0377 36.7618 26.3302C36.3517 27.3655 35.1352 28.1762 33.9897 28.1762H33.9714H33.9737Z" fill="#425375"/>
<path id="Vector_11" d="M28.2622 23.1024C27.4753 23.1024 26.8097 22.4287 26.8086 21.6318C26.8086 20.8511 27.4661 20.1797 28.2473 20.1659H28.2702C28.6448 20.1659 29.0171 20.326 29.2943 20.6046C29.5749 20.8868 29.7296 21.253 29.7284 21.6353C29.7273 22.4161 29.0675 23.0874 28.2886 23.1024H28.2622Z" fill="#425375"/>
<path id="Vector_12" d="M39.7119 23.1024C39.3293 23.0989 38.9524 22.9308 38.6752 22.6418C38.4026 22.3562 38.2514 21.9773 38.2617 21.6008C38.2835 20.8234 38.949 20.1659 39.7142 20.1659H39.7302C40.1163 20.1705 40.4954 20.3398 40.7726 20.6311C41.0475 20.919 41.193 21.2864 41.1804 21.6652C41.1564 22.4437 40.4897 23.1024 39.7234 23.1024H39.7096H39.7119Z" fill="#425375"/>
<path id="Vector_13" d="M64.7928 15.5123C64.5259 15.5089 64.2934 15.4167 64.1365 15.2509C63.9979 15.1047 63.9291 14.9135 63.936 14.6993C63.9521 14.2444 64.3026 13.9393 64.8089 13.9393C65.0769 13.9393 65.3175 14.0337 65.487 14.2064C65.6302 14.3515 65.7046 14.5335 65.7024 14.7327C65.6978 15.1772 65.3129 15.5135 64.8066 15.5135H64.7928V15.5123Z" fill="#425375"/>
<path id="Vector_14" d="M64.8053 29.3312C64.299 29.3289 63.9507 29.0226 63.937 28.5677C63.9301 28.3524 64.0011 28.1624 64.1397 28.0161C64.2978 27.8514 64.5303 27.7593 64.7972 27.757C65.315 27.757 65.6999 28.0933 65.7022 28.5401C65.7022 28.7382 65.6289 28.9201 65.4857 29.0641C65.3161 29.2356 65.0756 29.3301 64.8087 29.3301H64.8041L64.8053 29.3312Z" fill="#425375"/>
<path id="Vector_15" d="M67.0837 22.4218C66.8168 22.4183 66.5831 22.3251 66.425 22.1581C66.2864 22.0118 66.2177 21.8218 66.2257 21.6099C66.2429 21.1551 66.5946 20.8487 67.1009 20.8476C67.3632 20.8476 67.6095 20.9455 67.7767 21.1148C67.9188 21.2587 67.9955 21.4464 67.9932 21.6433C67.9886 22.0878 67.6037 22.4229 67.0986 22.4229H67.0837V22.4218Z" fill="#425375"/>
<path id="Vector_16" d="M0.871352 22.4218C0.612473 22.4183 0.368486 22.3159 0.203537 22.1408C0.0637884 21.9934 -0.00837683 21.8057 -0.00150395 21.6122C0.0145328 21.1769 0.40285 20.8476 0.901134 20.8476H0.929771C1.42462 20.8603 1.76712 21.1862 1.76368 21.6399C1.76024 22.1074 1.40858 22.4218 0.887388 22.4218H0.870206H0.871352Z" fill="#425375"/>
<path id="Vector_17" d="M3.1852 15.5135C2.6789 15.5135 2.29402 15.1761 2.29058 14.7292C2.28829 14.53 2.36274 14.3492 2.50478 14.2053C2.67431 14.0337 2.91486 13.9393 3.18291 13.9393C3.68577 13.9404 4.04431 14.2536 4.05805 14.7005C4.06493 14.9158 3.99391 15.1081 3.85416 15.2544C3.69608 15.419 3.46355 15.5123 3.1978 15.5146H3.1852V15.5135Z" fill="#425375"/>
<path id="Vector_18" d="M3.19116 29.3313C2.686 29.3313 2.29768 28.9973 2.28966 28.5551C2.28623 28.3605 2.36183 28.1739 2.50272 28.0277C2.67111 27.8549 2.91624 27.7559 3.17741 27.7548C3.45003 27.7548 3.686 27.8434 3.84522 28.0058C3.98612 28.1474 4.05943 28.3363 4.05714 28.5516C4.0537 29.0031 3.70433 29.3232 3.20834 29.3301H3.19116V29.3313Z" fill="#425375"/>
<path id="Vector_19" d="M9.92476 47.7518C9.47803 47.7403 9.14813 47.3418 9.15844 46.8248C9.16875 46.3273 9.48948 45.9784 9.93851 45.9761C10.1539 45.9761 10.3394 46.0509 10.4792 46.1914C10.6384 46.3538 10.7255 46.5922 10.7232 46.8651C10.7186 47.3626 10.3761 47.7518 9.94309 47.7518H9.92362H9.92476Z" fill="#425375"/>
<path id="Vector_20" d="M14.5203 47.7518C14.3222 47.7518 14.1423 47.6746 14.0003 47.5307C13.8308 47.358 13.738 47.115 13.7403 46.8432C13.7437 46.3331 14.0644 45.9761 14.5192 45.9761H14.5444C14.998 45.9887 15.3039 46.3388 15.305 46.8467C15.305 47.1173 15.2122 47.3603 15.0427 47.5319C14.9006 47.6758 14.7208 47.7518 14.5226 47.7518H14.5203Z" fill="#425375"/>
<path id="Vector_21" d="M19.105 47.7518C18.9068 47.7518 18.727 47.6758 18.5826 47.5307C18.4131 47.3591 18.3203 47.1184 18.3203 46.8513C18.3215 46.3423 18.6273 45.9899 19.0809 45.9738H19.1107C19.5551 45.9738 19.8816 46.3377 19.8862 46.8397C19.8885 47.1127 19.798 47.3568 19.6296 47.5295C19.4887 47.6735 19.3089 47.7506 19.1084 47.7518H19.1038H19.105Z" fill="#425375"/>
<path id="Vector_22" d="M23.6643 47.7518C23.4592 47.7449 23.2782 47.6597 23.1396 47.5065C22.9712 47.3211 22.8888 47.0597 22.9048 46.7707C22.9323 46.3031 23.2519 45.9761 23.6826 45.9761C23.6986 45.9761 23.7146 45.9761 23.7307 45.9772C24.1969 46.0037 24.4936 46.3826 24.4684 46.9181C24.4466 47.3856 24.1041 47.7506 23.6895 47.7506H23.6643V47.7518Z" fill="#425375"/>
<path id="Vector_23" d="M28.2667 47.7529C27.8348 47.7529 27.4923 47.3649 27.4854 46.8685C27.482 46.5956 27.5691 46.3549 27.7294 46.1902C27.868 46.0486 28.0536 45.9738 28.2644 45.9738C28.7168 45.9738 29.041 46.3215 29.0525 46.819C29.0639 47.328 28.7283 47.738 28.2896 47.7518H28.2678L28.2667 47.7529Z" fill="#425375"/>
<path id="Vector_24" d="M32.8356 47.7518C32.3888 47.7414 32.0578 47.3441 32.0681 46.8271C32.0773 46.3285 32.3969 45.9795 32.847 45.9761C33.0647 45.9761 33.2502 46.0509 33.3888 46.1914C33.5481 46.3526 33.6351 46.591 33.634 46.8628C33.6305 47.3614 33.288 47.7518 32.8539 47.7518H32.8367H32.8356Z" fill="#425375"/>
<path id="Vector_25" d="M37.4093 47.7518C36.9637 47.7357 36.6361 47.3338 36.6498 46.8167C36.6624 46.3215 36.9843 45.9761 37.431 45.9761C37.6498 45.9772 37.8354 46.0532 37.974 46.196C38.1332 46.3595 38.218 46.6002 38.2146 46.8732C38.2077 47.366 37.8652 47.7518 37.4345 47.7518H37.4081H37.4093Z" fill="#425375"/>
<path id="Vector_26" d="M42.0146 47.7518C41.8165 47.7518 41.6366 47.6758 41.4923 47.5307C41.3228 47.3591 41.23 47.1184 41.23 46.8513C41.2311 46.3423 41.537 45.9899 41.9906 45.9738H42.0204C42.4648 45.9738 42.7913 46.3377 42.7958 46.8397C42.7981 47.1127 42.7076 47.3568 42.5393 47.5295C42.3984 47.6735 42.2185 47.7506 42.0181 47.7518H42.0135H42.0146Z" fill="#425375"/>
<path id="Vector_27" d="M46.594 47.7518C46.1576 47.7518 45.8151 47.3591 45.814 46.857C45.814 46.5876 45.901 46.3503 46.0602 46.1903C46.1988 46.0498 46.3844 45.9761 46.5952 45.9761C47.0614 45.9818 47.373 46.3262 47.3798 46.8328C47.3867 47.3499 47.0545 47.7449 46.6066 47.7518H46.5952H46.594Z" fill="#425375"/>
<path id="Vector_28" d="M51.1566 47.7529C50.711 47.7368 50.3834 47.3338 50.3948 46.8156C50.4063 46.3204 50.7259 45.9738 51.1726 45.9738C51.3925 45.9761 51.5792 46.0521 51.719 46.196C51.8782 46.3595 51.9641 46.6002 51.9607 46.872C51.9538 47.3579 51.6044 47.7529 51.1818 47.7529H51.1554H51.1566Z" fill="#425375"/>
<path id="Vector_29" d="M55.7581 47.7518C55.3217 47.7518 54.9792 47.3591 54.978 46.857C54.978 46.5876 55.0651 46.3503 55.2243 46.1903C55.3629 46.0498 55.5485 45.9761 55.7592 45.9761C56.2186 45.9818 56.5359 46.3342 56.5428 46.8328C56.5496 47.3499 56.2174 47.7449 55.7696 47.7518H55.7581Z" fill="#425375"/>
<path id="Vector_30" d="M12.2319 50.2657C11.7828 50.2657 11.461 49.9179 11.4495 49.4204C11.4381 48.9034 11.7657 48.5038 12.2135 48.49H12.2353C12.6683 48.49 13.0097 48.8769 13.0142 49.3721C13.0165 49.6461 12.9306 49.8868 12.7702 50.0492C12.6316 50.1908 12.4449 50.2645 12.2319 50.2657Z" fill="#425375"/>
<path id="Vector_31" d="M16.8161 50.268C16.3544 50.268 16.0314 49.9075 16.0303 49.3916C16.0303 49.1279 16.1265 48.8792 16.2949 48.7099C16.4381 48.566 16.6168 48.49 16.8115 48.49C17.2594 48.4946 17.6019 48.8965 17.5973 49.4043C17.5927 49.9052 17.2777 50.2611 16.831 50.268H16.8172H16.8161Z" fill="#425375"/>
<path id="Vector_32" d="M21.3948 50.2656C20.9458 50.2656 20.6239 49.9167 20.6136 49.4192C20.6021 48.9022 20.9309 48.5037 21.3788 48.4911H21.3994C21.8324 48.4911 22.1749 48.8791 22.1783 49.3755C22.1806 49.6495 22.0935 49.8891 21.9332 50.0514C21.7946 50.1919 21.6078 50.2668 21.3959 50.2668H21.3948V50.2656Z" fill="#425375"/>
<path id="Vector_33" d="M25.9731 50.268C25.5149 50.268 25.1953 49.9052 25.1953 49.3847C25.1953 49.1348 25.2789 48.9045 25.4313 48.7364C25.5756 48.5775 25.7681 48.49 25.9742 48.49C26.1953 48.4934 26.39 48.5844 26.5332 48.7468C26.6844 48.9183 26.7658 49.1533 26.7612 49.4066C26.7532 49.9064 26.4359 50.2599 25.9868 50.2668H25.9731V50.268Z" fill="#425375"/>
<path id="Vector_34" d="M30.5306 50.2657C30.0793 50.2484 29.7769 49.8949 29.7769 49.3859C29.7769 48.8838 30.1205 48.49 30.5581 48.49C30.7666 48.4923 30.9452 48.5717 31.0861 48.7168C31.2545 48.8907 31.345 49.136 31.3416 49.4066C31.3347 49.9122 31.014 50.2657 30.5638 50.2657C30.5523 50.2657 30.542 50.2657 30.5306 50.2657Z" fill="#425375"/>
<path id="Vector_35" d="M35.123 50.2657C34.6705 50.2553 34.3624 49.9064 34.3589 49.3986C34.3566 49.1279 34.4483 48.885 34.6178 48.7122C34.7598 48.5671 34.9408 48.4911 35.139 48.49C35.3395 48.49 35.5193 48.566 35.6625 48.7111C35.832 48.8826 35.9248 49.1245 35.9237 49.3939C35.9202 49.9075 35.5995 50.2657 35.1436 50.2657H35.123Z" fill="#425375"/>
<path id="Vector_36" d="M39.7261 50.268C39.2644 50.268 38.9414 49.9076 38.9414 49.3905C38.9414 49.1268 39.0376 48.8792 39.206 48.7088C39.3492 48.5649 39.5279 48.4889 39.7226 48.4889C40.1785 48.4935 40.513 48.8862 40.5084 49.4044C40.5038 49.9053 40.1888 50.2611 39.7421 50.268H39.7284H39.7261Z" fill="#425375"/>
<path id="Vector_37" d="M44.2836 50.2657C43.8311 50.253 43.5264 49.9018 43.523 49.3939C43.5218 49.1256 43.6146 48.8826 43.7841 48.7111C43.9273 48.5671 44.1072 48.49 44.3042 48.49C44.5081 48.49 44.6879 48.5671 44.83 48.7122C44.9983 48.8838 45.09 49.1279 45.0877 49.3986C45.0831 49.9087 44.7624 50.2657 44.3088 50.2657H44.2824H44.2836Z" fill="#425375"/>
<path id="Vector_38" d="M48.8605 50.268C48.4001 50.253 48.0896 49.873 48.1045 49.3421C48.1183 48.8642 48.4608 48.49 48.8846 48.49C49.0919 48.4923 49.2729 48.5706 49.4149 48.7168C49.5833 48.8896 49.6738 49.1337 49.6704 49.4032C49.6635 49.9122 49.3428 50.268 48.8892 50.268H48.8605Z" fill="#425375"/>
<path id="Vector_39" d="M53.4668 50.2657C53.256 50.2657 53.0716 50.192 52.9318 50.0515C52.7726 49.8914 52.6855 49.6554 52.6855 49.387C52.6855 48.8838 53.0292 48.49 53.4668 48.49C53.6741 48.4923 53.8539 48.5706 53.9948 48.7168C54.1632 48.8907 54.2537 49.1348 54.2503 49.4066C54.2434 49.9145 53.933 50.2588 53.4794 50.2657H53.4656H53.4668Z" fill="#425375"/>
</g>
</svg>
