<svg width="18" height="18" viewBox="0 0 18 18" fill="none" xmlns="http://www.w3.org/2000/svg">
<path d="M1.8 9.45005L7.62188 15.3563C7.875 15.6094 8.26875 15.6094 8.52188 15.3563C8.775 15.1032 8.775 14.7094 8.52188 14.4563L3.79688 9.64692L15.75 9.64692C16.0875 9.64692 16.3688 9.36567 16.3688 9.02817C16.3688 8.69067 16.0875 8.3813 15.75 8.3813L3.74063 8.3813L8.52188 3.51567C8.775 3.26255 8.775 2.8688 8.52188 2.61567C8.40938 2.50317 8.24063 2.44692 8.07188 2.44692C7.90313 2.44692 7.73438 2.50317 7.62188 2.6438L1.8 8.55005C1.54688 8.80317 1.54688 9.19692 1.8 9.45005Z" fill="#90A0C1"/>
</svg>
