<svg width="18" height="18" viewBox="0 0 18 18" fill="none" xmlns="http://www.w3.org/2000/svg">
<g id="arrow-right">
<path id="Vector" d="M16.2001 8.54995L10.3782 2.6437C10.1251 2.39058 9.73135 2.39058 9.47822 2.6437C9.2251 2.89683 9.2251 3.29058 9.47822 3.5437L14.2032 8.35308H2.2501C1.9126 8.35308 1.63135 8.63433 1.63135 8.97183C1.63135 9.30933 1.9126 9.6187 2.2501 9.6187H14.2595L9.47822 14.4843C9.2251 14.7375 9.2251 15.1312 9.47822 15.3843C9.59072 15.4968 9.75947 15.5531 9.92822 15.5531C10.097 15.5531 10.2657 15.4968 10.3782 15.3562L16.2001 9.44995C16.4532 9.19683 16.4532 8.80308 16.2001 8.54995Z" fill="#90A0C1"/>
</g>
</svg>
