<svg width="22" height="23" viewBox="0 0 22 23" fill="none" xmlns="http://www.w3.org/2000/svg">
<path d="M19.5535 22.65H2.86117C1.6788 22.65 0.705078 21.6 0.705078 20.325V2.325C0.705078 1.05 1.6788 0 2.86117 0H19.5535C20.7358 0 21.7096 1.05 21.7096 2.325V20.325C21.7096 21.6 20.7358 22.65 19.5535 22.65ZM2.86117 1.65C2.51341 1.65 2.23521 1.95 2.23521 2.325V20.325C2.23521 20.7 2.51341 21 2.86117 21H19.5535C19.9012 21 20.1794 20.7 20.1794 20.325V2.325C20.1794 1.95 19.9012 1.65 19.5535 1.65H2.86117Z" fill="#90A0C1" fill-opacity="0.25"/>
<path d="M8.35584 15.4875C8.14719 15.4875 7.93854 15.4125 7.79943 15.225C7.48645 14.8875 7.48645 14.3625 7.79943 14.025L12.5985 8.88749H9.01658C8.59927 8.88749 8.25152 8.51249 8.25152 8.06249C8.25152 7.61249 8.59927 7.23749 9.01658 7.23749H14.4764C14.8937 7.23749 15.2414 7.61249 15.2414 8.06249V13.7625C15.2414 14.2125 14.8937 14.5875 14.4764 14.5875C14.059 14.5875 13.7113 14.2125 13.7113 13.7625V10.0875L8.91225 15.225C8.73837 15.4125 8.5645 15.4875 8.35584 15.4875Z" fill="#90A0C1" fill-opacity="0.25"/>
</svg>
