<svg width="42" height="42" viewBox="0 0 42 42" fill="none" xmlns="http://www.w3.org/2000/svg">
<circle cx="21" cy="21" r="21" fill="#90A0C1" fill-opacity="0.15"/>
<path d="M21.6446 21.6446V10C15.4072 10.3272 10.3272 15.4072 10 21.6446H21.6446ZM19.0665 19.711H17.7774V18.4219H19.0665V19.711ZM15.1993 15.8438H16.4883V17.1329H15.1993V15.8438ZM18.4219 15.5769L19.3333 16.4883L15.8438 19.9779L14.9324 19.0665L18.4219 15.5769Z" fill="#10194E"/>
<path d="M21.6445 22.9336H13.9346C14.2487 27.0413 17.5368 30.3294 21.6445 30.6435V22.9336H21.6445Z" fill="#10194E"/>
<path d="M22.9336 12.5781C22.9336 12.7166 22.9336 32.1523 22.9336 32.0001C27.9641 31.666 32.0001 27.3385 32.0001 22.2248C32.0001 17.1106 27.9653 12.9111 22.9336 12.5781ZM26.8008 21.6446C27.867 21.6446 28.7344 22.512 28.7344 23.5782C28.7344 24.4174 28.194 25.1261 27.4453 25.3931V26.8009H26.1563V25.3931C25.4077 25.1261 24.8672 24.4174 24.8672 23.5782H26.1563C26.1563 23.9338 26.4452 24.2227 26.8008 24.2227C27.1564 24.2227 27.4453 23.9338 27.4453 23.5782C27.4453 23.2226 27.1564 22.9337 26.8008 22.9337C25.7346 22.9337 24.8672 22.0663 24.8672 21.0001C24.8672 20.1609 25.4077 19.4521 26.1563 19.1852V17.7774H27.4453V19.1852C28.194 19.4521 28.7344 20.1609 28.7344 21.0001H27.4453C27.4453 20.6444 27.1564 20.3555 26.8008 20.3555C26.4452 20.3555 26.1563 20.6444 26.1563 21.0001C26.1563 21.3557 26.4452 21.6446 26.8008 21.6446Z" fill="#10194E"/>
</svg>
