<svg width="22" height="22" viewBox="0 0 22 22" fill="none" xmlns="http://www.w3.org/2000/svg">
<g id="money-bag 1" clip-path="url(#clip0_161_4274)">
<g id="Group">
<path id="Vector" d="M14.7559 0.655961H13.7306C13.6662 0.655961 13.658 0.655961 13.5104 0.511629C13.3147 0.320289 12.9873 0 12.3893 0C11.7914 0 11.464 0.320289 11.2684 0.511629C11.1208 0.655961 11.1125 0.655961 11.0482 0.655961C10.9838 0.655961 10.9755 0.655961 10.828 0.511672C10.6324 0.320289 10.305 0 9.7071 0C9.10919 0 8.78177 0.320289 8.58613 0.511672C8.43862 0.655961 8.43037 0.655961 8.366 0.655961H7.36238L8.33807 2.78532H13.7299L14.7559 0.655961Z" fill="#10194E"/>
<path id="Vector_2" d="M14.11 16.8492L16.4262 12.9853C16.6837 12.5557 17.0862 12.2365 17.5491 12.0756L17.6782 9.65367C16.7479 8.34613 15.4304 7.45285 13.8447 6.65466H8.18441C6.58636 7.45152 5.25824 8.34613 4.32233 9.66364L4.45085 12.0756C4.91376 12.2365 5.31633 12.5557 5.57384 12.9853L7.89003 16.8492C8.43874 17.707 8.68027 18.6975 8.60108 19.6882C9.36772 19.9458 10.1769 20.0802 10.9904 20.0802C11.8111 20.0802 12.6263 19.9436 13.3984 19.6818C13.3208 18.6932 13.5625 17.7052 14.11 16.8492ZM11.5166 14.5521V15.2601H10.6173V14.5839C9.97943 14.5457 9.36068 14.3734 8.978 14.1375L9.46273 13.0403C9.88374 13.2891 10.445 13.4485 10.9362 13.4485C11.3635 13.4485 11.5166 13.3592 11.5166 13.2062C11.5166 12.6449 9.04812 13.0977 9.04812 11.4329C9.04812 10.7122 9.57114 10.1062 10.6172 9.95948V9.26424H11.5166V9.94671C11.9886 9.99136 12.4479 10.1126 12.8114 10.3167L12.3586 11.4074C11.9184 11.1841 11.5038 11.0757 11.1147 11.0757C10.6746 11.0757 10.5343 11.2033 10.5343 11.3563C10.5343 11.8922 13.0028 11.4456 13.0028 13.0913C13.0028 13.7803 12.5053 14.3798 11.5166 14.5521Z" fill="#10194E"/>
<path id="Vector_3" d="M8.82792 4.07434H13.2118V5.36555H8.82792V4.07434Z" fill="#10194E"/>
<path id="Vector_4" d="M6.8359 17.5137L6.82412 17.4947L4.50506 13.6259C4.25502 13.2088 3.71078 13.0791 3.29944 13.3385C2.90168 13.5895 2.77668 14.1118 3.01774 14.5156L5.21142 18.1905L4.10197 18.8468L1.92268 15.1632C1.61992 14.6859 1.52543 14.1187 1.65679 13.5646C1.79085 12.999 2.15823 12.5028 2.66471 12.2034C2.83607 12.1022 3.01529 12.0271 3.19765 11.976L2.96433 7.59709C2.92265 6.81471 2.27614 6.20172 1.49265 6.20172C0.680281 6.20172 0.0210977 6.8591 0.0189063 7.67151L0 14.672L2.9315 19.7168L2.07247 22H6.38365L7.15945 20.5018C7.52628 19.4922 7.40906 18.4051 6.8359 17.5137Z" fill="#10194E"/>
<path id="Vector_5" d="M22 14.672L21.9811 7.67157C21.9789 6.8592 21.3197 6.20178 20.5073 6.20178C19.7239 6.20178 19.0773 6.81477 19.0357 7.59715L18.8023 11.9761C18.9847 12.0271 19.1639 12.1022 19.3353 12.2035C19.8417 12.5029 20.2091 12.999 20.3432 13.5646C20.4745 14.1187 20.3801 14.6859 20.0773 15.1633L17.8981 18.8469L16.7886 18.1905L18.9823 14.5157C19.2233 14.1119 19.0983 13.5895 18.7006 13.3386C18.2893 13.0791 17.745 13.2089 17.495 13.626L15.1759 17.4947L15.1641 17.5138C14.591 18.4052 14.4737 19.4922 14.8406 20.5018L15.6164 22H19.9276L19.0685 19.7168L22 14.672Z" fill="#10194E"/>
</g>
</g>
<defs>
<clipPath id="clip0_161_4274">
<rect width="22" height="22" fill="white"/>
</clipPath>
</defs>
</svg>
