<svg width="36" height="36" viewBox="0 0 36 36" fill="none" xmlns="http://www.w3.org/2000/svg">
<g id="Layer_1" clip-path="url(#clip0_857_65)">
<path id="Vector" d="M18.6218 25.0298C22.5125 25.0876 26.4468 26.6255 29.7545 29.7277C29.8674 29.8335 29.9789 29.9413 30.0825 30.0556C30.4918 30.507 30.4718 30.9885 30.0146 31.3992C28.7508 32.5356 27.3541 33.475 25.8217 34.2128C23.1341 35.5064 20.2943 36.1107 17.3187 35.9829C13.0037 35.7971 9.21658 34.2643 5.98172 31.3935C5.50949 30.9749 5.50592 30.4713 5.97601 29.9992C7.6263 28.3413 9.54593 27.0863 11.7192 26.2248C13.731 25.4269 15.8242 25.0348 18.6218 25.0298Z" fill="#EFF1F2"/>
<path id="Vector_2" d="M24.5737 15.161C24.5651 18.7925 21.606 21.7268 17.9647 21.714C14.354 21.7011 11.4178 18.7403 11.4285 15.1231C11.4392 11.4895 14.3955 8.5587 18.0375 8.57084C21.6496 8.58298 24.5816 11.5388 24.573 15.161H24.5737Z" fill="#EFF1F2"/>
<path id="Vector_3" d="M35.9988 18.5967C35.9159 21.6918 35.0022 24.789 33.2176 27.6248C32.9132 28.1084 32.4324 28.2519 32.0016 27.9976C31.5601 27.7369 31.4515 27.2212 31.7616 26.7255C32.9618 24.8047 33.7655 22.7354 34.092 20.4911C34.7521 15.9445 33.7276 11.8037 30.9486 8.15081C28.3117 4.68503 24.8082 2.53642 20.4867 1.92783C14.3971 1.07067 9.30329 3.05143 5.37044 7.76652C2.50707 11.1987 1.38401 15.236 1.80338 19.681C2.03342 22.1204 2.8207 24.3883 4.09521 26.4847C4.20452 26.6648 4.31525 26.8605 4.35597 27.0626C4.4367 27.4648 4.20666 27.8391 3.84303 27.9826C3.45081 28.1369 3.01288 28.0176 2.79427 27.6162C2.27775 26.6676 1.71622 25.7319 1.31543 24.7333C-1.98444 16.5146 1.09825 7.25794 8.64388 2.62785C16.6332 -2.27511 27.1758 -0.13078 32.6153 7.50366C34.9214 10.7401 36.0459 14.3409 35.9988 18.596V18.5967Z" fill="#EFF1F2"/>
</g>
<defs>
<clipPath id="clip0_857_65">
<rect width="36" height="36" fill="white"/>
</clipPath>
</defs>
</svg>
