<svg width="20" height="20" viewBox="0 0 20 20" fill="none" xmlns="http://www.w3.org/2000/svg">
<g id="Group">
<g id="Group_2">
<path id="Vector" d="M15.1875 19.4687C14.3437 19.4687 13.375 19.25 12.3125 18.8437C10.1875 18 7.84371 16.375 5.74996 14.2812C3.65621 12.1875 2.03121 9.84374 1.18746 7.68749C0.249958 5.37499 0.343708 3.46874 1.43746 2.40624C1.46871 2.37499 1.53121 2.34374 1.56246 2.31249L4.18746 0.749994C4.84371 0.374994 5.68746 0.562494 6.12496 1.18749L7.96871 3.93749C8.40621 4.59374 8.21871 5.46874 7.59371 5.90624L6.46871 6.68749C7.28121 7.99999 9.59371 11.2187 13.2812 13.5312L13.9687 12.5312C14.5 11.7812 15.3437 11.5625 16.0312 12.0312L18.7812 13.875C19.4062 14.3125 19.5937 15.1562 19.2187 15.8125L17.6562 18.4375C17.625 18.5 17.5937 18.5312 17.5625 18.5625C17 19.1562 16.1875 19.4687 15.1875 19.4687ZM2.37496 3.46874C1.78121 4.12499 1.81246 5.46874 2.49996 7.18749C3.28121 9.15624 4.78121 11.3125 6.74996 13.2812C8.68746 15.2187 10.875 16.7187 12.8125 17.5C14.5 18.1875 15.8437 18.2187 16.5312 17.625L18.0312 15.0625C18.0312 15.0312 18.0312 15.0312 18.0312 15L15.2812 13.1562C15.2812 13.1562 15.2187 13.1875 15.1562 13.2812L14.4687 14.2812C14.0312 14.9062 13.1875 15.0937 12.5625 14.6875C8.62496 12.25 6.18746 8.84374 5.31246 7.46874C4.90621 6.81249 5.06246 5.96874 5.68746 5.53124L6.81246 4.74999V4.71874L4.96871 1.96874C4.96871 1.93749 4.93746 1.93749 4.90621 1.96874L2.37496 3.46874Z" fill="#3758F9"/>
</g>
<g id="Group_3">
<g id="Group_4">
<path id="Vector_2" d="M18.3125 8.90624C17.9375 8.90624 17.6562 8.62499 17.625 8.24999C17.375 5.09374 14.7812 2.56249 11.5937 2.34374C11.2187 2.31249 10.9062 1.99999 10.9375 1.59374C10.9687 1.21874 11.2812 0.906241 11.6875 0.937491C15.5625 1.18749 18.7187 4.24999 19.0312 8.12499C19.0625 8.49999 18.7812 8.84374 18.375 8.87499C18.375 8.90624 18.3437 8.90624 18.3125 8.90624Z" fill="#3758F9"/>
</g>
<g id="Group_5">
<path id="Vector_3" d="M15.2187 9.18749C14.8749 9.18749 14.5624 8.93749 14.5312 8.56249C14.3437 6.87499 13.0312 5.56249 11.3437 5.34374C10.9687 5.31249 10.6874 4.93749 10.7187 4.56249C10.7499 4.18749 11.1249 3.90624 11.4999 3.93749C13.8437 4.21874 15.6562 6.03124 15.9374 8.37499C15.9687 8.74999 15.7187 9.09374 15.3124 9.15624C15.2499 9.18749 15.2187 9.18749 15.2187 9.18749Z" fill="#3758F9"/>
</g>
</g>
</g>
</svg>
